<svg version="1.1" viewBox="0.0 0.0 351.0 371.0" fill="none" stroke="none" stroke-linecap="square" stroke-miterlimit="10" width="351" height="371" xmlns:xlink="http://www.w3.org/1999/xlink" xmlns="http://www.w3.org/2000/svg"><path fill="#ffffff" d="M0 0L351.0 0L351.0 371.0L0 371.0L0 0Z" fill-rule="nonzero"/><path fill="#e3e3f4" d="M114.43289 315.22214C46.73643 286.2261 8.764283 213.62306 23.56424 141.48055C38.364193 69.338036 101.855034 17.55 175.5 17.55L175.5 172.65Z" fill-rule="nonzero"/><path fill="#6ac86f" d="M175.5 17.55C238.45769 17.55 295.16934 55.60758 319.02966 113.868675C342.88998 172.12978 329.1646 239.03423 284.29257 283.19495C239.42053 327.35568 172.30531 340.0103 114.43289 315.22214L175.5 172.65Z" fill-rule="nonzero"/><path fill="#000000" d="M280.14117 199.2455L281.43805 199.13612Q281.57867 200.07362 282.0943 200.558Q282.62555 201.02675 283.35992 201.02675Q284.25055 201.02675 284.85992 200.35487Q285.48492 199.683 285.48492 198.58925Q285.48492 197.52675 284.89117 196.91737Q284.29742 196.308 283.3443 196.308Q282.75055 196.308 282.26617 196.58925Q281.79742 196.85487 281.51617 197.27675L280.35992 197.13612L281.32867 191.97987L286.31305 191.97987L286.31305 193.16737L282.31305 193.16737L281.7818 195.85487Q282.68805 195.22987 283.67242 195.22987Q284.98492 195.22987 285.87555 196.13612Q286.7818 197.04237 286.7818 198.47987Q286.7818 199.83925 286.00055 200.82362Q285.0318 202.04237 283.35992 202.04237Q282.00055 202.04237 281.12555 201.27675Q280.26617 200.51112 280.14117 199.2455ZM294.5318 194.308L293.31305 194.40175Q293.14117 193.66737 292.8443 193.33925Q292.3443 192.82362 291.60992 192.82362Q291.01617 192.82362 290.57867 193.15175Q290.00055 193.57362 289.6568 194.38612Q289.32867 195.19862 289.31305 196.69862Q289.75055 196.02675 290.39117 195.69862Q291.04742 195.3705 291.75055 195.3705Q292.98492 195.3705 293.8443 196.27675Q294.70367 197.183 294.70367 198.6205Q294.70367 199.558 294.29742 200.3705Q293.89117 201.183 293.17242 201.6205Q292.4693 202.04237 291.56305 202.04237Q290.0318 202.04237 289.06305 200.91737Q288.0943 199.77675 288.0943 197.183Q288.0943 194.27675 289.1568 192.94862Q290.0943 191.808 291.68805 191.808Q292.87555 191.808 293.62555 192.47987Q294.37555 193.13612 294.5318 194.308ZM289.50055 198.6205Q289.50055 199.26112 289.76617 199.83925Q290.04742 200.41737 290.5318 200.72987Q291.01617 201.02675 291.54742 201.02675Q292.32867 201.02675 292.89117 200.40175Q293.45367 199.77675 293.45367 198.69862Q293.45367 197.65175 292.89117 197.058Q292.3443 196.44862 291.50055 196.44862Q290.67242 196.44862 290.07867 197.058Q289.50055 197.65175 289.50055 198.6205ZM296.37555 194.26112Q296.37555 193.183 296.9068 192.433Q297.45367 191.683 298.48492 191.683Q299.42242 191.683 300.0318 192.35487Q300.6568 193.02675 300.6568 194.32362Q300.6568 195.60487 300.0318 196.29237Q299.4068 196.97987 298.50055 196.97987Q297.5943 196.97987 296.98492 196.308Q296.37555 195.6205 296.37555 194.26112ZM298.51617 192.52675Q298.06305 192.52675 297.75055 192.933Q297.45367 193.32362 297.45367 194.3705Q297.45367 195.33925 297.75055 195.72987Q298.06305 196.1205 298.51617 196.1205Q298.98492 196.1205 299.2818 195.72987Q299.5943 195.33925 299.5943 194.27675Q299.5943 193.308 299.2818 192.91737Q298.9693 192.52675 298.51617 192.52675ZM298.51617 202.2455L304.00055 191.683L305.00055 191.683L299.54742 202.2455L298.51617 202.2455ZM302.85992 199.51112Q302.85992 198.433 303.39117 197.69862Q303.93805 196.94862 304.9693 196.94862Q305.9068 196.94862 306.5318 197.6205Q307.1568 198.29237 307.1568 199.58925Q307.1568 200.8705 306.5318 201.558Q305.9068 202.2455 304.9693 202.2455Q304.06305 202.2455 303.45367 201.57362Q302.85992 200.88612 302.85992 199.51112ZM305.00055 197.79237Q304.5318 197.79237 304.23492 198.19862Q303.93805 198.58925 303.93805 199.63612Q303.93805 200.60487 304.23492 200.9955Q304.54742 201.38612 305.00055 201.38612Q305.4693 201.38612 305.76617 200.9955Q306.07867 200.60487 306.07867 199.54237Q306.07867 198.57362 305.76617 198.183Q305.4693 197.79237 305.00055 197.79237Z" fill-rule="nonzero"/><path fill="#000000" d="M47.968185 153.42949L47.968185 151.02324L43.60881 151.02324L43.60881 149.89824L48.186935 143.41386L49.186935 143.41386L49.186935 149.89824L50.54631 149.89824L50.54631 151.02324L49.186935 151.02324L49.186935 153.42949L47.968185 153.42949ZM47.968185 149.89824L47.968185 145.38261L44.82756 149.89824L47.968185 149.89824ZM55.968185 153.42949L55.968185 151.02324L51.60881 151.02324L51.60881 149.89824L56.186935 143.41386L57.186935 143.41386L57.186935 149.89824L58.54631 149.89824L58.54631 151.02324L57.186935 151.02324L57.186935 153.42949L55.968185 153.42949ZM55.968185 149.89824L55.968185 145.38261L52.82756 149.89824L55.968185 149.89824ZM60.249435 145.82011Q60.249435 144.74199 60.780685 143.99199Q61.32756 143.24199 62.35881 143.24199Q63.29631 143.24199 63.905685 143.91386Q64.530685 144.58574 64.530685 145.88261Q64.530685 147.16386 63.905685 147.85136Q63.280685 148.53886 62.374435 148.53886Q61.468185 148.53886 60.85881 147.86699Q60.249435 147.17949 60.249435 145.82011ZM62.39006 144.08574Q61.936935 144.08574 61.624435 144.49199Q61.32756 144.88261 61.32756 145.92949Q61.32756 146.89824 61.624435 147.28886Q61.936935 147.67949 62.39006 147.67949Q62.85881 147.67949 63.155685 147.28886Q63.468185 146.89824 63.468185 145.83574Q63.468185 144.86699 63.155685 144.47636Q62.843185 144.08574 62.39006 144.08574ZM62.39006 153.80449L67.874435 143.24199L68.874435 143.24199L63.42131 153.80449L62.39006 153.80449ZM66.73381 151.07011Q66.73381 149.99199 67.26506 149.25761Q67.811935 148.50761 68.843185 148.50761Q69.780685 148.50761 70.405685 149.17949Q71.030685 149.85136 71.030685 151.14824Q71.030685 152.42949 70.405685 153.11699Q69.780685 153.80449 68.843185 153.80449Q67.936935 153.80449 67.32756 153.13261Q66.73381 152.44511 66.73381 151.07011ZM68.874435 149.35136Q68.405685 149.35136 68.10881 149.75761Q67.811935 150.14824 67.811935 151.19511Q67.811935 152.16386 68.10881 152.55449Q68.42131 152.94511 68.874435 152.94511Q69.343185 152.94511 69.64006 152.55449Q69.95256 152.16386 69.95256 151.10136Q69.95256 150.13261 69.64006 149.74199Q69.343185 149.35136 68.874435 149.35136Z" fill-rule="nonzero"/><path fill="#6ac86f" d="M133.0 346.45C133.0 349.7637 130.3137 352.45 127.0 352.45C123.686295 352.45 121.0 349.7637 121.0 346.45C121.0 343.1363 123.686295 340.45 127.0 340.45C130.3137 340.45 133.0 343.1363 133.0 346.45Z" fill-rule="nonzero"/><path fill="#161828" d="M145.95312 347.075L145.95312 346.075L149.57812 346.0594L149.57812 349.2469Q148.75 349.91876 147.85938 350.2625Q146.96875 350.59064 146.03125 350.59064Q144.76562 350.59064 143.71875 350.0594Q142.6875 349.5125 142.15625 348.4969Q141.64062 347.46564 141.64062 346.2Q141.64062 344.9344 142.15625 343.85626Q142.6875 342.7625 143.67188 342.2469Q144.65625 341.71564 145.9375 341.71564Q146.875 341.71564 147.625 342.0125Q148.375 342.3094 148.79688 342.85626Q149.23438 343.3875 149.45312 344.2625L148.4375 344.54376Q148.23438 343.8875 147.9375 343.5125Q147.65625 343.1375 147.125 342.91876Q146.59375 342.6844 145.95312 342.6844Q145.17188 342.6844 144.59375 342.91876Q144.03125 343.15314 143.67188 343.54376Q143.32812 343.9344 143.14062 344.40314Q142.8125 345.2 142.8125 346.1219Q142.8125 347.27814 143.20312 348.0594Q143.60938 348.825 144.35938 349.2Q145.10938 349.575 145.96875 349.575Q146.70312 349.575 147.40625 349.29376Q148.10938 348.9969 148.46875 348.6844L148.46875 347.075L145.95312 347.075ZM150.79688 343.075L150.79688 341.85626L151.85938 341.85626L151.85938 343.075L150.79688 343.075ZM150.79688 350.45L150.79688 344.23126L151.85938 344.23126L151.85938 350.45L150.79688 350.45ZM153.78125 350.45L153.78125 344.23126L154.73438 344.23126L154.73438 345.16876Q155.09375 344.5125 155.39062 344.3094Q155.70312 344.09064 156.07812 344.09064Q156.60938 344.09064 157.15625 344.41876L156.79688 345.40314Q156.40625 345.16876 156.03125 345.16876Q155.67188 345.16876 155.39062 345.3875Q155.125 345.59064 155.01562 345.96564Q154.82812 346.52814 154.82812 347.1844L154.82812 350.45L153.78125 350.45ZM157.76562 350.45L157.76562 341.85626L158.82812 341.85626L158.82812 350.45L157.76562 350.45ZM160.375 348.59064L161.40625 348.4344Q161.5 349.0594 161.89062 349.3875Q162.29688 349.71564 163.03125 349.71564Q163.75 349.71564 164.09375 349.4344Q164.45312 349.1375 164.45312 348.73126Q164.45312 348.3719 164.14062 348.16876Q163.92188 348.02814 163.0625 347.8094Q161.90625 347.5125 161.45312 347.3094Q161.01562 347.09064 160.78125 346.71564Q160.54688 346.34064 160.54688 345.8719Q160.54688 345.46564 160.73438 345.10626Q160.92188 344.7469 161.25 344.5125Q161.5 344.34064 161.92188 344.21564Q162.34375 344.09064 162.84375 344.09064Q163.5625 344.09064 164.10938 344.3094Q164.67188 344.5125 164.9375 344.8719Q165.20312 345.23126 165.29688 345.825L164.26562 345.96564Q164.20312 345.4969 163.85938 345.23126Q163.53125 344.95 162.90625 344.95Q162.1875 344.95 161.875 345.2Q161.5625 345.4344 161.5625 345.7625Q161.5625 345.96564 161.6875 346.1219Q161.82812 346.29376 162.09375 346.40314Q162.25 346.46564 163.03125 346.66876Q164.15625 346.98126 164.59375 347.16876Q165.03125 347.35626 165.28125 347.71564Q165.53125 348.075 165.53125 348.6219Q165.53125 349.15314 165.21875 349.6219Q164.92188 350.075 164.34375 350.34064Q163.76562 350.59064 163.03125 350.59064Q161.8125 350.59064 161.17188 350.09064Q160.54688 349.575 160.375 348.59064Z" fill-rule="nonzero"/><path fill="#e3e3f4" d="M195.0 346.45C195.0 349.7637 192.3137 352.45 189.0 352.45C185.6863 352.45 183.0 349.7637 183.0 346.45C183.0 343.1363 185.6863 340.45 189.0 340.45C192.3137 340.45 195.0 343.1363 195.0 346.45Z" fill-rule="nonzero"/><path fill="#161828" d="M203.875 350.45L203.875 341.85626L207.10938 341.85626Q208.09375 341.85626 208.6875 342.1219Q209.28125 342.3875 209.60938 342.9344Q209.95312 343.46564 209.95312 344.0594Q209.95312 344.60626 209.65625 345.09064Q209.35938 345.575 208.75 345.8719Q209.53125 346.10626 209.9375 346.66876Q210.35938 347.21564 210.35938 347.96564Q210.35938 348.5594 210.10938 349.09064Q209.85938 349.60626 209.48438 349.8875Q209.10938 350.16876 208.53125 350.3094Q207.96875 350.45 207.15625 350.45L203.875 350.45ZM205.01562 345.46564L206.875 345.46564Q207.625 345.46564 207.95312 345.3719Q208.39062 345.2469 208.60938 344.95Q208.82812 344.6375 208.82812 344.1844Q208.82812 343.7625 208.625 343.4344Q208.42188 343.10626 208.03125 342.9969Q207.65625 342.8719 206.73438 342.8719L205.01562 342.8719L205.01562 345.46564ZM205.01562 349.4344L207.15625 349.4344Q207.70312 349.4344 207.92188 349.3875Q208.32812 349.325 208.57812 349.16876Q208.84375 348.9969 209.01562 348.6844Q209.1875 348.3719 209.1875 347.96564Q209.1875 347.48126 208.9375 347.1219Q208.70312 346.7625 208.26562 346.6219Q207.82812 346.48126 207.0 346.48126L205.01562 346.48126L205.01562 349.4344ZM211.40625 347.34064Q211.40625 345.60626 212.35938 344.77814Q213.15625 344.09064 214.3125 344.09064Q215.59375 344.09064 216.40625 344.9344Q217.23438 345.7625 217.23438 347.2469Q217.23438 348.45 216.875 349.1375Q216.51562 349.825 215.8125 350.21564Q215.125 350.59064 214.3125 350.59064Q213.01562 350.59064 212.20312 349.7625Q211.40625 348.91876 211.40625 347.34064ZM212.48438 347.34064Q212.48438 348.52814 213.0 349.1219Q213.53125 349.71564 214.3125 349.71564Q215.10938 349.71564 215.625 349.1219Q216.14062 348.52814 216.14062 347.3094Q216.14062 346.15314 215.60938 345.5594Q215.09375 344.96564 214.3125 344.96564Q213.53125 344.96564 213.0 345.5594Q212.48438 346.1375 212.48438 347.34064ZM218.75 352.84064L218.625 351.85626Q218.96875 351.95 219.23438 351.95Q219.57812 351.95 219.78125 351.825Q220.0 351.71564 220.14062 351.5125Q220.23438 351.34064 220.46875 350.71564Q220.48438 350.6375 220.5625 350.46564L218.1875 344.23126L219.32812 344.23126L220.625 347.825Q220.875 348.5125 221.07812 349.27814Q221.26562 348.54376 221.51562 347.85626L222.84375 344.23126L223.89062 344.23126L221.53125 350.5594Q221.14062 351.575 220.9375 351.96564Q220.65625 352.4969 220.28125 352.73126Q219.92188 352.98126 219.42188 352.98126Q219.125 352.98126 218.75 352.84064ZM223.375 348.59064L224.40625 348.4344Q224.5 349.0594 224.89062 349.3875Q225.29688 349.71564 226.03125 349.71564Q226.75 349.71564 227.09375 349.4344Q227.45312 349.1375 227.45312 348.73126Q227.45312 348.3719 227.14062 348.16876Q226.92188 348.02814 226.0625 347.8094Q224.90625 347.5125 224.45312 347.3094Q224.01562 347.09064 223.78125 346.71564Q223.54688 346.34064 223.54688 345.8719Q223.54688 345.46564 223.73438 345.10626Q223.92188 344.7469 224.25 344.5125Q224.5 344.34064 224.92188 344.21564Q225.34375 344.09064 225.84375 344.09064Q226.5625 344.09064 227.10938 344.3094Q227.67188 344.5125 227.9375 344.8719Q228.20312 345.23126 228.29688 345.825L227.26562 345.96564Q227.20312 345.4969 226.85938 345.23126Q226.53125 344.95 225.90625 344.95Q225.1875 344.95 224.875 345.2Q224.5625 345.4344 224.5625 345.7625Q224.5625 345.96564 224.6875 346.1219Q224.82812 346.29376 225.09375 346.40314Q225.25 346.46564 226.03125 346.66876Q227.15625 346.98126 227.59375 347.16876Q228.03125 347.35626 228.28125 347.71564Q228.53125 348.075 228.53125 348.6219Q228.53125 349.15314 228.21875 349.6219Q227.92188 350.075 227.34375 350.34064Q226.76562 350.59064 226.03125 350.59064Q224.8125 350.59064 224.17188 350.09064Q223.54688 349.575 223.375 348.59064Z" fill-rule="nonzero"/></svg>