<svg version="1.1" viewBox="0.0 0.0 356.0 371.0" fill="none" stroke="none" stroke-linecap="square" stroke-miterlimit="10" width="356" height="371" xmlns:xlink="http://www.w3.org/1999/xlink" xmlns="http://www.w3.org/2000/svg"><path fill="#ffffff" d="M0 0L356.0 0L356.0 371.0L0 371.0L0 0Z" fill-rule="nonzero"/><path fill="#6ac86f" d="M178.0 17.8C248.66922 17.8 310.3629 65.66989 327.91635 134.12436L178.0 172.56667Z" fill-rule="nonzero"/><path fill="#e3e3f4" d="M327.91635 134.12436C344.3472 198.20105 318.2372 265.63675 262.94028 301.9416C207.64333 338.24646 135.3857 335.39337 83.12341 294.84158C30.861126 254.28978 10.149486 185.00536 31.581419 122.42367C53.01335 59.841984 111.850204 17.8 178.0 17.8L178.0 172.56667Z" fill-rule="nonzero"/><path fill="#000000" d="M243.31863 83.23688L243.31863 84.42438L236.69363 84.42438Q236.67801 83.98688 236.83426 83.565Q237.09988 82.89313 237.64676 82.23688Q238.20926 81.58063 239.25613 80.72125Q240.89676 79.3775 241.45926 78.59625Q242.03738 77.815 242.03738 77.11188Q242.03738 76.3775 241.50613 75.8775Q240.99051 75.3775 240.16238 75.3775Q239.27176 75.3775 238.72488 75.90875Q238.19363 76.44 238.19363 77.39313L236.92801 77.2525Q237.05301 75.84625 237.89676 75.11188Q238.75613 74.36188 240.17801 74.36188Q241.63113 74.36188 242.45926 75.15875Q243.30301 75.95563 243.30301 77.14313Q243.30301 77.7525 243.05301 78.33063Q242.81863 78.90875 242.24051 79.54938Q241.67801 80.19 240.34988 81.315Q239.24051 82.23688 238.92801 82.58063Q238.61551 82.90875 238.41238 83.23688L243.31863 83.23688ZM249.49051 84.42438L248.25613 84.42438L248.25613 76.58063Q247.81863 77.0025 247.08426 77.44Q246.36551 77.86188 245.80301 78.065L245.80301 76.8775Q246.83426 76.39313 247.59988 75.70563Q248.38113 75.01813 248.69363 74.36188L249.49051 74.36188L249.49051 84.42438ZM253.08426 76.815Q253.08426 75.73688 253.61551 74.98688Q254.16238 74.23688 255.19363 74.23688Q256.13113 74.23688 256.7405 74.90875Q257.3655 75.58063 257.3655 76.8775Q257.3655 78.15875 256.7405 78.84625Q256.1155 79.53375 255.20926 79.53375Q254.30301 79.53375 253.69363 78.86188Q253.08426 78.17438 253.08426 76.815ZM255.22488 75.08063Q254.77176 75.08063 254.45926 75.48688Q254.16238 75.8775 254.16238 76.92438Q254.16238 77.89313 254.45926 78.28375Q254.77176 78.67438 255.22488 78.67438Q255.69363 78.67438 255.99051 78.28375Q256.303 77.89313 256.303 76.83063Q256.303 75.86188 255.99051 75.47125Q255.67801 75.08063 255.22488 75.08063ZM255.22488 84.79938L260.70926 74.23688L261.70926 74.23688L256.25613 84.79938L255.22488 84.79938ZM259.56863 82.065Q259.56863 80.98688 260.09988 80.2525Q260.64676 79.5025 261.678 79.5025Q262.6155 79.5025 263.2405 80.17438Q263.8655 80.84625 263.8655 82.14313Q263.8655 83.42438 263.2405 84.11188Q262.6155 84.79938 261.678 84.79938Q260.77176 84.79938 260.16238 84.1275Q259.56863 83.44 259.56863 82.065ZM261.70926 80.34625Q261.2405 80.34625 260.94363 80.7525Q260.64676 81.14313 260.64676 82.19Q260.64676 83.15875 260.94363 83.54938Q261.25613 83.94 261.70926 83.94Q262.178 83.94 262.47488 83.54938Q262.78738 83.15875 262.78738 82.09625Q262.78738 81.1275 262.47488 80.73688Q262.178 80.34625 261.70926 80.34625Z" fill-rule="nonzero"/><path fill="#000000" d="M92.3845 262.00583L92.3845 260.81833L98.8845 260.81833L98.8845 261.77145Q97.91575 262.78708 96.97825 264.47458Q96.04075 266.16208 95.52512 267.95895Q95.16575 269.20895 95.05637 270.70895L93.79075 270.70895Q93.80637 269.52145 94.24387 267.84958Q94.697 266.1777 95.52512 264.63083Q96.36887 263.06833 97.30637 262.00583L92.3845 262.00583ZM100.49387 268.39645L101.68137 268.28708Q101.822 269.1152 102.24387 269.4902Q102.68137 269.8652 103.33762 269.8652Q103.90012 269.8652 104.322 269.6152Q104.7595 269.34958 105.02512 268.91208Q105.30637 268.47458 105.49387 267.7402Q105.68137 267.00583 105.68137 266.2402Q105.68137 266.16208 105.66575 265.9902Q105.30637 266.58395 104.66575 266.95895Q104.02512 267.31833 103.27512 267.31833Q102.02512 267.31833 101.16575 266.41208Q100.30637 265.50583 100.30637 264.03708Q100.30637 262.50583 101.197 261.58395Q102.10325 260.64645 103.46262 260.64645Q104.43137 260.64645 105.24387 261.1777Q106.05637 261.69333 106.47825 262.6777Q106.90012 263.64645 106.90012 265.4902Q106.90012 267.41208 106.47825 268.5527Q106.072 269.69333 105.24387 270.28708Q104.41575 270.88083 103.30637 270.88083Q102.1345 270.88083 101.3845 270.22458Q100.65012 269.56833 100.49387 268.39645ZM105.52512 263.97458Q105.52512 262.91208 104.96262 262.28708Q104.40012 261.66208 103.61887 261.66208Q102.79075 261.66208 102.18137 262.33395Q101.572 263.00583 101.572 264.06833Q101.572 265.02145 102.15012 265.63083Q102.72825 266.22458 103.572 266.22458Q104.43137 266.22458 104.97825 265.63083Q105.52512 265.02145 105.52512 263.97458ZM108.54075 263.09958Q108.54075 262.02145 109.072 261.27145Q109.61887 260.52145 110.65012 260.52145Q111.58762 260.52145 112.197 261.19333Q112.822 261.8652 112.822 263.16208Q112.822 264.44333 112.197 265.13083Q111.572 265.81833 110.66575 265.81833Q109.7595 265.81833 109.15012 265.14645Q108.54075 264.45895 108.54075 263.09958ZM110.68137 261.3652Q110.22825 261.3652 109.91575 261.77145Q109.61887 262.16208 109.61887 263.20895Q109.61887 264.1777 109.91575 264.56833Q110.22825 264.95895 110.68137 264.95895Q111.15012 264.95895 111.447 264.56833Q111.7595 264.1777 111.7595 263.1152Q111.7595 262.14645 111.447 261.75583Q111.1345 261.3652 110.68137 261.3652ZM110.68137 271.08395L116.16575 260.52145L117.16575 260.52145L111.71262 271.08395L110.68137 271.08395ZM115.02512 268.34958Q115.02512 267.27145 115.55637 266.53708Q116.10325 265.78708 117.1345 265.78708Q118.072 265.78708 118.697 266.45895Q119.322 267.13083 119.322 268.4277Q119.322 269.70895 118.697 270.39645Q118.072 271.08395 117.1345 271.08395Q116.22825 271.08395 115.61887 270.41208Q115.02512 269.72458 115.02512 268.34958ZM117.16575 266.63083Q116.697 266.63083 116.40012 267.03708Q116.10325 267.4277 116.10325 268.47458Q116.10325 269.44333 116.40012 269.83395Q116.71262 270.22458 117.16575 270.22458Q117.6345 270.22458 117.93137 269.83395Q118.24387 269.44333 118.24387 268.38083Q118.24387 267.41208 117.93137 267.02145Q117.6345 266.63083 117.16575 266.63083Z" fill-rule="nonzero"/><path fill="#6ac86f" d="M135.5 346.2C135.5 349.5137 132.8137 352.2 129.5 352.2C126.186295 352.2 123.5 349.5137 123.5 346.2C123.5 342.8863 126.186295 340.2 129.5 340.2C132.8137 340.2 135.5 342.8863 135.5 346.2Z" fill-rule="nonzero"/><path fill="#161828" d="M148.45312 346.825L148.45312 345.825L152.07812 345.8094L152.07812 348.9969Q151.25 349.66876 150.35938 350.0125Q149.46875 350.34064 148.53125 350.34064Q147.26562 350.34064 146.21875 349.8094Q145.1875 349.2625 144.65625 348.2469Q144.14062 347.21564 144.14062 345.95Q144.14062 344.6844 144.65625 343.60626Q145.1875 342.5125 146.17188 341.9969Q147.15625 341.46564 148.4375 341.46564Q149.375 341.46564 150.125 341.7625Q150.875 342.0594 151.29688 342.60626Q151.73438 343.1375 151.95312 344.0125L150.9375 344.29376Q150.73438 343.6375 150.4375 343.2625Q150.15625 342.8875 149.625 342.66876Q149.09375 342.4344 148.45312 342.4344Q147.67188 342.4344 147.09375 342.66876Q146.53125 342.90314 146.17188 343.29376Q145.82812 343.6844 145.64062 344.15314Q145.3125 344.95 145.3125 345.8719Q145.3125 347.02814 145.70312 347.8094Q146.10938 348.575 146.85938 348.95Q147.60938 349.325 148.46875 349.325Q149.20312 349.325 149.90625 349.04376Q150.60938 348.7469 150.96875 348.4344L150.96875 346.825L148.45312 346.825ZM153.29688 342.825L153.29688 341.60626L154.35938 341.60626L154.35938 342.825L153.29688 342.825ZM153.29688 350.2L153.29688 343.98126L154.35938 343.98126L154.35938 350.2L153.29688 350.2ZM156.28125 350.2L156.28125 343.98126L157.23438 343.98126L157.23438 344.91876Q157.59375 344.2625 157.89062 344.0594Q158.20312 343.84064 158.57812 343.84064Q159.10938 343.84064 159.65625 344.16876L159.29688 345.15314Q158.90625 344.91876 158.53125 344.91876Q158.17188 344.91876 157.89062 345.1375Q157.625 345.34064 157.51562 345.71564Q157.32812 346.27814 157.32812 346.9344L157.32812 350.2L156.28125 350.2ZM160.26562 350.2L160.26562 341.60626L161.32812 341.60626L161.32812 350.2L160.26562 350.2ZM162.875 348.34064L163.90625 348.1844Q164.0 348.8094 164.39062 349.1375Q164.79688 349.46564 165.53125 349.46564Q166.25 349.46564 166.59375 349.1844Q166.95312 348.8875 166.95312 348.48126Q166.95312 348.1219 166.64062 347.91876Q166.42188 347.77814 165.5625 347.5594Q164.40625 347.2625 163.95312 347.0594Q163.51562 346.84064 163.28125 346.46564Q163.04688 346.09064 163.04688 345.6219Q163.04688 345.21564 163.23438 344.85626Q163.42188 344.4969 163.75 344.2625Q164.0 344.09064 164.42188 343.96564Q164.84375 343.84064 165.34375 343.84064Q166.0625 343.84064 166.60938 344.0594Q167.17188 344.2625 167.4375 344.6219Q167.70312 344.98126 167.79688 345.575L166.76562 345.71564Q166.70312 345.2469 166.35938 344.98126Q166.03125 344.7 165.40625 344.7Q164.6875 344.7 164.375 344.95Q164.0625 345.1844 164.0625 345.5125Q164.0625 345.71564 164.1875 345.8719Q164.32812 346.04376 164.59375 346.15314Q164.75 346.21564 165.53125 346.41876Q166.65625 346.73126 167.09375 346.91876Q167.53125 347.10626 167.78125 347.46564Q168.03125 347.825 168.03125 348.3719Q168.03125 348.90314 167.71875 349.3719Q167.42188 349.825 166.84375 350.09064Q166.26562 350.34064 165.53125 350.34064Q164.3125 350.34064 163.67188 349.84064Q163.04688 349.325 162.875 348.34064Z" fill-rule="nonzero"/><path fill="#e3e3f4" d="M197.5 346.2C197.5 349.5137 194.8137 352.2 191.5 352.2C188.1863 352.2 185.5 349.5137 185.5 346.2C185.5 342.8863 188.1863 340.2 191.5 340.2C194.8137 340.2 197.5 342.8863 197.5 346.2Z" fill-rule="nonzero"/><path fill="#161828" d="M206.375 350.2L206.375 341.60626L209.60938 341.60626Q210.59375 341.60626 211.1875 341.8719Q211.78125 342.1375 212.10938 342.6844Q212.45312 343.21564 212.45312 343.8094Q212.45312 344.35626 212.15625 344.84064Q211.85938 345.325 211.25 345.6219Q212.03125 345.85626 212.4375 346.41876Q212.85938 346.96564 212.85938 347.71564Q212.85938 348.3094 212.60938 348.84064Q212.35938 349.35626 211.98438 349.6375Q211.60938 349.91876 211.03125 350.0594Q210.46875 350.2 209.65625 350.2L206.375 350.2ZM207.51562 345.21564L209.375 345.21564Q210.125 345.21564 210.45312 345.1219Q210.89062 344.9969 211.10938 344.7Q211.32812 344.3875 211.32812 343.9344Q211.32812 343.5125 211.125 343.1844Q210.92188 342.85626 210.53125 342.7469Q210.15625 342.6219 209.23438 342.6219L207.51562 342.6219L207.51562 345.21564ZM207.51562 349.1844L209.65625 349.1844Q210.20312 349.1844 210.42188 349.1375Q210.82812 349.075 211.07812 348.91876Q211.34375 348.7469 211.51562 348.4344Q211.6875 348.1219 211.6875 347.71564Q211.6875 347.23126 211.4375 346.8719Q211.20312 346.5125 210.76562 346.3719Q210.32812 346.23126 209.5 346.23126L207.51562 346.23126L207.51562 349.1844ZM213.90625 347.09064Q213.90625 345.35626 214.85938 344.52814Q215.65625 343.84064 216.8125 343.84064Q218.09375 343.84064 218.90625 344.6844Q219.73438 345.5125 219.73438 346.9969Q219.73438 348.2 219.375 348.8875Q219.01562 349.575 218.3125 349.96564Q217.625 350.34064 216.8125 350.34064Q215.51562 350.34064 214.70312 349.5125Q213.90625 348.66876 213.90625 347.09064ZM214.98438 347.09064Q214.98438 348.27814 215.5 348.8719Q216.03125 349.46564 216.8125 349.46564Q217.60938 349.46564 218.125 348.8719Q218.64062 348.27814 218.64062 347.0594Q218.64062 345.90314 218.10938 345.3094Q217.59375 344.71564 216.8125 344.71564Q216.03125 344.71564 215.5 345.3094Q214.98438 345.8875 214.98438 347.09064ZM221.25 352.59064L221.125 351.60626Q221.46875 351.7 221.73438 351.7Q222.07812 351.7 222.28125 351.575Q222.5 351.46564 222.64062 351.2625Q222.73438 351.09064 222.96875 350.46564Q222.98438 350.3875 223.0625 350.21564L220.6875 343.98126L221.82812 343.98126L223.125 347.575Q223.375 348.2625 223.57812 349.02814Q223.76562 348.29376 224.01562 347.60626L225.34375 343.98126L226.39062 343.98126L224.03125 350.3094Q223.64062 351.325 223.4375 351.71564Q223.15625 352.2469 222.78125 352.48126Q222.42188 352.73126 221.92188 352.73126Q221.625 352.73126 221.25 352.59064ZM225.875 348.34064L226.90625 348.1844Q227.0 348.8094 227.39062 349.1375Q227.79688 349.46564 228.53125 349.46564Q229.25 349.46564 229.59375 349.1844Q229.95312 348.8875 229.95312 348.48126Q229.95312 348.1219 229.64062 347.91876Q229.42188 347.77814 228.5625 347.5594Q227.40625 347.2625 226.95312 347.0594Q226.51562 346.84064 226.28125 346.46564Q226.04688 346.09064 226.04688 345.6219Q226.04688 345.21564 226.23438 344.85626Q226.42188 344.4969 226.75 344.2625Q227.0 344.09064 227.42188 343.96564Q227.84375 343.84064 228.34375 343.84064Q229.0625 343.84064 229.60938 344.0594Q230.17188 344.2625 230.4375 344.6219Q230.70312 344.98126 230.79688 345.575L229.76562 345.71564Q229.70312 345.2469 229.35938 344.98126Q229.03125 344.7 228.40625 344.7Q227.6875 344.7 227.375 344.95Q227.0625 345.1844 227.0625 345.5125Q227.0625 345.71564 227.1875 345.8719Q227.32812 346.04376 227.59375 346.15314Q227.75 346.21564 228.53125 346.41876Q229.65625 346.73126 230.09375 346.91876Q230.53125 347.10626 230.78125 347.46564Q231.03125 347.825 231.03125 348.3719Q231.03125 348.90314 230.71875 349.3719Q230.42188 349.825 229.84375 350.09064Q229.26562 350.34064 228.53125 350.34064Q227.3125 350.34064 226.67188 349.84064Q226.04688 349.325 225.875 348.34064Z" fill-rule="nonzero"/></svg>