<svg version="1.1" viewBox="0.0 0.0 356.0 371.0" fill="none" stroke="none" stroke-linecap="square" stroke-miterlimit="10" width="356" height="371" xmlns:xlink="http://www.w3.org/1999/xlink" xmlns="http://www.w3.org/2000/svg"><path fill="#ffffff" d="M0 0L356.0 0L356.0 371.0L0 371.0L0 0Z" fill-rule="nonzero"/><path fill="#6ac86f" d="M178.0 17.8C241.08513 17.8 297.8566 56.089832 321.49295 114.57962L178.0 172.56667Z" fill-rule="nonzero"/><path fill="#e3e3f4" d="M321.49295 114.57962C346.98834 177.66975 328.28442 250.01146 275.4044 292.83765C222.52434 335.66382 147.87506 338.92648 91.46024 300.8772C35.045425 262.8279 10.101274 192.39389 29.995079 127.31996C49.88888 62.24603 109.9531 17.8 178.0 17.8L178.0 172.56667Z" fill-rule="nonzero"/><path fill="#000000" d="M235.42757 79.40037L234.19319 79.40037L234.19319 71.55662Q233.75569 71.97849 233.02132 72.41599Q232.30257 72.83787 231.74007 73.04099L231.74007 71.85349Q232.77132 71.36912 233.53694 70.68162Q234.31819 69.99412 234.63069 69.33787L235.42757 69.33787L235.42757 79.40037ZM238.97444 77.08787L240.16194 76.97849Q240.30257 77.80662 240.72444 78.18162Q241.16194 78.55662 241.81819 78.55662Q242.38069 78.55662 242.80257 78.30662Q243.24007 78.04099 243.50569 77.60349Q243.78694 77.16599 243.97444 76.43162Q244.16194 75.69724 244.16194 74.93162Q244.16194 74.85349 244.14632 74.68162Q243.78694 75.27537 243.14632 75.65037Q242.50569 76.00974 241.75569 76.00974Q240.50569 76.00974 239.64632 75.10349Q238.78694 74.19724 238.78694 72.72849Q238.78694 71.19724 239.67757 70.27537Q240.58382 69.33787 241.94319 69.33787Q242.91194 69.33787 243.72444 69.86912Q244.53694 70.38474 244.95882 71.36912Q245.38069 72.33787 245.38069 74.18162Q245.38069 76.10349 244.95882 77.24412Q244.55257 78.38474 243.72444 78.97849Q242.89632 79.57224 241.78694 79.57224Q240.61507 79.57224 239.86507 78.91599Q239.13069 78.25974 238.97444 77.08787ZM244.00569 72.66599Q244.00569 71.60349 243.44319 70.97849Q242.88069 70.35349 242.09944 70.35349Q241.27132 70.35349 240.66194 71.02537Q240.05257 71.69724 240.05257 72.75974Q240.05257 73.71287 240.63069 74.32224Q241.20882 74.91599 242.05257 74.91599Q242.91194 74.91599 243.45882 74.32224Q244.00569 73.71287 244.00569 72.66599ZM247.02132 71.79099Q247.02132 70.71287 247.55257 69.96287Q248.09944 69.21287 249.13069 69.21287Q250.06819 69.21287 250.67757 69.88474Q251.30257 70.55662 251.30257 71.85349Q251.30257 73.13474 250.67757 73.82224Q250.05257 74.50974 249.14632 74.50974Q248.24007 74.50974 247.63069 73.83787Q247.02132 73.15037 247.02132 71.79099ZM249.16194 70.05662Q248.70882 70.05662 248.39632 70.46287Q248.09944 70.85349 248.09944 71.90037Q248.09944 72.86912 248.39632 73.25974Q248.70882 73.65037 249.16194 73.65037Q249.63069 73.65037 249.92757 73.25974Q250.24007 72.86912 250.24007 71.80662Q250.24007 70.83787 249.92757 70.44724Q249.61507 70.05662 249.16194 70.05662ZM249.16194 79.77537L254.64632 69.21287L255.64632 69.21287L250.19319 79.77537L249.16194 79.77537ZM253.50569 77.04099Q253.50569 75.96287 254.03694 75.22849Q254.58382 74.47849 255.61507 74.47849Q256.55255 74.47849 257.17755 75.15037Q257.80255 75.82224 257.80255 77.11912Q257.80255 78.40037 257.17755 79.08787Q256.55255 79.77537 255.61507 79.77537Q254.70882 79.77537 254.09944 79.10349Q253.50569 78.41599 253.50569 77.04099ZM255.64632 75.32224Q255.17757 75.32224 254.88069 75.72849Q254.58382 76.11912 254.58382 77.16599Q254.58382 78.13474 254.88069 78.52537Q255.19319 78.91599 255.64632 78.91599Q256.11505 78.91599 256.41193 78.52537Q256.72443 78.13474 256.72443 77.07224Q256.72443 76.10349 256.41193 75.71287Q256.11505 75.32224 255.64632 75.32224Z" fill-rule="nonzero"/><path fill="#000000" d="M100.25994 270.29547Q99.494316 270.01422 99.119316 269.4986Q98.75994 268.98297 98.75994 268.2486Q98.75994 267.15485 99.54119 266.42047Q100.338066 265.67047 101.63494 265.67047Q102.94744 265.67047 103.744316 266.4361Q104.556816 267.20172 104.556816 268.29547Q104.556816 268.98297 104.181816 269.4986Q103.82244 270.01422 103.07244 270.29547Q103.994316 270.59235 104.47869 271.26422Q104.963066 271.9361 104.963066 272.8736Q104.963066 274.15485 104.056816 275.02985Q103.150566 275.90485 101.66619 275.90485Q100.181816 275.90485 99.25994 275.02985Q98.35369 274.13922 98.35369 272.82672Q98.35369 271.85797 98.85369 271.20172Q99.35369 270.52985 100.25994 270.29547ZM100.025566 268.21735Q100.025566 268.92047 100.47869 269.3736Q100.931816 269.82672 101.66619 269.82672Q102.38494 269.82672 102.838066 269.38922Q103.29119 268.9361 103.29119 268.27985Q103.29119 267.60797 102.82244 267.15485Q102.35369 266.6861 101.650566 266.6861Q100.94744 266.6861 100.47869 267.13922Q100.025566 267.57672 100.025566 268.21735ZM99.619316 272.84235Q99.619316 273.3736 99.869316 273.8736Q100.119316 274.35797 100.60369 274.6236Q101.10369 274.88922 101.681816 274.88922Q102.556816 274.88922 103.119316 274.32672Q103.69744 273.76422 103.69744 272.88922Q103.69744 271.9986 103.10369 271.42047Q102.525566 270.82672 101.63494 270.82672Q100.75994 270.82672 100.181816 271.40485Q99.619316 271.98297 99.619316 272.84235ZM111.00994 275.73297L109.775566 275.73297L109.775566 267.88922Q109.338066 268.3111 108.60369 268.7486Q107.88494 269.17047 107.32244 269.3736L107.32244 268.1861Q108.35369 267.70172 109.119316 267.01422Q109.900566 266.32672 110.213066 265.67047L111.00994 265.67047L111.00994 275.73297ZM114.60369 268.1236Q114.60369 267.04547 115.13494 266.29547Q115.681816 265.54547 116.713066 265.54547Q117.650566 265.54547 118.25994 266.21735Q118.88494 266.88922 118.88494 268.1861Q118.88494 269.46735 118.25994 270.15485Q117.63494 270.84235 116.72869 270.84235Q115.82244 270.84235 115.213066 270.17047Q114.60369 269.48297 114.60369 268.1236ZM116.744316 266.38922Q116.29119 266.38922 115.97869 266.79547Q115.681816 267.1861 115.681816 268.23297Q115.681816 269.20172 115.97869 269.59235Q116.29119 269.98297 116.744316 269.98297Q117.213066 269.98297 117.50994 269.59235Q117.82244 269.20172 117.82244 268.13922Q117.82244 267.17047 117.50994 266.77985Q117.19744 266.38922 116.744316 266.38922ZM116.744316 276.10797L122.22869 265.54547L123.22869 265.54547L117.775566 276.10797L116.744316 276.10797ZM121.088066 273.3736Q121.088066 272.29547 121.619316 271.5611Q122.16619 270.8111 123.19744 270.8111Q124.13494 270.8111 124.75994 271.48297Q125.38494 272.15485 125.38494 273.45172Q125.38494 274.73297 124.75994 275.42047Q124.13494 276.10797 123.19744 276.10797Q122.29119 276.10797 121.681816 275.4361Q121.088066 274.7486 121.088066 273.3736ZM123.22869 271.65485Q122.75994 271.65485 122.463066 272.0611Q122.16619 272.45172 122.16619 273.4986Q122.16619 274.46735 122.463066 274.85797Q122.775566 275.2486 123.22869 275.2486Q123.69744 275.2486 123.994316 274.85797Q124.306816 274.46735 124.306816 273.40485Q124.306816 272.4361 123.994316 272.04547Q123.69744 271.65485 123.22869 271.65485Z" fill-rule="nonzero"/><path fill="#6ac86f" d="M135.5 346.2C135.5 349.5137 132.8137 352.2 129.5 352.2C126.186295 352.2 123.5 349.5137 123.5 346.2C123.5 342.8863 126.186295 340.2 129.5 340.2C132.8137 340.2 135.5 342.8863 135.5 346.2Z" fill-rule="nonzero"/><path fill="#161828" d="M148.45312 346.825L148.45312 345.825L152.07812 345.8094L152.07812 348.9969Q151.25 349.66876 150.35938 350.0125Q149.46875 350.34064 148.53125 350.34064Q147.26562 350.34064 146.21875 349.8094Q145.1875 349.2625 144.65625 348.2469Q144.14062 347.21564 144.14062 345.95Q144.14062 344.6844 144.65625 343.60626Q145.1875 342.5125 146.17188 341.9969Q147.15625 341.46564 148.4375 341.46564Q149.375 341.46564 150.125 341.7625Q150.875 342.0594 151.29688 342.60626Q151.73438 343.1375 151.95312 344.0125L150.9375 344.29376Q150.73438 343.6375 150.4375 343.2625Q150.15625 342.8875 149.625 342.66876Q149.09375 342.4344 148.45312 342.4344Q147.67188 342.4344 147.09375 342.66876Q146.53125 342.90314 146.17188 343.29376Q145.82812 343.6844 145.64062 344.15314Q145.3125 344.95 145.3125 345.8719Q145.3125 347.02814 145.70312 347.8094Q146.10938 348.575 146.85938 348.95Q147.60938 349.325 148.46875 349.325Q149.20312 349.325 149.90625 349.04376Q150.60938 348.7469 150.96875 348.4344L150.96875 346.825L148.45312 346.825ZM153.29688 342.825L153.29688 341.60626L154.35938 341.60626L154.35938 342.825L153.29688 342.825ZM153.29688 350.2L153.29688 343.98126L154.35938 343.98126L154.35938 350.2L153.29688 350.2ZM156.28125 350.2L156.28125 343.98126L157.23438 343.98126L157.23438 344.91876Q157.59375 344.2625 157.89062 344.0594Q158.20312 343.84064 158.57812 343.84064Q159.10938 343.84064 159.65625 344.16876L159.29688 345.15314Q158.90625 344.91876 158.53125 344.91876Q158.17188 344.91876 157.89062 345.1375Q157.625 345.34064 157.51562 345.71564Q157.32812 346.27814 157.32812 346.9344L157.32812 350.2L156.28125 350.2ZM160.26562 350.2L160.26562 341.60626L161.32812 341.60626L161.32812 350.2L160.26562 350.2ZM162.875 348.34064L163.90625 348.1844Q164.0 348.8094 164.39062 349.1375Q164.79688 349.46564 165.53125 349.46564Q166.25 349.46564 166.59375 349.1844Q166.95312 348.8875 166.95312 348.48126Q166.95312 348.1219 166.64062 347.91876Q166.42188 347.77814 165.5625 347.5594Q164.40625 347.2625 163.95312 347.0594Q163.51562 346.84064 163.28125 346.46564Q163.04688 346.09064 163.04688 345.6219Q163.04688 345.21564 163.23438 344.85626Q163.42188 344.4969 163.75 344.2625Q164.0 344.09064 164.42188 343.96564Q164.84375 343.84064 165.34375 343.84064Q166.0625 343.84064 166.60938 344.0594Q167.17188 344.2625 167.4375 344.6219Q167.70312 344.98126 167.79688 345.575L166.76562 345.71564Q166.70312 345.2469 166.35938 344.98126Q166.03125 344.7 165.40625 344.7Q164.6875 344.7 164.375 344.95Q164.0625 345.1844 164.0625 345.5125Q164.0625 345.71564 164.1875 345.8719Q164.32812 346.04376 164.59375 346.15314Q164.75 346.21564 165.53125 346.41876Q166.65625 346.73126 167.09375 346.91876Q167.53125 347.10626 167.78125 347.46564Q168.03125 347.825 168.03125 348.3719Q168.03125 348.90314 167.71875 349.3719Q167.42188 349.825 166.84375 350.09064Q166.26562 350.34064 165.53125 350.34064Q164.3125 350.34064 163.67188 349.84064Q163.04688 349.325 162.875 348.34064Z" fill-rule="nonzero"/><path fill="#e3e3f4" d="M197.5 346.2C197.5 349.5137 194.8137 352.2 191.5 352.2C188.1863 352.2 185.5 349.5137 185.5 346.2C185.5 342.8863 188.1863 340.2 191.5 340.2C194.8137 340.2 197.5 342.8863 197.5 346.2Z" fill-rule="nonzero"/><path fill="#161828" d="M206.375 350.2L206.375 341.60626L209.60938 341.60626Q210.59375 341.60626 211.1875 341.8719Q211.78125 342.1375 212.10938 342.6844Q212.45312 343.21564 212.45312 343.8094Q212.45312 344.35626 212.15625 344.84064Q211.85938 345.325 211.25 345.6219Q212.03125 345.85626 212.4375 346.41876Q212.85938 346.96564 212.85938 347.71564Q212.85938 348.3094 212.60938 348.84064Q212.35938 349.35626 211.98438 349.6375Q211.60938 349.91876 211.03125 350.0594Q210.46875 350.2 209.65625 350.2L206.375 350.2ZM207.51562 345.21564L209.375 345.21564Q210.125 345.21564 210.45312 345.1219Q210.89062 344.9969 211.10938 344.7Q211.32812 344.3875 211.32812 343.9344Q211.32812 343.5125 211.125 343.1844Q210.92188 342.85626 210.53125 342.7469Q210.15625 342.6219 209.23438 342.6219L207.51562 342.6219L207.51562 345.21564ZM207.51562 349.1844L209.65625 349.1844Q210.20312 349.1844 210.42188 349.1375Q210.82812 349.075 211.07812 348.91876Q211.34375 348.7469 211.51562 348.4344Q211.6875 348.1219 211.6875 347.71564Q211.6875 347.23126 211.4375 346.8719Q211.20312 346.5125 210.76562 346.3719Q210.32812 346.23126 209.5 346.23126L207.51562 346.23126L207.51562 349.1844ZM213.90625 347.09064Q213.90625 345.35626 214.85938 344.52814Q215.65625 343.84064 216.8125 343.84064Q218.09375 343.84064 218.90625 344.6844Q219.73438 345.5125 219.73438 346.9969Q219.73438 348.2 219.375 348.8875Q219.01562 349.575 218.3125 349.96564Q217.625 350.34064 216.8125 350.34064Q215.51562 350.34064 214.70312 349.5125Q213.90625 348.66876 213.90625 347.09064ZM214.98438 347.09064Q214.98438 348.27814 215.5 348.8719Q216.03125 349.46564 216.8125 349.46564Q217.60938 349.46564 218.125 348.8719Q218.64062 348.27814 218.64062 347.0594Q218.64062 345.90314 218.10938 345.3094Q217.59375 344.71564 216.8125 344.71564Q216.03125 344.71564 215.5 345.3094Q214.98438 345.8875 214.98438 347.09064ZM221.25 352.59064L221.125 351.60626Q221.46875 351.7 221.73438 351.7Q222.07812 351.7 222.28125 351.575Q222.5 351.46564 222.64062 351.2625Q222.73438 351.09064 222.96875 350.46564Q222.98438 350.3875 223.0625 350.21564L220.6875 343.98126L221.82812 343.98126L223.125 347.575Q223.375 348.2625 223.57812 349.02814Q223.76562 348.29376 224.01562 347.60626L225.34375 343.98126L226.39062 343.98126L224.03125 350.3094Q223.64062 351.325 223.4375 351.71564Q223.15625 352.2469 222.78125 352.48126Q222.42188 352.73126 221.92188 352.73126Q221.625 352.73126 221.25 352.59064ZM225.875 348.34064L226.90625 348.1844Q227.0 348.8094 227.39062 349.1375Q227.79688 349.46564 228.53125 349.46564Q229.25 349.46564 229.59375 349.1844Q229.95312 348.8875 229.95312 348.48126Q229.95312 348.1219 229.64062 347.91876Q229.42188 347.77814 228.5625 347.5594Q227.40625 347.2625 226.95312 347.0594Q226.51562 346.84064 226.28125 346.46564Q226.04688 346.09064 226.04688 345.6219Q226.04688 345.21564 226.23438 344.85626Q226.42188 344.4969 226.75 344.2625Q227.0 344.09064 227.42188 343.96564Q227.84375 343.84064 228.34375 343.84064Q229.0625 343.84064 229.60938 344.0594Q230.17188 344.2625 230.4375 344.6219Q230.70312 344.98126 230.79688 345.575L229.76562 345.71564Q229.70312 345.2469 229.35938 344.98126Q229.03125 344.7 228.40625 344.7Q227.6875 344.7 227.375 344.95Q227.0625 345.1844 227.0625 345.5125Q227.0625 345.71564 227.1875 345.8719Q227.32812 346.04376 227.59375 346.15314Q227.75 346.21564 228.53125 346.41876Q229.65625 346.73126 230.09375 346.91876Q230.53125 347.10626 230.78125 347.46564Q231.03125 347.825 231.03125 348.3719Q231.03125 348.90314 230.71875 349.3719Q230.42188 349.825 229.84375 350.09064Q229.26562 350.34064 228.53125 350.34064Q227.3125 350.34064 226.67188 349.84064Q226.04688 349.325 225.875 348.34064Z" fill-rule="nonzero"/></svg>