<svg version="1.1" viewBox="0.0 0.0 600.0 371.0" fill="none" stroke="none" stroke-linecap="square" stroke-miterlimit="10" width="600" height="371" xmlns:xlink="http://www.w3.org/1999/xlink" xmlns="http://www.w3.org/2000/svg"><path fill="#ffffff" d="M0 0L600.0 0L600.0 371.0L0 371.0L0 0Z" fill-rule="nonzero"/><path stroke="#333333" stroke-width="1.0" stroke-linecap="butt" d="M49.5 332.5L581.5 332.5" fill-rule="nonzero"/><path stroke="#cccccc" stroke-width="1.0" stroke-linecap="butt" d="M49.5 262.5L581.5 262.5" fill-rule="nonzero"/><path stroke="#cccccc" stroke-width="1.0" stroke-linecap="butt" d="M49.5 192.5L581.5 192.5" fill-rule="nonzero"/><path stroke="#cccccc" stroke-width="1.0" stroke-linecap="butt" d="M49.5 122.5L581.5 122.5" fill-rule="nonzero"/><path stroke="#cccccc" stroke-width="1.0" stroke-linecap="butt" d="M49.5 51.5L581.5 51.5" fill-rule="nonzero"/><clipPath id="id_0"><path d="M49.55 51.916668L581.45 51.916668L581.45 332.45L49.55 332.45L49.55 51.916668Z" clip-rule="nonzero"/></clipPath><path stroke="#000000" stroke-width="2.0" stroke-linecap="butt" stroke-opacity="0.0" clip-path="url(#id_0)" d="M201.0 332.0L129.0 332.0L129.0 159.0C129.0 157.89543 129.89543 157.0 131.0 157.0L199.0 157.0C200.10457 157.0 201.0 157.89543 201.0 159.0Z" fill-rule="nonzero"/><path fill="#75788d" clip-path="url(#id_0)" d="M201.0 332.0L129.0 332.0L129.0 159.0C129.0 157.89543 129.89543 157.0 131.0 157.0L199.0 157.0C200.10457 157.0 201.0 157.89543 201.0 159.0Z" fill-rule="nonzero"/><path stroke="#000000" stroke-width="2.0" stroke-linecap="butt" stroke-opacity="0.0" clip-path="url(#id_0)" d="M428.0 332.0L356.0 332.0L356.0 96.0C356.0 94.89543 356.89542 94.0 358.0 94.0L426.0 94.0C427.10458 94.0 428.0 94.89543 428.0 96.0Z" fill-rule="nonzero"/><path fill="#75788d" clip-path="url(#id_0)" d="M428.0 332.0L356.0 332.0L356.0 96.0C356.0 94.89543 356.89542 94.0 358.0 94.0L426.0 94.0C427.10458 94.0 428.0 94.89543 428.0 96.0Z" fill-rule="nonzero"/><path stroke="#000000" stroke-width="2.0" stroke-linecap="butt" stroke-opacity="0.0" clip-path="url(#id_0)" d="M275.0 332.0L203.0 332.0L203.0 194.0C203.0 192.89543 203.89543 192.0 205.0 192.0L273.0 192.0C274.10458 192.0 275.0 192.89543 275.0 194.0Z" fill-rule="nonzero"/><path fill="#ff5c5c" clip-path="url(#id_0)" d="M275.0 332.0L203.0 332.0L203.0 194.0C203.0 192.89543 203.89543 192.0 205.0 192.0L273.0 192.0C274.10458 192.0 275.0 192.89543 275.0 194.0Z" fill-rule="nonzero"/><path stroke="#000000" stroke-width="2.0" stroke-linecap="butt" stroke-opacity="0.0" clip-path="url(#id_0)" d="M502.0 332.0L430.0 332.0L430.0 82.0C430.0 80.89543 430.89542 80.0 432.0 80.0L500.0 80.0C501.10458 80.0 502.0 80.89543 502.0 82.0Z" fill-rule="nonzero"/><path fill="#ff5c5c" clip-path="url(#id_0)" d="M502.0 332.0L430.0 332.0L430.0 82.0C430.0 80.89543 430.89542 80.0 432.0 80.0L500.0 80.0C501.10458 80.0 502.0 80.89543 502.0 82.0Z" fill-rule="nonzero"/><path stroke="#75788d" stroke-width="3.0" stroke-linejoin="round" stroke-linecap="round" d="M159.79688 173.91667L154.20312 173.91667L154.20312 173.13542L157.15625 169.85417Q157.8125 169.10417 158.0625 168.65105Q158.3125 168.1823 158.3125 167.6823Q158.3125 167.01042 157.90625 166.58855Q157.51562 166.15105 156.82812 166.15105Q156.03125 166.15105 155.57812 166.6198Q155.125 167.07292 155.125 167.90105L154.04688 167.90105Q154.04688 166.71355 154.79688 165.9948Q155.5625 165.26042 156.82812 165.26042Q158.03125 165.26042 158.71875 165.88542Q159.40625 166.51042 159.40625 167.5573Q159.40625 168.8073 157.79688 170.5573L155.51562 173.02605L159.79688 173.02605L159.79688 173.91667ZM161.70312 169.63542L162.14062 165.38542L166.51562 165.38542L166.51562 166.38542L163.0625 166.38542L162.79688 168.71355Q163.4375 168.33855 164.23438 168.33855Q165.39062 168.33855 166.07812 169.1198Q166.76562 169.88542 166.76562 171.19792Q166.76562 172.51042 166.04688 173.27605Q165.34375 174.04167 164.0625 174.04167Q162.9375 174.04167 162.21875 173.41667Q161.5 172.77605 161.40625 171.66667L162.42188 171.66667Q162.53125 172.40105 162.95312 172.77605Q163.375 173.15105 164.0625 173.15105Q164.8125 173.15105 165.25 172.63542Q165.6875 172.1198 165.6875 171.21355Q165.6875 170.35417 165.21875 169.83855Q164.75 169.32292 163.96875 169.32292Q163.26562 169.32292 162.85938 169.6198L162.57812 169.85417L161.70312 169.63542ZM168.10938 167.02605Q168.10938 166.26042 168.59375 165.76042Q169.09375 165.26042 169.85938 165.26042Q170.64062 165.26042 171.125 165.76042Q171.60938 166.26042 171.60938 167.0573L171.60938 167.47917Q171.60938 168.2448 171.10938 168.7448Q170.625 169.22917 169.875 169.22917Q169.10938 169.22917 168.60938 168.7448Q168.10938 168.2448 168.10938 167.4323L168.10938 167.02605ZM168.92188 167.47917Q168.92188 167.9323 169.17188 168.22917Q169.4375 168.52605 169.875 168.52605Q170.29688 168.52605 170.54688 168.2448Q170.79688 167.94792 170.79688 167.44792L170.79688 167.02605Q170.79688 166.57292 170.54688 166.27605Q170.29688 165.96355 169.85938 165.96355Q169.42188 165.96355 169.17188 166.27605Q168.92188 166.57292 168.92188 167.04167L168.92188 167.47917ZM172.26562 171.82292Q172.26562 171.0573 172.75 170.57292Q173.25 170.07292 174.01562 170.07292Q174.78125 170.07292 175.26562 170.57292Q175.76562 171.0573 175.76562 171.8698L175.76562 172.27605Q175.76562 173.04167 175.28125 173.54167Q174.79688 174.04167 174.03125 174.04167Q173.26562 174.04167 172.76562 173.5573Q172.26562 173.0573 172.26562 172.2448L172.26562 171.82292ZM173.07812 172.27605Q173.07812 172.7448 173.32812 173.04167Q173.59375 173.33855 174.03125 173.33855Q174.45312 173.33855 174.70312 173.0573Q174.95312 172.76042 174.95312 172.26042L174.95312 171.82292Q174.95312 171.35417 174.6875 171.07292Q174.4375 170.77605 174.01562 170.77605Q173.59375 170.77605 173.32812 171.07292Q173.07812 171.35417 173.07812 171.85417L173.07812 172.27605ZM170.125 173.27605L169.5 172.88542L173.67188 166.21355L174.28125 166.60417L170.125 173.27605Z" fill-rule="nonzero"/><path fill="#ffffff" d="M159.79688 173.91667L154.20312 173.91667L154.20312 173.13542L157.15625 169.85417Q157.8125 169.10417 158.0625 168.65105Q158.3125 168.1823 158.3125 167.6823Q158.3125 167.01042 157.90625 166.58855Q157.51562 166.15105 156.82812 166.15105Q156.03125 166.15105 155.57812 166.6198Q155.125 167.07292 155.125 167.90105L154.04688 167.90105Q154.04688 166.71355 154.79688 165.9948Q155.5625 165.26042 156.82812 165.26042Q158.03125 165.26042 158.71875 165.88542Q159.40625 166.51042 159.40625 167.5573Q159.40625 168.8073 157.79688 170.5573L155.51562 173.02605L159.79688 173.02605L159.79688 173.91667ZM161.70312 169.63542L162.14062 165.38542L166.51562 165.38542L166.51562 166.38542L163.0625 166.38542L162.79688 168.71355Q163.4375 168.33855 164.23438 168.33855Q165.39062 168.33855 166.07812 169.1198Q166.76562 169.88542 166.76562 171.19792Q166.76562 172.51042 166.04688 173.27605Q165.34375 174.04167 164.0625 174.04167Q162.9375 174.04167 162.21875 173.41667Q161.5 172.77605 161.40625 171.66667L162.42188 171.66667Q162.53125 172.40105 162.95312 172.77605Q163.375 173.15105 164.0625 173.15105Q164.8125 173.15105 165.25 172.63542Q165.6875 172.1198 165.6875 171.21355Q165.6875 170.35417 165.21875 169.83855Q164.75 169.32292 163.96875 169.32292Q163.26562 169.32292 162.85938 169.6198L162.57812 169.85417L161.70312 169.63542ZM168.10938 167.02605Q168.10938 166.26042 168.59375 165.76042Q169.09375 165.26042 169.85938 165.26042Q170.64062 165.26042 171.125 165.76042Q171.60938 166.26042 171.60938 167.0573L171.60938 167.47917Q171.60938 168.2448 171.10938 168.7448Q170.625 169.22917 169.875 169.22917Q169.10938 169.22917 168.60938 168.7448Q168.10938 168.2448 168.10938 167.4323L168.10938 167.02605ZM168.92188 167.47917Q168.92188 167.9323 169.17188 168.22917Q169.4375 168.52605 169.875 168.52605Q170.29688 168.52605 170.54688 168.2448Q170.79688 167.94792 170.79688 167.44792L170.79688 167.02605Q170.79688 166.57292 170.54688 166.27605Q170.29688 165.96355 169.85938 165.96355Q169.42188 165.96355 169.17188 166.27605Q168.92188 166.57292 168.92188 167.04167L168.92188 167.47917ZM172.26562 171.82292Q172.26562 171.0573 172.75 170.57292Q173.25 170.07292 174.01562 170.07292Q174.78125 170.07292 175.26562 170.57292Q175.76562 171.0573 175.76562 171.8698L175.76562 172.27605Q175.76562 173.04167 175.28125 173.54167Q174.79688 174.04167 174.03125 174.04167Q173.26562 174.04167 172.76562 173.5573Q172.26562 173.0573 172.26562 172.2448L172.26562 171.82292ZM173.07812 172.27605Q173.07812 172.7448 173.32812 173.04167Q173.59375 173.33855 174.03125 173.33855Q174.45312 173.33855 174.70312 173.0573Q174.95312 172.76042 174.95312 172.26042L174.95312 171.82292Q174.95312 171.35417 174.6875 171.07292Q174.4375 170.77605 174.01562 170.77605Q173.59375 170.77605 173.32812 171.07292Q173.07812 171.35417 173.07812 171.85417L173.07812 172.27605ZM170.125 173.27605L169.5 172.88542L173.67188 166.21355L174.28125 166.60417L170.125 173.27605Z" fill-rule="nonzero"/><path stroke="#75788d" stroke-width="3.0" stroke-linejoin="round" stroke-linecap="round" d="M382.78125 105.999794L383.59375 105.999794Q384.375 105.98417 384.8125 105.593544Q385.25 105.20292 385.25 104.531044Q385.25 103.031044 383.75 103.031044Q383.04688 103.031044 382.625 103.437294Q382.21875 103.843544 382.21875 104.499794L381.125 104.499794Q381.125 103.48417 381.85938 102.812294Q382.60938 102.14042 383.75 102.14042Q384.95312 102.14042 385.64062 102.781044Q386.32812 103.42167 386.32812 104.562294Q386.32812 105.124794 385.96875 105.64042Q385.60938 106.156044 384.98438 106.42167Q385.6875 106.64042 386.0625 107.156044Q386.45312 107.67167 386.45312 108.42167Q386.45312 109.562294 385.70312 110.249794Q384.95312 110.92167 383.75 110.92167Q382.5625 110.92167 381.79688 110.26542Q381.04688 109.60917 381.04688 108.54667L382.14062 108.54667Q382.14062 109.218544 382.57812 109.624794Q383.01562 110.031044 383.76562 110.031044Q384.54688 110.031044 384.95312 109.624794Q385.375 109.20292 385.375 108.437294Q385.375 107.70292 384.92188 107.312294Q384.46875 106.906044 383.59375 106.89042L382.78125 106.89042L382.78125 105.999794ZM392.78125 107.937294L393.96875 107.937294L393.96875 108.812294L392.78125 108.812294L392.78125 110.79667L391.70312 110.79667L391.70312 108.812294L387.8125 108.812294L387.8125 108.17167L391.625 102.26542L392.78125 102.26542L392.78125 107.937294ZM389.04688 107.937294L391.70312 107.937294L391.70312 103.749794L391.5625 103.98417L389.04688 107.937294ZM395.10938 103.906044Q395.10938 103.14042 395.59375 102.64042Q396.09375 102.14042 396.85938 102.14042Q397.64062 102.14042 398.125 102.64042Q398.60938 103.14042 398.60938 103.937294L398.60938 104.35917Q398.60938 105.124794 398.10938 105.624794Q397.625 106.10917 396.875 106.10917Q396.10938 106.10917 395.60938 105.624794Q395.10938 105.124794 395.10938 104.312294L395.10938 103.906044ZM395.92188 104.35917Q395.92188 104.812294 396.17188 105.10917Q396.4375 105.406044 396.875 105.406044Q397.29688 105.406044 397.54688 105.124794Q397.79688 104.82792 397.79688 104.32792L397.79688 103.906044Q397.79688 103.45292 397.54688 103.156044Q397.29688 102.843544 396.85938 102.843544Q396.42188 102.843544 396.17188 103.156044Q395.92188 103.45292 395.92188 103.92167L395.92188 104.35917ZM399.26562 108.70292Q399.26562 107.937294 399.75 107.45292Q400.25 106.95292 401.01562 106.95292Q401.78125 106.95292 402.26562 107.45292Q402.76562 107.937294 402.76562 108.749794L402.76562 109.156044Q402.76562 109.92167 402.28125 110.42167Q401.79688 110.92167 401.03125 110.92167Q400.26562 110.92167 399.76562 110.437294Q399.26562 109.937294 399.26562 109.124794L399.26562 108.70292ZM400.07812 109.156044Q400.07812 109.624794 400.32812 109.92167Q400.59375 110.218544 401.03125 110.218544Q401.45312 110.218544 401.70312 109.937294Q401.95312 109.64042 401.95312 109.14042L401.95312 108.70292Q401.95312 108.23417 401.6875 107.95292Q401.4375 107.656044 401.01562 107.656044Q400.59375 107.656044 400.32812 107.95292Q400.07812 108.23417 400.07812 108.73417L400.07812 109.156044ZM397.125 110.156044L396.5 109.76542L400.67188 103.093544L401.28125 103.48417L397.125 110.156044Z" fill-rule="nonzero"/><path fill="#ffffff" d="M382.78125 105.999794L383.59375 105.999794Q384.375 105.98417 384.8125 105.593544Q385.25 105.20292 385.25 104.531044Q385.25 103.031044 383.75 103.031044Q383.04688 103.031044 382.625 103.437294Q382.21875 103.843544 382.21875 104.499794L381.125 104.499794Q381.125 103.48417 381.85938 102.812294Q382.60938 102.14042 383.75 102.14042Q384.95312 102.14042 385.64062 102.781044Q386.32812 103.42167 386.32812 104.562294Q386.32812 105.124794 385.96875 105.64042Q385.60938 106.156044 384.98438 106.42167Q385.6875 106.64042 386.0625 107.156044Q386.45312 107.67167 386.45312 108.42167Q386.45312 109.562294 385.70312 110.249794Q384.95312 110.92167 383.75 110.92167Q382.5625 110.92167 381.79688 110.26542Q381.04688 109.60917 381.04688 108.54667L382.14062 108.54667Q382.14062 109.218544 382.57812 109.624794Q383.01562 110.031044 383.76562 110.031044Q384.54688 110.031044 384.95312 109.624794Q385.375 109.20292 385.375 108.437294Q385.375 107.70292 384.92188 107.312294Q384.46875 106.906044 383.59375 106.89042L382.78125 106.89042L382.78125 105.999794ZM392.78125 107.937294L393.96875 107.937294L393.96875 108.812294L392.78125 108.812294L392.78125 110.79667L391.70312 110.79667L391.70312 108.812294L387.8125 108.812294L387.8125 108.17167L391.625 102.26542L392.78125 102.26542L392.78125 107.937294ZM389.04688 107.937294L391.70312 107.937294L391.70312 103.749794L391.5625 103.98417L389.04688 107.937294ZM395.10938 103.906044Q395.10938 103.14042 395.59375 102.64042Q396.09375 102.14042 396.85938 102.14042Q397.64062 102.14042 398.125 102.64042Q398.60938 103.14042 398.60938 103.937294L398.60938 104.35917Q398.60938 105.124794 398.10938 105.624794Q397.625 106.10917 396.875 106.10917Q396.10938 106.10917 395.60938 105.624794Q395.10938 105.124794 395.10938 104.312294L395.10938 103.906044ZM395.92188 104.35917Q395.92188 104.812294 396.17188 105.10917Q396.4375 105.406044 396.875 105.406044Q397.29688 105.406044 397.54688 105.124794Q397.79688 104.82792 397.79688 104.32792L397.79688 103.906044Q397.79688 103.45292 397.54688 103.156044Q397.29688 102.843544 396.85938 102.843544Q396.42188 102.843544 396.17188 103.156044Q395.92188 103.45292 395.92188 103.92167L395.92188 104.35917ZM399.26562 108.70292Q399.26562 107.937294 399.75 107.45292Q400.25 106.95292 401.01562 106.95292Q401.78125 106.95292 402.26562 107.45292Q402.76562 107.937294 402.76562 108.749794L402.76562 109.156044Q402.76562 109.92167 402.28125 110.42167Q401.79688 110.92167 401.03125 110.92167Q400.26562 110.92167 399.76562 110.437294Q399.26562 109.937294 399.26562 109.124794L399.26562 108.70292ZM400.07812 109.156044Q400.07812 109.624794 400.32812 109.92167Q400.59375 110.218544 401.03125 110.218544Q401.45312 110.218544 401.70312 109.937294Q401.95312 109.64042 401.95312 109.14042L401.95312 108.70292Q401.95312 108.23417 401.6875 107.95292Q401.4375 107.656044 401.01562 107.656044Q400.59375 107.656044 400.32812 107.95292Q400.07812 108.23417 400.07812 108.73417L400.07812 109.156044ZM397.125 110.156044L396.5 109.76542L400.67188 103.093544L401.28125 103.48417L397.125 110.156044Z" fill-rule="nonzero"/><path stroke="#ff5c5c" stroke-width="3.0" stroke-linejoin="round" stroke-linecap="round" d="M233.79688 208.98334L228.20312 208.98334L228.20312 208.20209L231.15625 204.92084Q231.8125 204.17084 232.0625 203.71771Q232.3125 203.24896 232.3125 202.74896Q232.3125 202.07709 231.90625 201.65521Q231.51562 201.21771 230.82812 201.21771Q230.03125 201.21771 229.57812 201.68646Q229.125 202.13959 229.125 202.96771L228.04688 202.96771Q228.04688 201.78021 228.79688 201.06146Q229.5625 200.32709 230.82812 200.32709Q232.03125 200.32709 232.71875 200.95209Q233.40625 201.57709 233.40625 202.62396Q233.40625 203.87396 231.79688 205.62396L229.51562 208.09271L233.79688 208.09271L233.79688 208.98334ZM240.5625 205.34271Q240.5625 207.24896 239.90625 208.18646Q239.26562 209.10834 237.875 209.10834Q236.51562 209.10834 235.85938 208.20209Q235.20312 207.29584 235.17188 205.48334L235.17188 204.04584Q235.17188 202.15521 235.8125 201.24896Q236.46875 200.32709 237.85938 200.32709Q239.23438 200.32709 239.89062 201.21771Q240.54688 202.09271 240.5625 203.93646L240.5625 205.34271ZM239.46875 203.85834Q239.46875 202.48334 239.07812 201.85834Q238.70312 201.21771 237.85938 201.21771Q237.03125 201.21771 236.64062 201.85834Q236.26562 202.48334 236.26562 203.78021L236.26562 205.51459Q236.26562 206.88959 236.65625 207.56146Q237.0625 208.21771 237.875 208.21771Q238.67188 208.21771 239.0625 207.59271Q239.45312 206.96771 239.46875 205.63959L239.46875 203.85834ZM242.10938 202.09271Q242.10938 201.32709 242.59375 200.82709Q243.09375 200.32709 243.85938 200.32709Q244.64062 200.32709 245.125 200.82709Q245.60938 201.32709 245.60938 202.12396L245.60938 202.54584Q245.60938 203.31146 245.10938 203.81146Q244.625 204.29584 243.875 204.29584Q243.10938 204.29584 242.60938 203.81146Q242.10938 203.31146 242.10938 202.49896L242.10938 202.09271ZM242.92188 202.54584Q242.92188 202.99896 243.17188 203.29584Q243.4375 203.59271 243.875 203.59271Q244.29688 203.59271 244.54688 203.31146Q244.79688 203.01459 244.79688 202.51459L244.79688 202.09271Q244.79688 201.63959 244.54688 201.34271Q244.29688 201.03021 243.85938 201.03021Q243.42188 201.03021 243.17188 201.34271Q242.92188 201.63959 242.92188 202.10834L242.92188 202.54584ZM246.26562 206.88959Q246.26562 206.12396 246.75 205.63959Q247.25 205.13959 248.01562 205.13959Q248.78125 205.13959 249.26562 205.63959Q249.76562 206.12396 249.76562 206.93646L249.76562 207.34271Q249.76562 208.10834 249.28125 208.60834Q248.79688 209.10834 248.03125 209.10834Q247.26562 209.10834 246.76562 208.62396Q246.26562 208.12396 246.26562 207.31146L246.26562 206.88959ZM247.07812 207.34271Q247.07812 207.81146 247.32812 208.10834Q247.59375 208.40521 248.03125 208.40521Q248.45312 208.40521 248.70312 208.12396Q248.95312 207.82709 248.95312 207.32709L248.95312 206.88959Q248.95312 206.42084 248.6875 206.13959Q248.4375 205.84271 248.01562 205.84271Q247.59375 205.84271 247.32812 206.13959Q247.07812 206.42084 247.07812 206.92084L247.07812 207.34271ZM244.125 208.34271L243.5 207.95209L247.67188 201.28021L248.28125 201.67084L244.125 208.34271Z" fill-rule="nonzero"/><path fill="#000000" d="M233.79688 208.98334L228.20312 208.98334L228.20312 208.20209L231.15625 204.92084Q231.8125 204.17084 232.0625 203.71771Q232.3125 203.24896 232.3125 202.74896Q232.3125 202.07709 231.90625 201.65521Q231.51562 201.21771 230.82812 201.21771Q230.03125 201.21771 229.57812 201.68646Q229.125 202.13959 229.125 202.96771L228.04688 202.96771Q228.04688 201.78021 228.79688 201.06146Q229.5625 200.32709 230.82812 200.32709Q232.03125 200.32709 232.71875 200.95209Q233.40625 201.57709 233.40625 202.62396Q233.40625 203.87396 231.79688 205.62396L229.51562 208.09271L233.79688 208.09271L233.79688 208.98334ZM240.5625 205.34271Q240.5625 207.24896 239.90625 208.18646Q239.26562 209.10834 237.875 209.10834Q236.51562 209.10834 235.85938 208.20209Q235.20312 207.29584 235.17188 205.48334L235.17188 204.04584Q235.17188 202.15521 235.8125 201.24896Q236.46875 200.32709 237.85938 200.32709Q239.23438 200.32709 239.89062 201.21771Q240.54688 202.09271 240.5625 203.93646L240.5625 205.34271ZM239.46875 203.85834Q239.46875 202.48334 239.07812 201.85834Q238.70312 201.21771 237.85938 201.21771Q237.03125 201.21771 236.64062 201.85834Q236.26562 202.48334 236.26562 203.78021L236.26562 205.51459Q236.26562 206.88959 236.65625 207.56146Q237.0625 208.21771 237.875 208.21771Q238.67188 208.21771 239.0625 207.59271Q239.45312 206.96771 239.46875 205.63959L239.46875 203.85834ZM242.10938 202.09271Q242.10938 201.32709 242.59375 200.82709Q243.09375 200.32709 243.85938 200.32709Q244.64062 200.32709 245.125 200.82709Q245.60938 201.32709 245.60938 202.12396L245.60938 202.54584Q245.60938 203.31146 245.10938 203.81146Q244.625 204.29584 243.875 204.29584Q243.10938 204.29584 242.60938 203.81146Q242.10938 203.31146 242.10938 202.49896L242.10938 202.09271ZM242.92188 202.54584Q242.92188 202.99896 243.17188 203.29584Q243.4375 203.59271 243.875 203.59271Q244.29688 203.59271 244.54688 203.31146Q244.79688 203.01459 244.79688 202.51459L244.79688 202.09271Q244.79688 201.63959 244.54688 201.34271Q244.29688 201.03021 243.85938 201.03021Q243.42188 201.03021 243.17188 201.34271Q242.92188 201.63959 242.92188 202.10834L242.92188 202.54584ZM246.26562 206.88959Q246.26562 206.12396 246.75 205.63959Q247.25 205.13959 248.01562 205.13959Q248.78125 205.13959 249.26562 205.63959Q249.76562 206.12396 249.76562 206.93646L249.76562 207.34271Q249.76562 208.10834 249.28125 208.60834Q248.79688 209.10834 248.03125 209.10834Q247.26562 209.10834 246.76562 208.62396Q246.26562 208.12396 246.26562 207.31146L246.26562 206.88959ZM247.07812 207.34271Q247.07812 207.81146 247.32812 208.10834Q247.59375 208.40521 248.03125 208.40521Q248.45312 208.40521 248.70312 208.12396Q248.95312 207.82709 248.95312 207.32709L248.95312 206.88959Q248.95312 206.42084 248.6875 206.13959Q248.4375 205.84271 248.01562 205.84271Q247.59375 205.84271 247.32812 206.13959Q247.07812 206.42084 247.07812 206.92084L247.07812 207.34271ZM244.125 208.34271L243.5 207.95209L247.67188 201.28021L248.28125 201.67084L244.125 208.34271Z" fill-rule="nonzero"/><path stroke="#ff5c5c" stroke-width="3.0" stroke-linejoin="round" stroke-linecap="round" d="M456.78125 91.97312L457.59375 91.97312Q458.375 91.9575 458.8125 91.56687Q459.25 91.17625 459.25 90.50437Q459.25 89.00437 457.75 89.00437Q457.04688 89.00437 456.625 89.41062Q456.21875 89.81687 456.21875 90.47312L455.125 90.47312Q455.125 89.4575 455.85938 88.78562Q456.60938 88.11375 457.75 88.11375Q458.95312 88.11375 459.64062 88.75437Q460.32812 89.395 460.32812 90.53562Q460.32812 91.09812 459.96875 91.61375Q459.60938 92.12937 458.98438 92.395Q459.6875 92.61375 460.0625 93.12937Q460.45312 93.645 460.45312 94.395Q460.45312 95.53562 459.70312 96.22312Q458.95312 96.895 457.75 96.895Q456.5625 96.895 455.79688 96.23875Q455.04688 95.5825 455.04688 94.52L456.14062 94.52Q456.14062 95.19187 456.57812 95.59812Q457.01562 96.00437 457.76562 96.00437Q458.54688 96.00437 458.95312 95.59812Q459.375 95.17625 459.375 94.41062Q459.375 93.67625 458.92188 93.28562Q458.46875 92.87937 457.59375 92.86375L456.78125 92.86375L456.78125 91.97312ZM466.46875 88.23875L466.46875 89.145L466.26562 89.145Q465.0 89.17625 464.25 89.91062Q463.5 90.62937 463.375 91.94187Q464.0625 91.17625 465.21875 91.17625Q466.32812 91.17625 467.0 91.9575Q467.67188 92.73875 467.67188 93.98875Q467.67188 95.30125 466.95312 96.09812Q466.23438 96.895 465.01562 96.895Q463.79688 96.895 463.03125 95.9575Q462.28125 95.00437 462.28125 93.52L462.28125 93.11375Q462.28125 90.75437 463.28125 89.50437Q464.28125 88.25437 466.26562 88.23875L466.46875 88.23875ZM465.04688 92.0825Q464.48438 92.0825 464.01562 92.41062Q463.54688 92.73875 463.35938 93.25437L463.35938 93.645Q463.35938 94.7075 463.82812 95.34812Q464.3125 95.98875 465.01562 95.98875Q465.75 95.98875 466.17188 95.4575Q466.59375 94.91062 466.59375 94.03562Q466.59375 93.16062 466.17188 92.62937Q465.75 92.0825 465.04688 92.0825ZM469.10938 89.87937Q469.10938 89.11375 469.59375 88.61375Q470.09375 88.11375 470.85938 88.11375Q471.64062 88.11375 472.125 88.61375Q472.60938 89.11375 472.60938 89.91062L472.60938 90.3325Q472.60938 91.09812 472.10938 91.59812Q471.625 92.0825 470.875 92.0825Q470.10938 92.0825 469.60938 91.59812Q469.10938 91.09812 469.10938 90.28562L469.10938 89.87937ZM469.92188 90.3325Q469.92188 90.78562 470.17188 91.0825Q470.4375 91.37937 470.875 91.37937Q471.29688 91.37937 471.54688 91.09812Q471.79688 90.80125 471.79688 90.30125L471.79688 89.87937Q471.79688 89.42625 471.54688 89.12937Q471.29688 88.81687 470.85938 88.81687Q470.42188 88.81687 470.17188 89.12937Q469.92188 89.42625 469.92188 89.895L469.92188 90.3325ZM473.26562 94.67625Q473.26562 93.91062 473.75 93.42625Q474.25 92.92625 475.01562 92.92625Q475.78125 92.92625 476.26562 93.42625Q476.76562 93.91062 476.76562 94.72312L476.76562 95.12937Q476.76562 95.895 476.28125 96.395Q475.79688 96.895 475.03125 96.895Q474.26562 96.895 473.76562 96.41062Q473.26562 95.91062 473.26562 95.09812L473.26562 94.67625ZM474.07812 95.12937Q474.07812 95.59812 474.32812 95.895Q474.59375 96.19187 475.03125 96.19187Q475.45312 96.19187 475.70312 95.91062Q475.95312 95.61375 475.95312 95.11375L475.95312 94.67625Q475.95312 94.2075 475.6875 93.92625Q475.4375 93.62937 475.01562 93.62937Q474.59375 93.62937 474.32812 93.92625Q474.07812 94.2075 474.07812 94.7075L474.07812 95.12937ZM471.125 96.12937L470.5 95.73875L474.67188 89.06687L475.28125 89.4575L471.125 96.12937Z" fill-rule="nonzero"/><path fill="#000000" d="M456.78125 91.97312L457.59375 91.97312Q458.375 91.9575 458.8125 91.56687Q459.25 91.17625 459.25 90.50437Q459.25 89.00437 457.75 89.00437Q457.04688 89.00437 456.625 89.41062Q456.21875 89.81687 456.21875 90.47312L455.125 90.47312Q455.125 89.4575 455.85938 88.78562Q456.60938 88.11375 457.75 88.11375Q458.95312 88.11375 459.64062 88.75437Q460.32812 89.395 460.32812 90.53562Q460.32812 91.09812 459.96875 91.61375Q459.60938 92.12937 458.98438 92.395Q459.6875 92.61375 460.0625 93.12937Q460.45312 93.645 460.45312 94.395Q460.45312 95.53562 459.70312 96.22312Q458.95312 96.895 457.75 96.895Q456.5625 96.895 455.79688 96.23875Q455.04688 95.5825 455.04688 94.52L456.14062 94.52Q456.14062 95.19187 456.57812 95.59812Q457.01562 96.00437 457.76562 96.00437Q458.54688 96.00437 458.95312 95.59812Q459.375 95.17625 459.375 94.41062Q459.375 93.67625 458.92188 93.28562Q458.46875 92.87937 457.59375 92.86375L456.78125 92.86375L456.78125 91.97312ZM466.46875 88.23875L466.46875 89.145L466.26562 89.145Q465.0 89.17625 464.25 89.91062Q463.5 90.62937 463.375 91.94187Q464.0625 91.17625 465.21875 91.17625Q466.32812 91.17625 467.0 91.9575Q467.67188 92.73875 467.67188 93.98875Q467.67188 95.30125 466.95312 96.09812Q466.23438 96.895 465.01562 96.895Q463.79688 96.895 463.03125 95.9575Q462.28125 95.00437 462.28125 93.52L462.28125 93.11375Q462.28125 90.75437 463.28125 89.50437Q464.28125 88.25437 466.26562 88.23875L466.46875 88.23875ZM465.04688 92.0825Q464.48438 92.0825 464.01562 92.41062Q463.54688 92.73875 463.35938 93.25437L463.35938 93.645Q463.35938 94.7075 463.82812 95.34812Q464.3125 95.98875 465.01562 95.98875Q465.75 95.98875 466.17188 95.4575Q466.59375 94.91062 466.59375 94.03562Q466.59375 93.16062 466.17188 92.62937Q465.75 92.0825 465.04688 92.0825ZM469.10938 89.87937Q469.10938 89.11375 469.59375 88.61375Q470.09375 88.11375 470.85938 88.11375Q471.64062 88.11375 472.125 88.61375Q472.60938 89.11375 472.60938 89.91062L472.60938 90.3325Q472.60938 91.09812 472.10938 91.59812Q471.625 92.0825 470.875 92.0825Q470.10938 92.0825 469.60938 91.59812Q469.10938 91.09812 469.10938 90.28562L469.10938 89.87937ZM469.92188 90.3325Q469.92188 90.78562 470.17188 91.0825Q470.4375 91.37937 470.875 91.37937Q471.29688 91.37937 471.54688 91.09812Q471.79688 90.80125 471.79688 90.30125L471.79688 89.87937Q471.79688 89.42625 471.54688 89.12937Q471.29688 88.81687 470.85938 88.81687Q470.42188 88.81687 470.17188 89.12937Q469.92188 89.42625 469.92188 89.895L469.92188 90.3325ZM473.26562 94.67625Q473.26562 93.91062 473.75 93.42625Q474.25 92.92625 475.01562 92.92625Q475.78125 92.92625 476.26562 93.42625Q476.76562 93.91062 476.76562 94.72312L476.76562 95.12937Q476.76562 95.895 476.28125 96.395Q475.79688 96.895 475.03125 96.895Q474.26562 96.895 473.76562 96.41062Q473.26562 95.91062 473.26562 95.09812L473.26562 94.67625ZM474.07812 95.12937Q474.07812 95.59812 474.32812 95.895Q474.59375 96.19187 475.03125 96.19187Q475.45312 96.19187 475.70312 95.91062Q475.95312 95.61375 475.95312 95.11375L475.95312 94.67625Q475.95312 94.2075 475.6875 93.92625Q475.4375 93.62937 475.01562 93.62937Q474.59375 93.62937 474.32812 93.92625Q474.07812 94.2075 474.07812 94.7075L474.07812 95.12937ZM471.125 96.12937L470.5 95.73875L474.67188 89.06687L475.28125 89.4575L471.125 96.12937Z" fill-rule="nonzero"/><path fill="#161828" d="M26.05 332.21564Q26.05 330.6844 26.3625 329.7625Q26.675 328.825 27.284374 328.325Q27.909374 327.825 28.846874 327.825Q29.534374 327.825 30.05 328.10626Q30.58125 328.3875 30.925 328.91876Q31.26875 329.4344 31.45625 330.1844Q31.64375 330.9344 31.64375 332.21564Q31.64375 333.73126 31.33125 334.65314Q31.034374 335.575 30.409374 336.09064Q29.8 336.59064 28.846874 336.59064Q27.6125 336.59064 26.89375 335.7Q26.05 334.6375 26.05 332.21564ZM27.128124 332.21564Q27.128124 334.325 27.628124 335.02814Q28.128124 335.73126 28.846874 335.73126Q29.58125 335.73126 30.065624 335.02814Q30.565624 334.325 30.565624 332.21564Q30.565624 330.09064 30.065624 329.40314Q29.58125 328.7 28.83125 328.7Q28.1125 328.7 27.675 329.3094Q27.128124 330.09064 27.128124 332.21564ZM33.253124 329.91876Q33.253124 328.9969 33.70625 328.35626Q34.175 327.71564 35.05 327.71564Q35.8625 327.71564 36.39375 328.29376Q36.925 328.8719 36.925 329.98126Q36.925 331.075 36.378124 331.66876Q35.846874 332.2469 35.065624 332.2469Q34.284374 332.2469 33.76875 331.66876Q33.253124 331.09064 33.253124 329.91876ZM35.08125 328.4344Q34.690624 328.4344 34.425 328.77814Q34.175 329.1219 34.175 330.02814Q34.175 330.85626 34.425 331.2Q34.690624 331.52814 35.08125 331.52814Q35.4875 331.52814 35.7375 331.1844Q36.003124 330.84064 36.003124 329.95Q36.003124 329.10626 35.7375 328.77814Q35.471874 328.4344 35.08125 328.4344ZM35.08125 336.7625L39.784374 327.71564L40.64375 327.71564L35.95625 336.7625L35.08125 336.7625ZM38.8 334.4344Q38.8 333.5125 39.253124 332.8719Q39.721874 332.23126 40.6125 332.23126Q41.425 332.23126 41.95625 332.8094Q42.4875 333.3719 42.4875 334.4969Q42.4875 335.59064 41.940624 336.1844Q41.409374 336.7625 40.6125 336.7625Q39.846874 336.7625 39.315624 336.1844Q38.8 335.60626 38.8 334.4344ZM40.64375 332.95Q40.2375 332.95 39.971874 333.29376Q39.721874 333.6375 39.721874 334.54376Q39.721874 335.35626 39.9875 335.7Q40.253124 336.04376 40.64375 336.04376Q41.034374 336.04376 41.3 335.7Q41.565624 335.35626 41.565624 334.45Q41.565624 333.6219 41.3 333.29376Q41.034374 332.95 40.64375 332.95Z" fill-rule="nonzero"/><path fill="#161828" d="M23.01875 266.31668L21.971874 266.31668L21.971874 259.59793Q21.58125 259.9573 20.95625 260.3323Q20.346874 260.69168 19.8625 260.86356L19.8625 259.84793Q20.7375 259.42606 21.39375 258.84793Q22.065624 258.25418 22.346874 257.69168L23.01875 257.69168L23.01875 266.31668ZM26.05 262.0823Q26.05 260.55106 26.3625 259.62918Q26.675 258.69168 27.284374 258.19168Q27.909374 257.69168 28.846874 257.69168Q29.534374 257.69168 30.05 257.97293Q30.58125 258.25418 30.925 258.78543Q31.26875 259.30106 31.45625 260.05106Q31.64375 260.80106 31.64375 262.0823Q31.64375 263.59793 31.33125 264.5198Q31.034374 265.44168 30.409374 265.9573Q29.8 266.4573 28.846874 266.4573Q27.6125 266.4573 26.89375 265.56668Q26.05 264.50418 26.05 262.0823ZM27.128124 262.0823Q27.128124 264.19168 27.628124 264.8948Q28.128124 265.59793 28.846874 265.59793Q29.58125 265.59793 30.065624 264.8948Q30.565624 264.19168 30.565624 262.0823Q30.565624 259.9573 30.065624 259.2698Q29.58125 258.56668 28.83125 258.56668Q28.1125 258.56668 27.675 259.17606Q27.128124 259.9573 27.128124 262.0823ZM33.253124 259.78543Q33.253124 258.86356 33.70625 258.22293Q34.175 257.5823 35.05 257.5823Q35.8625 257.5823 36.39375 258.16043Q36.925 258.73856 36.925 259.84793Q36.925 260.94168 36.378124 261.53543Q35.846874 262.11356 35.065624 262.11356Q34.284374 262.11356 33.76875 261.53543Q33.253124 260.9573 33.253124 259.78543ZM35.08125 258.30106Q34.690624 258.30106 34.425 258.6448Q34.175 258.98856 34.175 259.8948Q34.175 260.72293 34.425 261.06668Q34.690624 261.3948 35.08125 261.3948Q35.4875 261.3948 35.7375 261.05106Q36.003124 260.7073 36.003124 259.81668Q36.003124 258.97293 35.7375 258.6448Q35.471874 258.30106 35.08125 258.30106ZM35.08125 266.62918L39.784374 257.5823L40.64375 257.5823L35.95625 266.62918L35.08125 266.62918ZM38.8 264.30106Q38.8 263.37918 39.253124 262.73856Q39.721874 262.09793 40.6125 262.09793Q41.425 262.09793 41.95625 262.67606Q42.4875 263.23856 42.4875 264.36356Q42.4875 265.4573 41.940624 266.05106Q41.409374 266.62918 40.6125 266.62918Q39.846874 266.62918 39.315624 266.05106Q38.8 265.47293 38.8 264.30106ZM40.64375 262.81668Q40.2375 262.81668 39.971874 263.16043Q39.721874 263.50418 39.721874 264.41043Q39.721874 265.22293 39.9875 265.56668Q40.253124 265.91043 40.64375 265.91043Q41.034374 265.91043 41.3 265.56668Q41.565624 265.22293 41.565624 264.31668Q41.565624 263.48856 41.3 263.16043Q41.034374 262.81668 40.64375 262.81668Z" fill-rule="nonzero"/><path fill="#161828" d="M24.596874 195.16771L24.596874 196.18333L18.909374 196.18333Q18.909374 195.80833 19.034374 195.44896Q19.253124 194.87083 19.721874 194.30833Q20.20625 193.74583 21.1125 193.01146Q22.51875 191.85521 23.003124 191.18333Q23.503124 190.51146 23.503124 189.91771Q23.503124 189.29271 23.05 188.87083Q22.596874 188.43333 21.878124 188.43333Q21.1125 188.43333 20.659374 188.88646Q20.20625 189.33958 20.190624 190.15208L19.1125 190.04271Q19.221874 188.82396 19.940624 188.19896Q20.675 187.55833 21.909374 187.55833Q23.14375 187.55833 23.8625 188.24583Q24.58125 188.93333 24.58125 189.94896Q24.58125 190.46458 24.3625 190.96458Q24.159374 191.44896 23.659374 192.01146Q23.175 192.55833 22.05 193.51146Q21.096874 194.30833 20.815624 194.60521Q20.55 194.88646 20.378124 195.16771L24.596874 195.16771ZM26.05 191.94896Q26.05 190.41771 26.3625 189.49583Q26.675 188.55833 27.284374 188.05833Q27.909374 187.55833 28.846874 187.55833Q29.534374 187.55833 30.05 187.83958Q30.58125 188.12083 30.925 188.65208Q31.26875 189.16771 31.45625 189.91771Q31.64375 190.66771 31.64375 191.94896Q31.64375 193.46458 31.33125 194.38646Q31.034374 195.30833 30.409374 195.82396Q29.8 196.32396 28.846874 196.32396Q27.6125 196.32396 26.89375 195.43333Q26.05 194.37083 26.05 191.94896ZM27.128124 191.94896Q27.128124 194.05833 27.628124 194.76146Q28.128124 195.46458 28.846874 195.46458Q29.58125 195.46458 30.065624 194.76146Q30.565624 194.05833 30.565624 191.94896Q30.565624 189.82396 30.065624 189.13646Q29.58125 188.43333 28.83125 188.43333Q28.1125 188.43333 27.675 189.04271Q27.128124 189.82396 27.128124 191.94896ZM33.253124 189.65208Q33.253124 188.73021 33.70625 188.08958Q34.175 187.44896 35.05 187.44896Q35.8625 187.44896 36.39375 188.02708Q36.925 188.60521 36.925 189.71458Q36.925 190.80833 36.378124 191.40208Q35.846874 191.98021 35.065624 191.98021Q34.284374 191.98021 33.76875 191.40208Q33.253124 190.82396 33.253124 189.65208ZM35.08125 188.16771Q34.690624 188.16771 34.425 188.51146Q34.175 188.85521 34.175 189.76146Q34.175 190.58958 34.425 190.93333Q34.690624 191.26146 35.08125 191.26146Q35.4875 191.26146 35.7375 190.91771Q36.003124 190.57396 36.003124 189.68333Q36.003124 188.83958 35.7375 188.51146Q35.471874 188.16771 35.08125 188.16771ZM35.08125 196.49583L39.784374 187.44896L40.64375 187.44896L35.95625 196.49583L35.08125 196.49583ZM38.8 194.16771Q38.8 193.24583 39.253124 192.60521Q39.721874 191.96458 40.6125 191.96458Q41.425 191.96458 41.95625 192.54271Q42.4875 193.10521 42.4875 194.23021Q42.4875 195.32396 41.940624 195.91771Q41.409374 196.49583 40.6125 196.49583Q39.846874 196.49583 39.315624 195.91771Q38.8 195.33958 38.8 194.16771ZM40.64375 192.68333Q40.2375 192.68333 39.971874 193.02708Q39.721874 193.37083 39.721874 194.27708Q39.721874 195.08958 39.9875 195.43333Q40.253124 195.77708 40.64375 195.77708Q41.034374 195.77708 41.3 195.43333Q41.565624 195.08958 41.565624 194.18333Q41.565624 193.35521 41.3 193.02708Q41.034374 192.68333 40.64375 192.68333Z" fill-rule="nonzero"/><path fill="#161828" d="M19.05 123.78438L20.1125 123.64375Q20.284374 124.53438 20.721874 124.94063Q21.159374 125.33125 21.784374 125.33125Q22.534374 125.33125 23.05 124.81563Q23.565624 124.3 23.565624 123.53438Q23.565624 122.81563 23.08125 122.34688Q22.6125 121.8625 21.878124 121.8625Q21.58125 121.8625 21.128124 121.9875L21.253124 121.05Q21.3625 121.06563 21.425 121.06563Q22.096874 121.06563 22.628124 120.72188Q23.175 120.3625 23.175 119.62813Q23.175 119.05 22.784374 118.675Q22.39375 118.28438 21.76875 118.28438Q21.159374 118.28438 20.7375 118.675Q20.33125 119.06563 20.221874 119.83125L19.159374 119.64375Q19.346874 118.59688 20.034374 118.01875Q20.721874 117.425 21.7375 117.425Q22.440624 117.425 23.034374 117.7375Q23.628124 118.03438 23.940624 118.55Q24.253124 119.06563 24.253124 119.65938Q24.253124 120.20625 23.95625 120.675Q23.659374 121.12813 23.08125 121.39375Q23.83125 121.56563 24.253124 122.12813Q24.675 122.675 24.675 123.51875Q24.675 124.64375 23.846874 125.425Q23.034374 126.20625 21.784374 126.20625Q20.659374 126.20625 19.909374 125.53438Q19.159374 124.84688 19.05 123.78438ZM26.05 121.81563Q26.05 120.28438 26.3625 119.3625Q26.675 118.425 27.284374 117.925Q27.909374 117.425 28.846874 117.425Q29.534374 117.425 30.05 117.70625Q30.58125 117.9875 30.925 118.51875Q31.26875 119.03438 31.45625 119.78438Q31.64375 120.53438 31.64375 121.81563Q31.64375 123.33125 31.33125 124.25313Q31.034374 125.175 30.409374 125.69063Q29.8 126.19063 28.846874 126.19063Q27.6125 126.19063 26.89375 125.3Q26.05 124.2375 26.05 121.81563ZM27.128124 121.81563Q27.128124 123.925 27.628124 124.62813Q28.128124 125.33125 28.846874 125.33125Q29.58125 125.33125 30.065624 124.62813Q30.565624 123.925 30.565624 121.81563Q30.565624 119.69063 30.065624 119.00313Q29.58125 118.3 28.83125 118.3Q28.1125 118.3 27.675 118.90938Q27.128124 119.69063 27.128124 121.81563ZM33.253124 119.51875Q33.253124 118.59688 33.70625 117.95625Q34.175 117.31563 35.05 117.31563Q35.8625 117.31563 36.39375 117.89375Q36.925 118.47188 36.925 119.58125Q36.925 120.675 36.378124 121.26875Q35.846874 121.84688 35.065624 121.84688Q34.284374 121.84688 33.76875 121.26875Q33.253124 120.69063 33.253124 119.51875ZM35.08125 118.03438Q34.690624 118.03438 34.425 118.37813Q34.175 118.72188 34.175 119.62813Q34.175 120.45625 34.425 120.8Q34.690624 121.12813 35.08125 121.12813Q35.4875 121.12813 35.7375 120.78438Q36.003124 120.44063 36.003124 119.55Q36.003124 118.70625 35.7375 118.37813Q35.471874 118.03438 35.08125 118.03438ZM35.08125 126.3625L39.784374 117.31563L40.64375 117.31563L35.95625 126.3625L35.08125 126.3625ZM38.8 124.03438Q38.8 123.1125 39.253124 122.47188Q39.721874 121.83125 40.6125 121.83125Q41.425 121.83125 41.95625 122.40938Q42.4875 122.97188 42.4875 124.09688Q42.4875 125.19063 41.940624 125.78438Q41.409374 126.3625 40.6125 126.3625Q39.846874 126.3625 39.315624 125.78438Q38.8 125.20625 38.8 124.03438ZM40.64375 122.55Q40.2375 122.55 39.971874 122.89375Q39.721874 123.2375 39.721874 124.14375Q39.721874 124.95625 39.9875 125.3Q40.253124 125.64375 40.64375 125.64375Q41.034374 125.64375 41.3 125.3Q41.565624 124.95625 41.565624 124.05Q41.565624 123.22188 41.3 122.89375Q41.034374 122.55 40.64375 122.55Z" fill-rule="nonzero"/><path fill="#161828" d="M22.425 55.916668L22.425 53.854168L18.70625 53.854168L18.70625 52.885418L22.628124 47.322918L23.4875 47.322918L23.4875 52.885418L24.64375 52.885418L24.64375 53.854168L23.4875 53.854168L23.4875 55.916668L22.425 55.916668ZM22.425 52.885418L22.425 49.026043L19.7375 52.885418L22.425 52.885418ZM26.05 51.682293Q26.05 50.151043 26.3625 49.229168Q26.675 48.291668 27.284374 47.791668Q27.909374 47.291668 28.846874 47.291668Q29.534374 47.291668 30.05 47.572918Q30.58125 47.854168 30.925 48.385418Q31.26875 48.901043 31.45625 49.651043Q31.64375 50.401043 31.64375 51.682293Q31.64375 53.197918 31.33125 54.119793Q31.034374 55.041668 30.409374 55.557293Q29.8 56.057293 28.846874 56.057293Q27.6125 56.057293 26.89375 55.166668Q26.05 54.104168 26.05 51.682293ZM27.128124 51.682293Q27.128124 53.791668 27.628124 54.494793Q28.128124 55.197918 28.846874 55.197918Q29.58125 55.197918 30.065624 54.494793Q30.565624 53.791668 30.565624 51.682293Q30.565624 49.557293 30.065624 48.869793Q29.58125 48.166668 28.83125 48.166668Q28.1125 48.166668 27.675 48.776043Q27.128124 49.557293 27.128124 51.682293ZM33.253124 49.385418Q33.253124 48.463543 33.70625 47.822918Q34.175 47.182293 35.05 47.182293Q35.8625 47.182293 36.39375 47.760418Q36.925 48.338543 36.925 49.447918Q36.925 50.541668 36.378124 51.135418Q35.846874 51.713543 35.065624 51.713543Q34.284374 51.713543 33.76875 51.135418Q33.253124 50.557293 33.253124 49.385418ZM35.08125 47.901043Q34.690624 47.901043 34.425 48.244793Q34.175 48.588543 34.175 49.494793Q34.175 50.322918 34.425 50.666668Q34.690624 50.994793 35.08125 50.994793Q35.4875 50.994793 35.7375 50.651043Q36.003124 50.307293 36.003124 49.416668Q36.003124 48.572918 35.7375 48.244793Q35.471874 47.901043 35.08125 47.901043ZM35.08125 56.229168L39.784374 47.182293L40.64375 47.182293L35.95625 56.229168L35.08125 56.229168ZM38.8 53.901043Q38.8 52.979168 39.253124 52.338543Q39.721874 51.697918 40.6125 51.697918Q41.425 51.697918 41.95625 52.276043Q42.4875 52.838543 42.4875 53.963543Q42.4875 55.057293 41.940624 55.651043Q41.409374 56.229168 40.6125 56.229168Q39.846874 56.229168 39.315624 55.651043Q38.8 55.072918 38.8 53.901043ZM40.64375 52.416668Q40.2375 52.416668 39.971874 52.760418Q39.721874 53.104168 39.721874 54.010418Q39.721874 54.822918 39.9875 55.166668Q40.253124 55.510418 40.64375 55.510418Q41.034374 55.510418 41.3 55.166668Q41.565624 54.822918 41.565624 53.916668Q41.565624 53.088543 41.3 52.760418Q41.034374 52.416668 40.64375 52.416668Z" fill-rule="nonzero"/><path fill="#161828" d="M92.25166 349.45L89.97041 340.85626L91.14229 340.85626L92.45479 346.4969Q92.65791 347.3719 92.81416 348.2469Q93.14229 346.8719 93.20479 346.65314L94.82979 340.85626L96.20479 340.85626L97.43916 345.2Q97.89229 346.825 98.11104 348.2469Q98.26729 347.4344 98.53291 346.3719L99.87666 340.85626L101.01729 340.85626L98.67354 349.45L97.56416 349.45L95.76729 342.90314Q95.53291 342.09064 95.48604 341.90314Q95.36104 342.48126 95.23604 342.90314L93.42354 349.45L92.25166 349.45ZM101.23604 346.34064Q101.23604 344.60626 102.18916 343.77814Q102.98604 343.09064 104.14229 343.09064Q105.42354 343.09064 106.23604 343.9344Q107.06416 344.7625 107.06416 346.2469Q107.06416 347.45 106.70479 348.1375Q106.34541 348.825 105.64229 349.21564Q104.95479 349.59064 104.14229 349.59064Q102.84541 349.59064 102.03291 348.7625Q101.23604 347.91876 101.23604 346.34064ZM102.31416 346.34064Q102.31416 347.52814 102.82979 348.1219Q103.36104 348.71564 104.14229 348.71564Q104.93916 348.71564 105.45479 348.1219Q105.97041 347.52814 105.97041 346.3094Q105.97041 345.15314 105.43916 344.5594Q104.92354 343.96564 104.14229 343.96564Q103.36104 343.96564 102.82979 344.5594Q102.31416 345.1375 102.31416 346.34064ZM108.62666 349.45L108.62666 343.23126L109.56416 343.23126L109.56416 344.10626Q109.86104 343.6375 110.34541 343.3719Q110.82979 343.09064 111.45479 343.09064Q112.14229 343.09064 112.57979 343.3719Q113.03291 343.65314 113.20479 344.16876Q113.95479 343.09064 115.12666 343.09064Q116.06416 343.09064 116.54854 343.60626Q117.04854 344.10626 117.04854 345.1844L117.04854 349.45L116.00166 349.45L116.00166 345.52814Q116.00166 344.90314 115.89229 344.6219Q115.79854 344.34064 115.53291 344.16876Q115.26729 343.9969 114.89229 343.9969Q114.23604 343.9969 113.79854 344.4344Q113.37666 344.8719 113.37666 345.84064L113.37666 349.45L112.31416 349.45L112.31416 345.40314Q112.31416 344.7 112.04854 344.35626Q111.79854 343.9969 111.22041 343.9969Q110.76729 343.9969 110.39229 344.23126Q110.01729 344.46564 109.84541 344.91876Q109.67354 345.3719 109.67354 346.21564L109.67354 349.45L108.62666 349.45ZM123.87666 347.45L124.97041 347.575Q124.72041 348.52814 124.01729 349.0594Q123.31416 349.59064 122.23604 349.59064Q120.87666 349.59064 120.06416 348.7469Q119.26729 347.90314 119.26729 346.3875Q119.26729 344.825 120.07979 343.96564Q120.89229 343.09064 122.17354 343.09064Q123.42354 343.09064 124.20479 343.9344Q125.00166 344.77814 125.00166 346.325Q125.00166 346.41876 125.00166 346.60626L120.36104 346.60626Q120.42354 347.6375 120.93916 348.1844Q121.45479 348.71564 122.23604 348.71564Q122.81416 348.71564 123.22041 348.41876Q123.64229 348.10626 123.87666 347.45ZM120.42354 345.7469L123.89229 345.7469Q123.82979 344.95 123.50166 344.5594Q122.98604 343.95 122.18916 343.95Q121.45479 343.95 120.95479 344.4344Q120.47041 344.91876 120.42354 345.7469ZM126.62666 349.45L126.62666 343.23126L127.56416 343.23126L127.56416 344.10626Q128.25166 343.09064 129.54854 343.09064Q130.11104 343.09064 130.57979 343.29376Q131.06416 343.4969 131.29854 343.825Q131.53291 344.15314 131.62666 344.59064Q131.67354 344.8875 131.67354 345.6219L131.67354 349.45L130.62666 349.45L130.62666 345.66876Q130.62666 345.0125 130.50166 344.7Q130.37666 344.3875 130.06416 344.2Q129.75166 343.9969 129.32979 343.9969Q128.65791 343.9969 128.15791 344.4344Q127.67354 344.85626 127.67354 346.04376L127.67354 349.45L126.62666 349.45ZM136.62666 342.075L136.62666 340.85626L137.68916 340.85626L137.68916 342.075L136.62666 342.075ZM136.62666 349.45L136.62666 343.23126L137.68916 343.23126L137.68916 349.45L136.62666 349.45ZM139.62666 349.45L139.62666 343.23126L140.56416 343.23126L140.56416 344.10626Q141.25166 343.09064 142.54854 343.09064Q143.11104 343.09064 143.57979 343.29376Q144.06416 343.4969 144.29854 343.825Q144.53291 344.15314 144.62666 344.59064Q144.67354 344.8875 144.67354 345.6219L144.67354 349.45L143.62666 349.45L143.62666 345.66876Q143.62666 345.0125 143.50166 344.7Q143.37666 344.3875 143.06416 344.2Q142.75166 343.9969 142.32979 343.9969Q141.65791 343.9969 141.15791 344.4344Q140.67354 344.85626 140.67354 346.04376L140.67354 349.45L139.62666 349.45ZM149.78291 349.45L149.78291 340.85626L155.98604 340.85626L155.98604 341.8719L150.92354 341.8719L150.92354 344.4969L155.67354 344.4969L155.67354 345.5125L150.92354 345.5125L150.92354 348.4344L156.18916 348.4344L156.18916 349.45L149.78291 349.45ZM156.92354 349.45L159.18916 346.21564L157.09541 343.23126L158.40791 343.23126L159.36104 344.6844Q159.62666 345.10626 159.79854 345.3875Q160.04854 344.9969 160.26729 344.7L161.31416 343.23126L162.57979 343.23126L160.42354 346.15314L162.73604 349.45L161.45479 349.45L160.17354 347.5125L159.82979 346.9969L158.18916 349.45L156.92354 349.45ZM166.87666 347.45L167.97041 347.575Q167.72041 348.52814 167.01729 349.0594Q166.31416 349.59064 165.23604 349.59064Q163.87666 349.59064 163.06416 348.7469Q162.26729 347.90314 162.26729 346.3875Q162.26729 344.825 163.07979 343.96564Q163.89229 343.09064 165.17354 343.09064Q166.42354 343.09064 167.20479 343.9344Q168.00166 344.77814 168.00166 346.325Q168.00166 346.41876 168.00166 346.60626L163.36104 346.60626Q163.42354 347.6375 163.93916 348.1844Q164.45479 348.71564 165.23604 348.71564Q165.81416 348.71564 166.22041 348.41876Q166.64229 348.10626 166.87666 347.45ZM163.42354 345.7469L166.89229 345.7469Q166.82979 344.95 166.50166 344.5594Q165.98604 343.95 165.18916 343.95Q164.45479 343.95 163.95479 344.4344Q163.47041 344.91876 163.42354 345.7469ZM173.68916 347.16876L174.72041 347.3094Q174.54854 348.3719 173.84541 348.98126Q173.14229 349.59064 172.12666 349.59064Q170.84541 349.59064 170.06416 348.7625Q169.29854 347.91876 169.29854 346.35626Q169.29854 345.35626 169.62666 344.60626Q169.97041 343.84064 170.64229 343.46564Q171.32979 343.09064 172.14229 343.09064Q173.14229 343.09064 173.78291 343.60626Q174.43916 344.10626 174.62666 345.0594L173.59541 345.21564Q173.45479 344.59064 173.07979 344.27814Q172.70479 343.95 172.17354 343.95Q171.37666 343.95 170.87666 344.52814Q170.37666 345.09064 170.37666 346.325Q170.37666 347.59064 170.86104 348.15314Q171.34541 348.71564 172.11104 348.71564Q172.73604 348.71564 173.14229 348.34064Q173.56416 347.96564 173.68916 347.16876ZM179.70479 349.45L179.70479 348.52814Q178.97041 349.59064 177.72041 349.59064Q177.17354 349.59064 176.68916 349.3875Q176.22041 349.16876 175.98604 348.85626Q175.75166 348.52814 175.65791 348.0594Q175.59541 347.7625 175.59541 347.075L175.59541 343.23126L176.65791 343.23126L176.65791 346.6844Q176.65791 347.4969 176.72041 347.79376Q176.81416 348.2 177.12666 348.45Q177.45479 348.6844 177.93916 348.6844Q178.40791 348.6844 178.81416 348.45Q179.23604 348.2 179.40791 347.77814Q179.59541 347.35626 179.59541 346.5594L179.59541 343.23126L180.64229 343.23126L180.64229 349.45L179.70479 349.45ZM184.92354 348.5125L185.07979 349.4344Q184.62666 349.52814 184.28291 349.52814Q183.70479 349.52814 183.39229 349.35626Q183.07979 349.16876 182.93916 348.8719Q182.81416 348.575 182.81416 347.6219L182.81416 344.04376L182.04854 344.04376L182.04854 343.23126L182.81416 343.23126L182.81416 341.6844L183.86104 341.0594L183.86104 343.23126L184.92354 343.23126L184.92354 344.04376L183.86104 344.04376L183.86104 347.6844Q183.86104 348.1375 183.90791 348.2625Q183.97041 348.3875 184.09541 348.46564Q184.22041 348.54376 184.45479 348.54376Q184.64229 348.54376 184.92354 348.5125ZM185.62666 342.075L185.62666 340.85626L186.68916 340.85626L186.68916 342.075L185.62666 342.075ZM185.62666 349.45L185.62666 343.23126L186.68916 343.23126L186.68916 349.45L185.62666 349.45ZM190.34541 349.45L187.98604 343.23126L189.09541 343.23126L190.43916 346.95Q190.64229 347.5594 190.82979 348.2Q190.97041 347.71564 191.22041 347.02814L192.61104 343.23126L193.68916 343.23126L191.32979 349.45L190.34541 349.45ZM197.87666 347.45L198.97041 347.575Q198.72041 348.52814 198.01729 349.0594Q197.31416 349.59064 196.23604 349.59064Q194.87666 349.59064 194.06416 348.7469Q193.26729 347.90314 193.26729 346.3875Q193.26729 344.825 194.07979 343.96564Q194.89229 343.09064 196.17354 343.09064Q197.42354 343.09064 198.20479 343.9344Q199.00166 344.77814 199.00166 346.325Q199.00166 346.41876 199.00166 346.60626L194.36104 346.60626Q194.42354 347.6375 194.93916 348.1844Q195.45479 348.71564 196.23604 348.71564Q196.81416 348.71564 197.22041 348.41876Q197.64229 348.10626 197.87666 347.45ZM194.42354 345.7469L197.89229 345.7469Q197.82979 344.95 197.50166 344.5594Q196.98604 343.95 196.18916 343.95Q195.45479 343.95 194.95479 344.4344Q194.47041 344.91876 194.42354 345.7469ZM203.62666 349.45L203.62666 343.23126L204.56416 343.23126L204.56416 344.10626Q204.86104 343.6375 205.34541 343.3719Q205.82979 343.09064 206.45479 343.09064Q207.14229 343.09064 207.57979 343.3719Q208.03291 343.65314 208.20479 344.16876Q208.95479 343.09064 210.12666 343.09064Q211.06416 343.09064 211.54854 343.60626Q212.04854 344.10626 212.04854 345.1844L212.04854 349.45L211.00166 349.45L211.00166 345.52814Q211.00166 344.90314 210.89229 344.6219Q210.79854 344.34064 210.53291 344.16876Q210.26729 343.9969 209.89229 343.9969Q209.23604 343.9969 208.79854 344.4344Q208.37666 344.8719 208.37666 345.84064L208.37666 349.45L207.31416 349.45L207.31416 345.40314Q207.31416 344.7 207.04854 344.35626Q206.79854 343.9969 206.22041 343.9969Q205.76729 343.9969 205.39229 344.23126Q205.01729 344.46564 204.84541 344.91876Q204.67354 345.3719 204.67354 346.21564L204.67354 349.45L203.62666 349.45ZM218.68916 348.6844Q218.09541 349.1844 217.54854 349.3875Q217.01729 349.59064 216.39229 349.59064Q215.36104 349.59064 214.81416 349.09064Q214.26729 348.59064 214.26729 347.8094Q214.26729 347.35626 214.47041 346.98126Q214.67354 346.59064 215.01729 346.3719Q215.36104 346.1375 215.78291 346.02814Q216.07979 345.9344 216.72041 345.85626Q217.98604 345.71564 218.59541 345.4969Q218.59541 345.27814 218.59541 345.23126Q218.59541 344.575 218.29854 344.3094Q217.89229 343.96564 217.09541 343.96564Q216.36104 343.96564 216.00166 344.23126Q215.64229 344.48126 215.47041 345.1375L214.43916 344.9969Q214.57979 344.34064 214.90791 343.9344Q215.23604 343.52814 215.84541 343.3094Q216.45479 343.09064 217.25166 343.09064Q218.04854 343.09064 218.54854 343.27814Q219.04854 343.46564 219.28291 343.7469Q219.51729 344.02814 219.61104 344.46564Q219.65791 344.73126 219.65791 345.4344L219.65791 346.84064Q219.65791 348.3094 219.72041 348.7Q219.79854 349.09064 220.00166 349.45L218.89229 349.45Q218.73604 349.1219 218.68916 348.6844ZM218.59541 346.325Q218.01729 346.5594 216.87666 346.73126Q216.22041 346.825 215.95479 346.95Q215.68916 347.0594 215.53291 347.27814Q215.39229 347.4969 215.39229 347.77814Q215.39229 348.2 215.70479 348.48126Q216.03291 348.7625 216.64229 348.7625Q217.25166 348.7625 217.72041 348.4969Q218.20479 348.23126 218.42354 347.7625Q218.59541 347.40314 218.59541 346.71564L218.59541 346.325ZM221.62666 349.45L221.62666 343.23126L222.56416 343.23126L222.56416 344.10626Q223.25166 343.09064 224.54854 343.09064Q225.11104 343.09064 225.57979 343.29376Q226.06416 343.4969 226.29854 343.825Q226.53291 344.15314 226.62666 344.59064Q226.67354 344.8875 226.67354 345.6219L226.67354 349.45L225.62666 349.45L225.62666 345.66876Q225.62666 345.0125 225.50166 344.7Q225.37666 344.3875 225.06416 344.2Q224.75166 343.9969 224.32979 343.9969Q223.65791 343.9969 223.15791 344.4344Q222.67354 344.85626 222.67354 346.04376L222.67354 349.45L221.62666 349.45ZM232.68916 348.6844Q232.09541 349.1844 231.54854 349.3875Q231.01729 349.59064 230.39229 349.59064Q229.36104 349.59064 228.81416 349.09064Q228.26729 348.59064 228.26729 347.8094Q228.26729 347.35626 228.47041 346.98126Q228.67354 346.59064 229.01729 346.3719Q229.36104 346.1375 229.78291 346.02814Q230.07979 345.9344 230.72041 345.85626Q231.98604 345.71564 232.59541 345.4969Q232.59541 345.27814 232.59541 345.23126Q232.59541 344.575 232.29854 344.3094Q231.89229 343.96564 231.09541 343.96564Q230.36104 343.96564 230.00166 344.23126Q229.64229 344.48126 229.47041 345.1375L228.43916 344.9969Q228.57979 344.34064 228.90791 343.9344Q229.23604 343.52814 229.84541 343.3094Q230.45479 343.09064 231.25166 343.09064Q232.04854 343.09064 232.54854 343.27814Q233.04854 343.46564 233.28291 343.7469Q233.51729 344.02814 233.61104 344.46564Q233.65791 344.73126 233.65791 345.4344L233.65791 346.84064Q233.65791 348.3094 233.72041 348.7Q233.79854 349.09064 234.00166 349.45L232.89229 349.45Q232.73604 349.1219 232.68916 348.6844ZM232.59541 346.325Q232.01729 346.5594 230.87666 346.73126Q230.22041 346.825 229.95479 346.95Q229.68916 347.0594 229.53291 347.27814Q229.39229 347.4969 229.39229 347.77814Q229.39229 348.2 229.70479 348.48126Q230.03291 348.7625 230.64229 348.7625Q231.25166 348.7625 231.72041 348.4969Q232.20479 348.23126 232.42354 347.7625Q232.59541 347.40314 232.59541 346.71564L232.59541 346.325ZM235.42354 349.96564L236.45479 350.1219Q236.51729 350.59064 236.81416 350.8094Q237.20479 351.10626 237.87666 351.10626Q238.61104 351.10626 239.00166 350.8094Q239.40791 350.5125 239.54854 349.9969Q239.64229 349.66876 239.62666 348.6375Q238.93916 349.45 237.90791 349.45Q236.62666 349.45 235.92354 348.52814Q235.22041 347.59064 235.22041 346.3094Q235.22041 345.41876 235.53291 344.66876Q235.86104 343.90314 236.47041 343.4969Q237.07979 343.09064 237.90791 343.09064Q239.01729 343.09064 239.73604 343.98126L239.73604 343.23126L240.70479 343.23126L240.70479 348.60626Q240.70479 350.0594 240.40791 350.66876Q240.11104 351.27814 239.47041 351.6219Q238.82979 351.98126 237.89229 351.98126Q236.78291 351.98126 236.09541 351.48126Q235.40791 350.98126 235.42354 349.96564ZM236.29854 346.23126Q236.29854 347.45 236.78291 348.0125Q237.26729 348.575 238.00166 348.575Q238.73604 348.575 239.22041 348.0125Q239.72041 347.45 239.72041 346.2625Q239.72041 345.1219 239.20479 344.54376Q238.70479 343.96564 237.98604 343.96564Q237.28291 343.96564 236.78291 344.54376Q236.29854 345.10626 236.29854 346.23126ZM246.87666 347.45L247.97041 347.575Q247.72041 348.52814 247.01729 349.0594Q246.31416 349.59064 245.23604 349.59064Q243.87666 349.59064 243.06416 348.7469Q242.26729 347.90314 242.26729 346.3875Q242.26729 344.825 243.07979 343.96564Q243.89229 343.09064 245.17354 343.09064Q246.42354 343.09064 247.20479 343.9344Q248.00166 344.77814 248.00166 346.325Q248.00166 346.41876 248.00166 346.60626L243.36104 346.60626Q243.42354 347.6375 243.93916 348.1844Q244.45479 348.71564 245.23604 348.71564Q245.81416 348.71564 246.22041 348.41876Q246.64229 348.10626 246.87666 347.45ZM243.42354 345.7469L246.89229 345.7469Q246.82979 344.95 246.50166 344.5594Q245.98604 343.95 245.18916 343.95Q244.45479 343.95 243.95479 344.4344Q243.47041 344.91876 243.42354 345.7469ZM249.62666 349.45L249.62666 343.23126L250.56416 343.23126L250.56416 344.10626Q250.86104 343.6375 251.34541 343.3719Q251.82979 343.09064 252.45479 343.09064Q253.14229 343.09064 253.57979 343.3719Q254.03291 343.65314 254.20479 344.16876Q254.95479 343.09064 256.12665 343.09064Q257.06415 343.09064 257.54852 343.60626Q258.04852 344.10626 258.04852 345.1844L258.04852 349.45L257.00165 349.45L257.00165 345.52814Q257.00165 344.90314 256.89227 344.6219Q256.79852 344.34064 256.5329 344.16876Q256.26727 343.9969 255.89229 343.9969Q255.23604 343.9969 254.79854 344.4344Q254.37666 344.8719 254.37666 345.84064L254.37666 349.45L253.31416 349.45L253.31416 345.40314Q253.31416 344.7 253.04854 344.35626Q252.79854 343.9969 252.22041 343.9969Q251.76729 343.9969 251.39229 344.23126Q251.01729 344.46564 250.84541 344.91876Q250.67354 345.3719 250.67354 346.21564L250.67354 349.45L249.62666 349.45ZM264.87665 347.45L265.9704 347.575Q265.7204 348.52814 265.01727 349.0594Q264.31415 349.59064 263.23602 349.59064Q261.87665 349.59064 261.06415 348.7469Q260.26727 347.90314 260.26727 346.3875Q260.26727 344.825 261.07977 343.96564Q261.89227 343.09064 263.17352 343.09064Q264.42352 343.09064 265.20477 343.9344Q266.00165 344.77814 266.00165 346.325Q266.00165 346.41876 266.00165 346.60626L261.36102 346.60626Q261.42352 347.6375 261.93915 348.1844Q262.45477 348.71564 263.23602 348.71564Q263.81415 348.71564 264.2204 348.41876Q264.64227 348.10626 264.87665 347.45ZM261.42352 345.7469L264.89227 345.7469Q264.82977 344.95 264.50165 344.5594Q263.98602 343.95 263.18915 343.95Q262.45477 343.95 261.95477 344.4344Q261.4704 344.91876 261.42352 345.7469ZM267.62665 349.45L267.62665 343.23126L268.56415 343.23126L268.56415 344.10626Q269.25165 343.09064 270.54852 343.09064Q271.11102 343.09064 271.57977 343.29376Q272.06415 343.4969 272.29852 343.825Q272.5329 344.15314 272.62665 344.59064Q272.67352 344.8875 272.67352 345.6219L272.67352 349.45L271.62665 349.45L271.62665 345.66876Q271.62665 345.0125 271.50165 344.7Q271.37665 344.3875 271.06415 344.2Q270.75165 343.9969 270.32977 343.9969Q269.6579 343.9969 269.1579 344.4344Q268.67352 344.85626 268.67352 346.04376L268.67352 349.45L267.62665 349.45ZM276.92352 348.5125L277.07977 349.4344Q276.62665 349.52814 276.2829 349.52814Q275.70477 349.52814 275.39227 349.35626Q275.07977 349.16876 274.93915 348.8719Q274.81415 348.575 274.81415 347.6219L274.81415 344.04376L274.04852 344.04376L274.04852 343.23126L274.81415 343.23126L274.81415 341.6844L275.86102 341.0594L275.86102 343.23126L276.92352 343.23126L276.92352 344.04376L275.86102 344.04376L275.86102 347.6844Q275.86102 348.1375 275.9079 348.2625Q275.9704 348.3875 276.0954 348.46564Q276.2204 348.54376 276.45477 348.54376Q276.64227 348.54376 276.92352 348.5125ZM282.92352 348.5125L283.07977 349.4344Q282.62665 349.52814 282.2829 349.52814Q281.70477 349.52814 281.39227 349.35626Q281.07977 349.16876 280.93915 348.8719Q280.81415 348.575 280.81415 347.6219L280.81415 344.04376L280.04852 344.04376L280.04852 343.23126L280.81415 343.23126L280.81415 341.6844L281.86102 341.0594L281.86102 343.23126L282.92352 343.23126L282.92352 344.04376L281.86102 344.04376L281.86102 347.6844Q281.86102 348.1375 281.9079 348.2625Q281.9704 348.3875 282.0954 348.46564Q282.2204 348.54376 282.45477 348.54376Q282.64227 348.54376 282.92352 348.5125ZM287.87665 347.45L288.9704 347.575Q288.7204 348.52814 288.01727 349.0594Q287.31415 349.59064 286.23602 349.59064Q284.87665 349.59064 284.06415 348.7469Q283.26727 347.90314 283.26727 346.3875Q283.26727 344.825 284.07977 343.96564Q284.89227 343.09064 286.17352 343.09064Q287.42352 343.09064 288.20477 343.9344Q289.00165 344.77814 289.00165 346.325Q289.00165 346.41876 289.00165 346.60626L284.36102 346.60626Q284.42352 347.6375 284.93915 348.1844Q285.45477 348.71564 286.23602 348.71564Q286.81415 348.71564 287.2204 348.41876Q287.64227 348.10626 287.87665 347.45ZM284.42352 345.7469L287.89227 345.7469Q287.82977 344.95 287.50165 344.5594Q286.98602 343.95 286.18915 343.95Q285.45477 343.95 284.95477 344.4344Q284.4704 344.91876 284.42352 345.7469ZM294.68915 348.6844Q294.0954 349.1844 293.54852 349.3875Q293.01727 349.59064 292.39227 349.59064Q291.36102 349.59064 290.81415 349.09064Q290.26727 348.59064 290.26727 347.8094Q290.26727 347.35626 290.4704 346.98126Q290.67352 346.59064 291.01727 346.3719Q291.36102 346.1375 291.7829 346.02814Q292.07977 345.9344 292.7204 345.85626Q293.98602 345.71564 294.5954 345.4969Q294.5954 345.27814 294.5954 345.23126Q294.5954 344.575 294.29852 344.3094Q293.89227 343.96564 293.0954 343.96564Q292.36102 343.96564 292.00165 344.23126Q291.64227 344.48126 291.4704 345.1375L290.43915 344.9969Q290.57977 344.34064 290.9079 343.9344Q291.23602 343.52814 291.8454 343.3094Q292.45477 343.09064 293.25165 343.09064Q294.04852 343.09064 294.54852 343.27814Q295.04852 343.46564 295.2829 343.7469Q295.51727 344.02814 295.61102 344.46564Q295.6579 344.73126 295.6579 345.4344L295.6579 346.84064Q295.6579 348.3094 295.7204 348.7Q295.79852 349.09064 296.00165 349.45L294.89227 349.45Q294.73602 349.1219 294.68915 348.6844ZM294.5954 346.325Q294.01727 346.5594 292.87665 346.73126Q292.2204 346.825 291.95477 346.95Q291.68915 347.0594 291.5329 347.27814Q291.39227 347.4969 291.39227 347.77814Q291.39227 348.2 291.70477 348.48126Q292.0329 348.7625 292.64227 348.7625Q293.25165 348.7625 293.7204 348.4969Q294.20477 348.23126 294.42352 347.7625Q294.5954 347.40314 294.5954 346.71564L294.5954 346.325ZM297.62665 349.45L297.62665 343.23126L298.56415 343.23126L298.56415 344.10626Q298.86102 343.6375 299.3454 343.3719Q299.82977 343.09064 300.45477 343.09064Q301.14227 343.09064 301.57977 343.3719Q302.0329 343.65314 302.20477 344.16876Q302.95477 343.09064 304.12665 343.09064Q305.06415 343.09064 305.54852 343.60626Q306.04852 344.10626 306.04852 345.1844L306.04852 349.45L305.00165 349.45L305.00165 345.52814Q305.00165 344.90314 304.89227 344.6219Q304.79852 344.34064 304.5329 344.16876Q304.26727 343.9969 303.89227 343.9969Q303.23602 343.9969 302.79852 344.4344Q302.37665 344.8719 302.37665 345.84064L302.37665 349.45L301.31415 349.45L301.31415 345.40314Q301.31415 344.7 301.04852 344.35626Q300.79852 343.9969 300.2204 343.9969Q299.76727 343.9969 299.39227 344.23126Q299.01727 344.46564 298.8454 344.91876Q298.67352 345.3719 298.67352 346.21564L298.67352 349.45L297.62665 349.45ZM308.20477 347.59064L309.23602 347.4344Q309.32977 348.0594 309.7204 348.3875Q310.12665 348.71564 310.86102 348.71564Q311.57977 348.71564 311.92352 348.4344Q312.2829 348.1375 312.2829 347.73126Q312.2829 347.3719 311.9704 347.16876Q311.75165 347.02814 310.89227 346.8094Q309.73602 346.5125 309.2829 346.3094Q308.8454 346.09064 308.61102 345.71564Q308.37665 345.34064 308.37665 344.8719Q308.37665 344.46564 308.56415 344.10626Q308.75165 343.7469 309.07977 343.5125Q309.32977 343.34064 309.75165 343.21564Q310.17352 343.09064 310.67352 343.09064Q311.39227 343.09064 311.93915 343.3094Q312.50165 343.5125 312.76727 343.8719Q313.0329 344.23126 313.12665 344.825L312.0954 344.96564Q312.0329 344.4969 311.68915 344.23126Q311.36102 343.95 310.73602 343.95Q310.01727 343.95 309.70477 344.2Q309.39227 344.4344 309.39227 344.7625Q309.39227 344.96564 309.51727 345.1219Q309.6579 345.29376 309.92352 345.40314Q310.07977 345.46564 310.86102 345.66876Q311.98602 345.98126 312.42352 346.16876Q312.86102 346.35626 313.11102 346.71564Q313.36102 347.075 313.36102 347.6219Q313.36102 348.15314 313.04852 348.6219Q312.75165 349.075 312.17352 349.34064Q311.5954 349.59064 310.86102 349.59064Q309.64227 349.59064 309.00165 349.09064Q308.37665 348.575 308.20477 347.59064Z" fill-rule="nonzero"/><path fill="#161828" d="M373.0921 349.45L370.81085 340.85626L371.98273 340.85626L373.29523 346.4969Q373.49835 347.3719 373.6546 348.2469Q373.98273 346.8719 374.04523 346.65314L375.67023 340.85626L377.04523 340.85626L378.2796 345.2Q378.73273 346.825 378.95148 348.2469Q379.10773 347.4344 379.37335 346.3719L380.7171 340.85626L381.85773 340.85626L379.51398 349.45L378.4046 349.45L376.60773 342.90314Q376.37335 342.09064 376.32648 341.90314Q376.20148 342.48126 376.07648 342.90314L374.26398 349.45L373.0921 349.45ZM382.07648 346.34064Q382.07648 344.60626 383.0296 343.77814Q383.82648 343.09064 384.98273 343.09064Q386.26398 343.09064 387.07648 343.9344Q387.9046 344.7625 387.9046 346.2469Q387.9046 347.45 387.54523 348.1375Q387.18585 348.825 386.48273 349.21564Q385.79523 349.59064 384.98273 349.59064Q383.68585 349.59064 382.87335 348.7625Q382.07648 347.91876 382.07648 346.34064ZM383.1546 346.34064Q383.1546 347.52814 383.67023 348.1219Q384.20148 348.71564 384.98273 348.71564Q385.7796 348.71564 386.29523 348.1219Q386.81085 347.52814 386.81085 346.3094Q386.81085 345.15314 386.2796 344.5594Q385.76398 343.96564 384.98273 343.96564Q384.20148 343.96564 383.67023 344.5594Q383.1546 345.1375 383.1546 346.34064ZM389.4671 349.45L389.4671 343.23126L390.4046 343.23126L390.4046 344.10626Q390.70148 343.6375 391.18585 343.3719Q391.67023 343.09064 392.29523 343.09064Q392.98273 343.09064 393.42023 343.3719Q393.87335 343.65314 394.04523 344.16876Q394.79523 343.09064 395.9671 343.09064Q396.9046 343.09064 397.38898 343.60626Q397.88898 344.10626 397.88898 345.1844L397.88898 349.45L396.8421 349.45L396.8421 345.52814Q396.8421 344.90314 396.73273 344.6219Q396.63898 344.34064 396.37335 344.16876Q396.10773 343.9969 395.73273 343.9969Q395.07648 343.9969 394.63898 344.4344Q394.2171 344.8719 394.2171 345.84064L394.2171 349.45L393.1546 349.45L393.1546 345.40314Q393.1546 344.7 392.88898 344.35626Q392.63898 343.9969 392.06085 343.9969Q391.60773 343.9969 391.23273 344.23126Q390.85773 344.46564 390.68585 344.91876Q390.51398 345.3719 390.51398 346.21564L390.51398 349.45L389.4671 349.45ZM404.7171 347.45L405.81085 347.575Q405.56085 348.52814 404.85773 349.0594Q404.1546 349.59064 403.07648 349.59064Q401.7171 349.59064 400.9046 348.7469Q400.10773 347.90314 400.10773 346.3875Q400.10773 344.825 400.92023 343.96564Q401.73273 343.09064 403.01398 343.09064Q404.26398 343.09064 405.04523 343.9344Q405.8421 344.77814 405.8421 346.325Q405.8421 346.41876 405.8421 346.60626L401.20148 346.60626Q401.26398 347.6375 401.7796 348.1844Q402.29523 348.71564 403.07648 348.71564Q403.6546 348.71564 404.06085 348.41876Q404.48273 348.10626 404.7171 347.45ZM401.26398 345.7469L404.73273 345.7469Q404.67023 344.95 404.3421 344.5594Q403.82648 343.95 403.0296 343.95Q402.29523 343.95 401.79523 344.4344Q401.31085 344.91876 401.26398 345.7469ZM407.4671 349.45L407.4671 343.23126L408.4046 343.23126L408.4046 344.10626Q409.0921 343.09064 410.38898 343.09064Q410.95148 343.09064 411.42023 343.29376Q411.9046 343.4969 412.13898 343.825Q412.37335 344.15314 412.4671 344.59064Q412.51398 344.8875 412.51398 345.6219L412.51398 349.45L411.4671 349.45L411.4671 345.66876Q411.4671 345.0125 411.3421 344.7Q411.2171 344.3875 410.9046 344.2Q410.5921 343.9969 410.17023 343.9969Q409.49835 343.9969 408.99835 344.4344Q408.51398 344.85626 408.51398 346.04376L408.51398 349.45L407.4671 349.45ZM417.07648 346.34064Q417.07648 344.60626 418.0296 343.77814Q418.82648 343.09064 419.98273 343.09064Q421.26398 343.09064 422.07648 343.9344Q422.9046 344.7625 422.9046 346.2469Q422.9046 347.45 422.54523 348.1375Q422.18585 348.825 421.48273 349.21564Q420.79523 349.59064 419.98273 349.59064Q418.68585 349.59064 417.87335 348.7625Q417.07648 347.91876 417.07648 346.34064ZM418.1546 346.34064Q418.1546 347.52814 418.67023 348.1219Q419.20148 348.71564 419.98273 348.71564Q420.7796 348.71564 421.29523 348.1219Q421.81085 347.52814 421.81085 346.3094Q421.81085 345.15314 421.2796 344.5594Q420.76398 343.96564 419.98273 343.96564Q419.20148 343.96564 418.67023 344.5594Q418.1546 345.1375 418.1546 346.34064ZM424.4671 349.45L424.4671 343.23126L425.4046 343.23126L425.4046 344.10626Q426.0921 343.09064 427.38898 343.09064Q427.95148 343.09064 428.42023 343.29376Q428.9046 343.4969 429.13898 343.825Q429.37335 344.15314 429.4671 344.59064Q429.51398 344.8875 429.51398 345.6219L429.51398 349.45L428.4671 349.45L428.4671 345.66876Q428.4671 345.0125 428.3421 344.7Q428.2171 344.3875 427.9046 344.2Q427.5921 343.9969 427.17023 343.9969Q426.49835 343.9969 425.99835 344.4344Q425.51398 344.85626 425.51398 346.04376L425.51398 349.45L424.4671 349.45ZM436.76398 348.5125L436.92023 349.4344Q436.4671 349.52814 436.12335 349.52814Q435.54523 349.52814 435.23273 349.35626Q434.92023 349.16876 434.7796 348.8719Q434.6546 348.575 434.6546 347.6219L434.6546 344.04376L433.88898 344.04376L433.88898 343.23126L434.6546 343.23126L434.6546 341.6844L435.70148 341.0594L435.70148 343.23126L436.76398 343.23126L436.76398 344.04376L435.70148 344.04376L435.70148 347.6844Q435.70148 348.1375 435.74835 348.2625Q435.81085 348.3875 435.93585 348.46564Q436.06085 348.54376 436.29523 348.54376Q436.48273 348.54376 436.76398 348.5125ZM437.4671 349.45L437.4671 340.85626L438.51398 340.85626L438.51398 343.9344Q439.24835 343.09064 440.37335 343.09064Q441.07648 343.09064 441.57648 343.3719Q442.0921 343.6375 442.31085 344.1219Q442.5296 344.59064 442.5296 345.5125L442.5296 349.45L441.48273 349.45L441.48273 345.5125Q441.48273 344.71564 441.13898 344.35626Q440.79523 343.9969 440.17023 343.9969Q439.70148 343.9969 439.2796 344.2469Q438.87335 344.48126 438.68585 344.90314Q438.51398 345.3094 438.51398 346.04376L438.51398 349.45L437.4671 349.45ZM448.7171 347.45L449.81085 347.575Q449.56085 348.52814 448.85773 349.0594Q448.1546 349.59064 447.07648 349.59064Q445.7171 349.59064 444.9046 348.7469Q444.10773 347.90314 444.10773 346.3875Q444.10773 344.825 444.92023 343.96564Q445.73273 343.09064 447.01398 343.09064Q448.26398 343.09064 449.04523 343.9344Q449.8421 344.77814 449.8421 346.325Q449.8421 346.41876 449.8421 346.60626L445.20148 346.60626Q445.26398 347.6375 445.7796 348.1844Q446.29523 348.71564 447.07648 348.71564Q447.6546 348.71564 448.06085 348.41876Q448.48273 348.10626 448.7171 347.45ZM445.26398 345.7469L448.73273 345.7469Q448.67023 344.95 448.3421 344.5594Q447.82648 343.95 447.0296 343.95Q446.29523 343.95 445.79523 344.4344Q445.31085 344.91876 445.26398 345.7469ZM454.54523 349.45L454.54523 340.85626L457.7796 340.85626Q458.76398 340.85626 459.35773 341.1219Q459.95148 341.3875 460.2796 341.9344Q460.62335 342.46564 460.62335 343.0594Q460.62335 343.60626 460.32648 344.09064Q460.0296 344.575 459.42023 344.8719Q460.20148 345.10626 460.60773 345.66876Q461.0296 346.21564 461.0296 346.96564Q461.0296 347.5594 460.7796 348.09064Q460.5296 348.60626 460.1546 348.8875Q459.7796 349.16876 459.20148 349.3094Q458.63898 349.45 457.82648 349.45L454.54523 349.45ZM455.68585 344.46564L457.54523 344.46564Q458.29523 344.46564 458.62335 344.3719Q459.06085 344.2469 459.2796 343.95Q459.49835 343.6375 459.49835 343.1844Q459.49835 342.7625 459.29523 342.4344Q459.0921 342.10626 458.70148 341.9969Q458.32648 341.8719 457.4046 341.8719L455.68585 341.8719L455.68585 344.46564ZM455.68585 348.4344L457.82648 348.4344Q458.37335 348.4344 458.5921 348.3875Q458.99835 348.325 459.24835 348.16876Q459.51398 347.9969 459.68585 347.6844Q459.85773 347.3719 459.85773 346.96564Q459.85773 346.48126 459.60773 346.1219Q459.37335 345.7625 458.93585 345.6219Q458.49835 345.48126 457.67023 345.48126L455.68585 345.48126L455.68585 348.4344ZM462.07648 346.34064Q462.07648 344.60626 463.0296 343.77814Q463.82648 343.09064 464.98273 343.09064Q466.26398 343.09064 467.07648 343.9344Q467.9046 344.7625 467.9046 346.2469Q467.9046 347.45 467.54523 348.1375Q467.18585 348.825 466.48273 349.21564Q465.79523 349.59064 464.98273 349.59064Q463.68585 349.59064 462.87335 348.7625Q462.07648 347.91876 462.07648 346.34064ZM463.1546 346.34064Q463.1546 347.52814 463.67023 348.1219Q464.20148 348.71564 464.98273 348.71564Q465.7796 348.71564 466.29523 348.1219Q466.81085 347.52814 466.81085 346.3094Q466.81085 345.15314 466.2796 344.5594Q465.76398 343.96564 464.98273 343.96564Q464.20148 343.96564 463.67023 344.5594Q463.1546 345.1375 463.1546 346.34064ZM473.5296 348.6844Q472.93585 349.1844 472.38898 349.3875Q471.85773 349.59064 471.23273 349.59064Q470.20148 349.59064 469.6546 349.09064Q469.10773 348.59064 469.10773 347.8094Q469.10773 347.35626 469.31085 346.98126Q469.51398 346.59064 469.85773 346.3719Q470.20148 346.1375 470.62335 346.02814Q470.92023 345.9344 471.56085 345.85626Q472.82648 345.71564 473.43585 345.4969Q473.43585 345.27814 473.43585 345.23126Q473.43585 344.575 473.13898 344.3094Q472.73273 343.96564 471.93585 343.96564Q471.20148 343.96564 470.8421 344.23126Q470.48273 344.48126 470.31085 345.1375L469.2796 344.9969Q469.42023 344.34064 469.74835 343.9344Q470.07648 343.52814 470.68585 343.3094Q471.29523 343.09064 472.0921 343.09064Q472.88898 343.09064 473.38898 343.27814Q473.88898 343.46564 474.12335 343.7469Q474.35773 344.02814 474.45148 344.46564Q474.49835 344.73126 474.49835 345.4344L474.49835 346.84064Q474.49835 348.3094 474.56085 348.7Q474.63898 349.09064 474.8421 349.45L473.73273 349.45Q473.57648 349.1219 473.5296 348.6844ZM473.43585 346.325Q472.85773 346.5594 471.7171 346.73126Q471.06085 346.825 470.79523 346.95Q470.5296 347.0594 470.37335 347.27814Q470.23273 347.4969 470.23273 347.77814Q470.23273 348.2 470.54523 348.48126Q470.87335 348.7625 471.48273 348.7625Q472.0921 348.7625 472.56085 348.4969Q473.04523 348.23126 473.26398 347.7625Q473.43585 347.40314 473.43585 346.71564L473.43585 346.325ZM476.45148 349.45L476.45148 343.23126L477.4046 343.23126L477.4046 344.16876Q477.76398 343.5125 478.06085 343.3094Q478.37335 343.09064 478.74835 343.09064Q479.2796 343.09064 479.82648 343.41876L479.4671 344.40314Q479.07648 344.16876 478.70148 344.16876Q478.3421 344.16876 478.06085 344.3875Q477.79523 344.59064 477.68585 344.96564Q477.49835 345.52814 477.49835 346.1844L477.49835 349.45L476.45148 349.45ZM484.49835 349.45L484.49835 348.66876Q483.9046 349.59064 482.76398 349.59064Q482.01398 349.59064 481.38898 349.1844Q480.76398 348.7625 480.42023 348.02814Q480.07648 347.29376 480.07648 346.34064Q480.07648 345.41876 480.38898 344.65314Q480.70148 343.8875 481.32648 343.4969Q481.95148 343.09064 482.7171 343.09064Q483.2796 343.09064 483.7171 343.325Q484.1546 343.5594 484.43585 343.9344L484.43585 340.85626L485.48273 340.85626L485.48273 349.45L484.49835 349.45ZM481.17023 346.34064Q481.17023 347.54376 481.67023 348.1375Q482.17023 348.71564 482.85773 348.71564Q483.54523 348.71564 484.0296 348.15314Q484.51398 347.59064 484.51398 346.4344Q484.51398 345.15314 484.01398 344.5594Q483.5296 343.96564 482.81085 343.96564Q482.10773 343.96564 481.63898 344.54376Q481.17023 345.10626 481.17023 346.34064Z" fill-rule="nonzero"/><path fill="#75788d" d="M181.0 20.55C181.0 19.997715 181.44771 19.55 182.0 19.55L192.0 19.55C192.55229 19.55 193.0 19.997715 193.0 20.55L193.0 30.55C193.0 31.102285 192.55229 31.55 192.0 31.55L182.0 31.55C181.44771 31.55 181.0 31.102285 181.0 30.55Z" fill-rule="nonzero"/><path fill="#161828" d="M201.92188 29.55L201.92188 20.95625L205.17188 20.95625Q206.01562 20.95625 206.46875 21.034374Q207.10938 21.14375 207.53125 21.440624Q207.96875 21.7375 208.21875 22.26875Q208.48438 22.8 208.48438 23.440624Q208.48438 24.534374 207.78125 25.3Q207.09375 26.05 205.26562 26.05L203.0625 26.05L203.0625 29.55L201.92188 29.55ZM203.0625 25.05L205.28125 25.05Q206.39062 25.05 206.84375 24.64375Q207.3125 24.221874 207.3125 23.471874Q207.3125 22.940624 207.03125 22.565624Q206.76562 22.175 206.32812 22.05Q206.03125 21.971874 205.26562 21.971874L203.0625 21.971874L203.0625 25.05ZM209.78125 29.55L209.78125 23.33125L210.73438 23.33125L210.73438 24.26875Q211.09375 23.6125 211.39062 23.409374Q211.70312 23.190624 212.07812 23.190624Q212.60938 23.190624 213.15625 23.51875L212.79688 24.503124Q212.40625 24.26875 212.03125 24.26875Q211.67188 24.26875 211.39062 24.4875Q211.125 24.690624 211.01562 25.065624Q210.82812 25.628124 210.82812 26.284374L210.82812 29.55L209.78125 29.55ZM213.79688 22.175L213.79688 20.95625L214.85938 20.95625L214.85938 22.175L213.79688 22.175ZM213.79688 29.55L213.79688 23.33125L214.85938 23.33125L214.85938 29.55L213.79688 29.55ZM218.51562 29.55L216.15625 23.33125L217.26562 23.33125L218.60938 27.05Q218.8125 27.659374 219.0 28.3Q219.14062 27.815624 219.39062 27.128124L220.78125 23.33125L221.85938 23.33125L219.5 29.55L218.51562 29.55ZM225.85938 28.784374Q225.26562 29.284374 224.71875 29.4875Q224.1875 29.690624 223.5625 29.690624Q222.53125 29.690624 221.98438 29.190624Q221.4375 28.690624 221.4375 27.909374Q221.4375 27.45625 221.64062 27.08125Q221.84375 26.690624 222.1875 26.471874Q222.53125 26.2375 222.95312 26.128124Q223.25 26.034374 223.89062 25.95625Q225.15625 25.815624 225.76562 25.596874Q225.76562 25.378124 225.76562 25.33125Q225.76562 24.675 225.46875 24.409374Q225.0625 24.065624 224.26562 24.065624Q223.53125 24.065624 223.17188 24.33125Q222.8125 24.58125 222.64062 25.2375L221.60938 25.096874Q221.75 24.440624 222.07812 24.034374Q222.40625 23.628124 223.01562 23.409374Q223.625 23.190624 224.42188 23.190624Q225.21875 23.190624 225.71875 23.378124Q226.21875 23.565624 226.45312 23.846874Q226.6875 24.128124 226.78125 24.565624Q226.82812 24.83125 226.82812 25.534374L226.82812 26.940624Q226.82812 28.409374 226.89062 28.8Q226.96875 29.190624 227.17188 29.55L226.0625 29.55Q225.90625 29.221874 225.85938 28.784374ZM225.76562 26.425Q225.1875 26.659374 224.04688 26.83125Q223.39062 26.925 223.125 27.05Q222.85938 27.159374 222.70312 27.378124Q222.5625 27.596874 222.5625 27.878124Q222.5625 28.3 222.875 28.58125Q223.20312 28.8625 223.8125 28.8625Q224.42188 28.8625 224.89062 28.596874Q225.375 28.33125 225.59375 27.8625Q225.76562 27.503124 225.76562 26.815624L225.76562 26.425ZM231.09375 28.6125L231.25 29.534374Q230.79688 29.628124 230.45312 29.628124Q229.875 29.628124 229.5625 29.45625Q229.25 29.26875 229.10938 28.971874Q228.98438 28.675 228.98438 27.721874L228.98438 24.14375L228.21875 24.14375L228.21875 23.33125L228.98438 23.33125L228.98438 21.784374L230.03125 21.159374L230.03125 23.33125L231.09375 23.33125L231.09375 24.14375L230.03125 24.14375L230.03125 27.784374Q230.03125 28.2375 230.07812 28.3625Q230.14062 28.4875 230.26562 28.565624Q230.39062 28.64375 230.625 28.64375Q230.8125 28.64375 231.09375 28.6125ZM236.04688 27.55L237.14062 27.675Q236.89062 28.628124 236.1875 29.159374Q235.48438 29.690624 234.40625 29.690624Q233.04688 29.690624 232.23438 28.846874Q231.4375 28.003124 231.4375 26.4875Q231.4375 24.925 232.25 24.065624Q233.0625 23.190624 234.34375 23.190624Q235.59375 23.190624 236.375 24.034374Q237.17188 24.878124 237.17188 26.425Q237.17188 26.51875 237.17188 26.70625L232.53125 26.70625Q232.59375 27.7375 233.10938 28.284374Q233.625 28.815624 234.40625 28.815624Q234.98438 28.815624 235.39062 28.51875Q235.8125 28.20625 236.04688 27.55ZM232.59375 25.846874L236.0625 25.846874Q236.0 25.05 235.67188 24.659374Q235.15625 24.05 234.35938 24.05Q233.625 24.05 233.125 24.534374Q232.64062 25.01875 232.59375 25.846874ZM241.375 27.690624L242.40625 27.534374Q242.5 28.159374 242.89062 28.4875Q243.29688 28.815624 244.03125 28.815624Q244.75 28.815624 245.09375 28.534374Q245.45312 28.2375 245.45312 27.83125Q245.45312 27.471874 245.14062 27.26875Q244.92188 27.128124 244.0625 26.909374Q242.90625 26.6125 242.45312 26.409374Q242.01562 26.190624 241.78125 25.815624Q241.54688 25.440624 241.54688 24.971874Q241.54688 24.565624 241.73438 24.20625Q241.92188 23.846874 242.25 23.6125Q242.5 23.440624 242.92188 23.315624Q243.34375 23.190624 243.84375 23.190624Q244.5625 23.190624 245.10938 23.409374Q245.67188 23.6125 245.9375 23.971874Q246.20312 24.33125 246.29688 24.925L245.26562 25.065624Q245.20312 24.596874 244.85938 24.33125Q244.53125 24.05 243.90625 24.05Q243.1875 24.05 242.875 24.3Q242.5625 24.534374 242.5625 24.8625Q242.5625 25.065624 242.6875 25.221874Q242.82812 25.39375 243.09375 25.503124Q243.25 25.565624 244.03125 25.76875Q245.15625 26.08125 245.59375 26.26875Q246.03125 26.45625 246.28125 26.815624Q246.53125 27.175 246.53125 27.721874Q246.53125 28.253124 246.21875 28.721874Q245.92188 29.175 245.34375 29.440624Q244.76562 29.690624 244.03125 29.690624Q242.8125 29.690624 242.17188 29.190624Q241.54688 28.675 241.375 27.690624ZM253.04688 27.55L254.14062 27.675Q253.89062 28.628124 253.1875 29.159374Q252.48438 29.690624 251.40625 29.690624Q250.04688 29.690624 249.23438 28.846874Q248.4375 28.003124 248.4375 26.4875Q248.4375 24.925 249.25 24.065624Q250.0625 23.190624 251.34375 23.190624Q252.59375 23.190624 253.375 24.034374Q254.17188 24.878124 254.17188 26.425Q254.17188 26.51875 254.17188 26.70625L249.53125 26.70625Q249.59375 27.7375 250.10938 28.284374Q250.625 28.815624 251.40625 28.815624Q251.98438 28.815624 252.39062 28.51875Q252.8125 28.20625 253.04688 27.55ZM249.59375 25.846874L253.0625 25.846874Q253.0 25.05 252.67188 24.659374Q252.15625 24.05 251.35938 24.05Q250.625 24.05 250.125 24.534374Q249.64062 25.01875 249.59375 25.846874ZM259.85938 27.26875L260.89062 27.409374Q260.71875 28.471874 260.01562 29.08125Q259.3125 29.690624 258.29688 29.690624Q257.01562 29.690624 256.23438 28.8625Q255.46875 28.01875 255.46875 26.45625Q255.46875 25.45625 255.79688 24.70625Q256.14062 23.940624 256.8125 23.565624Q257.5 23.190624 258.3125 23.190624Q259.3125 23.190624 259.95312 23.70625Q260.60938 24.20625 260.79688 25.159374L259.76562 25.315624Q259.625 24.690624 259.25 24.378124Q258.875 24.05 258.34375 24.05Q257.54688 24.05 257.04688 24.628124Q256.54688 25.190624 256.54688 26.425Q256.54688 27.690624 257.03125 28.253124Q257.51562 28.815624 258.28125 28.815624Q258.90625 28.815624 259.3125 28.440624Q259.73438 28.065624 259.85938 27.26875ZM264.09375 28.6125L264.25 29.534374Q263.79688 29.628124 263.45312 29.628124Q262.875 29.628124 262.5625 29.45625Q262.25 29.26875 262.10938 28.971874Q261.98438 28.675 261.98438 27.721874L261.98438 24.14375L261.21875 24.14375L261.21875 23.33125L261.98438 23.33125L261.98438 21.784374L263.03125 21.159374L263.03125 23.33125L264.09375 23.33125L264.09375 24.14375L263.03125 24.14375L263.03125 27.784374Q263.03125 28.2375 263.07812 28.3625Q263.14062 28.4875 263.26562 28.565624Q263.39062 28.64375 263.625 28.64375Q263.8125 28.64375 264.09375 28.6125ZM264.40625 26.440624Q264.40625 24.70625 265.35938 23.878124Q266.15625 23.190624 267.3125 23.190624Q268.59375 23.190624 269.40625 24.034374Q270.23438 24.8625 270.23438 26.346874Q270.23438 27.55 269.875 28.2375Q269.51562 28.925 268.8125 29.315624Q268.125 29.690624 267.3125 29.690624Q266.01562 29.690624 265.20312 28.8625Q264.40625 28.01875 264.40625 26.440624ZM265.48438 26.440624Q265.48438 27.628124 266.0 28.221874Q266.53125 28.815624 267.3125 28.815624Q268.10938 28.815624 268.625 28.221874Q269.14062 27.628124 269.14062 26.409374Q269.14062 25.253124 268.60938 24.659374Q268.09375 24.065624 267.3125 24.065624Q266.53125 24.065624 266.0 24.659374Q265.48438 25.2375 265.48438 26.440624ZM271.78125 29.55L271.78125 23.33125L272.73438 23.33125L272.73438 24.26875Q273.09375 23.6125 273.39062 23.409374Q273.70312 23.190624 274.07812 23.190624Q274.60938 23.190624 275.15625 23.51875L274.79688 24.503124Q274.40625 24.26875 274.03125 24.26875Q273.67188 24.26875 273.39062 24.4875Q273.125 24.690624 273.01562 25.065624Q272.82812 25.628124 272.82812 26.284374L272.82812 29.55L271.78125 29.55Z" fill-rule="nonzero"/><path fill="#ff5c5c" d="M291.0 20.55C291.0 19.997715 291.44772 19.55 292.0 19.55L302.0 19.55C302.55228 19.55 303.0 19.997715 303.0 20.55L303.0 30.55C303.0 31.102285 302.55228 31.55 302.0 31.55L292.0 31.55C291.44772 31.55 291.0 31.102285 291.0 30.55Z" fill-rule="nonzero"/><path fill="#161828" d="M311.92188 29.55L311.92188 20.95625L315.17188 20.95625Q316.01562 20.95625 316.46875 21.034374Q317.10938 21.14375 317.53125 21.440624Q317.96875 21.7375 318.21875 22.26875Q318.48438 22.8 318.48438 23.440624Q318.48438 24.534374 317.78125 25.3Q317.09375 26.05 315.26562 26.05L313.0625 26.05L313.0625 29.55L311.92188 29.55ZM313.0625 25.05L315.28125 25.05Q316.39062 25.05 316.84375 24.64375Q317.3125 24.221874 317.3125 23.471874Q317.3125 22.940624 317.03125 22.565624Q316.76562 22.175 316.32812 22.05Q316.03125 21.971874 315.26562 21.971874L313.0625 21.971874L313.0625 25.05ZM319.78125 29.55L319.78125 23.33125L320.73438 23.33125L320.73438 24.26875Q321.09375 23.6125 321.39062 23.409374Q321.70312 23.190624 322.07812 23.190624Q322.60938 23.190624 323.15625 23.51875L322.79688 24.503124Q322.40625 24.26875 322.03125 24.26875Q321.67188 24.26875 321.39062 24.4875Q321.125 24.690624 321.01562 25.065624Q320.82812 25.628124 320.82812 26.284374L320.82812 29.55L319.78125 29.55ZM323.79688 22.175L323.79688 20.95625L324.85938 20.95625L324.85938 22.175L323.79688 22.175ZM323.79688 29.55L323.79688 23.33125L324.85938 23.33125L324.85938 29.55L323.79688 29.55ZM328.51562 29.55L326.15625 23.33125L327.26562 23.33125L328.60938 27.05Q328.8125 27.659374 329.0 28.3Q329.14062 27.815624 329.39062 27.128124L330.78125 23.33125L331.85938 23.33125L329.5 29.55L328.51562 29.55ZM335.85938 28.784374Q335.26562 29.284374 334.71875 29.4875Q334.1875 29.690624 333.5625 29.690624Q332.53125 29.690624 331.98438 29.190624Q331.4375 28.690624 331.4375 27.909374Q331.4375 27.45625 331.64062 27.08125Q331.84375 26.690624 332.1875 26.471874Q332.53125 26.2375 332.95312 26.128124Q333.25 26.034374 333.89062 25.95625Q335.15625 25.815624 335.76562 25.596874Q335.76562 25.378124 335.76562 25.33125Q335.76562 24.675 335.46875 24.409374Q335.0625 24.065624 334.26562 24.065624Q333.53125 24.065624 333.17188 24.33125Q332.8125 24.58125 332.64062 25.2375L331.60938 25.096874Q331.75 24.440624 332.07812 24.034374Q332.40625 23.628124 333.01562 23.409374Q333.625 23.190624 334.42188 23.190624Q335.21875 23.190624 335.71875 23.378124Q336.21875 23.565624 336.45312 23.846874Q336.6875 24.128124 336.78125 24.565624Q336.82812 24.83125 336.82812 25.534374L336.82812 26.940624Q336.82812 28.409374 336.89062 28.8Q336.96875 29.190624 337.17188 29.55L336.0625 29.55Q335.90625 29.221874 335.85938 28.784374ZM335.76562 26.425Q335.1875 26.659374 334.04688 26.83125Q333.39062 26.925 333.125 27.05Q332.85938 27.159374 332.70312 27.378124Q332.5625 27.596874 332.5625 27.878124Q332.5625 28.3 332.875 28.58125Q333.20312 28.8625 333.8125 28.8625Q334.42188 28.8625 334.89062 28.596874Q335.375 28.33125 335.59375 27.8625Q335.76562 27.503124 335.76562 26.815624L335.76562 26.425ZM341.09375 28.6125L341.25 29.534374Q340.79688 29.628124 340.45312 29.628124Q339.875 29.628124 339.5625 29.45625Q339.25 29.26875 339.10938 28.971874Q338.98438 28.675 338.98438 27.721874L338.98438 24.14375L338.21875 24.14375L338.21875 23.33125L338.98438 23.33125L338.98438 21.784374L340.03125 21.159374L340.03125 23.33125L341.09375 23.33125L341.09375 24.14375L340.03125 24.14375L340.03125 27.784374Q340.03125 28.2375 340.07812 28.3625Q340.14062 28.4875 340.26562 28.565624Q340.39062 28.64375 340.625 28.64375Q340.8125 28.64375 341.09375 28.6125ZM346.04688 27.55L347.14062 27.675Q346.89062 28.628124 346.1875 29.159374Q345.48438 29.690624 344.40625 29.690624Q343.04688 29.690624 342.23438 28.846874Q341.4375 28.003124 341.4375 26.4875Q341.4375 24.925 342.25 24.065624Q343.0625 23.190624 344.34375 23.190624Q345.59375 23.190624 346.375 24.034374Q347.17188 24.878124 347.17188 26.425Q347.17188 26.51875 347.17188 26.70625L342.53125 26.70625Q342.59375 27.7375 343.10938 28.284374Q343.625 28.815624 344.40625 28.815624Q344.98438 28.815624 345.39062 28.51875Q345.8125 28.20625 346.04688 27.55ZM342.59375 25.846874L346.0625 25.846874Q346.0 25.05 345.67188 24.659374Q345.15625 24.05 344.35938 24.05Q343.625 24.05 343.125 24.534374Q342.64062 25.01875 342.59375 25.846874ZM351.375 27.690624L352.40625 27.534374Q352.5 28.159374 352.89062 28.4875Q353.29688 28.815624 354.03125 28.815624Q354.75 28.815624 355.09375 28.534374Q355.45312 28.2375 355.45312 27.83125Q355.45312 27.471874 355.14062 27.26875Q354.92188 27.128124 354.0625 26.909374Q352.90625 26.6125 352.45312 26.409374Q352.01562 26.190624 351.78125 25.815624Q351.54688 25.440624 351.54688 24.971874Q351.54688 24.565624 351.73438 24.20625Q351.92188 23.846874 352.25 23.6125Q352.5 23.440624 352.92188 23.315624Q353.34375 23.190624 353.84375 23.190624Q354.5625 23.190624 355.10938 23.409374Q355.67188 23.6125 355.9375 23.971874Q356.20312 24.33125 356.29688 24.925L355.26562 25.065624Q355.20312 24.596874 354.85938 24.33125Q354.53125 24.05 353.90625 24.05Q353.1875 24.05 352.875 24.3Q352.5625 24.534374 352.5625 24.8625Q352.5625 25.065624 352.6875 25.221874Q352.82812 25.39375 353.09375 25.503124Q353.25 25.565624 354.03125 25.76875Q355.15625 26.08125 355.59375 26.26875Q356.03125 26.45625 356.28125 26.815624Q356.53125 27.175 356.53125 27.721874Q356.53125 28.253124 356.21875 28.721874Q355.92188 29.175 355.34375 29.440624Q354.76562 29.690624 354.03125 29.690624Q352.8125 29.690624 352.17188 29.190624Q351.54688 28.675 351.375 27.690624ZM363.04688 27.55L364.14062 27.675Q363.89062 28.628124 363.1875 29.159374Q362.48438 29.690624 361.40625 29.690624Q360.04688 29.690624 359.23438 28.846874Q358.4375 28.003124 358.4375 26.4875Q358.4375 24.925 359.25 24.065624Q360.0625 23.190624 361.34375 23.190624Q362.59375 23.190624 363.375 24.034374Q364.17188 24.878124 364.17188 26.425Q364.17188 26.51875 364.17188 26.70625L359.53125 26.70625Q359.59375 27.7375 360.10938 28.284374Q360.625 28.815624 361.40625 28.815624Q361.98438 28.815624 362.39062 28.51875Q362.8125 28.20625 363.04688 27.55ZM359.59375 25.846874L363.0625 25.846874Q363.0 25.05 362.67188 24.659374Q362.15625 24.05 361.35938 24.05Q360.625 24.05 360.125 24.534374Q359.64062 25.01875 359.59375 25.846874ZM369.85938 27.26875L370.89062 27.409374Q370.71875 28.471874 370.01562 29.08125Q369.3125 29.690624 368.29688 29.690624Q367.01562 29.690624 366.23438 28.8625Q365.46875 28.01875 365.46875 26.45625Q365.46875 25.45625 365.79688 24.70625Q366.14062 23.940624 366.8125 23.565624Q367.5 23.190624 368.3125 23.190624Q369.3125 23.190624 369.95312 23.70625Q370.60938 24.20625 370.79688 25.159374L369.76562 25.315624Q369.625 24.690624 369.25 24.378124Q368.875 24.05 368.34375 24.05Q367.54688 24.05 367.04688 24.628124Q366.54688 25.190624 366.54688 26.425Q366.54688 27.690624 367.03125 28.253124Q367.51562 28.815624 368.28125 28.815624Q368.90625 28.815624 369.3125 28.440624Q369.73438 28.065624 369.85938 27.26875ZM374.09375 28.6125L374.25 29.534374Q373.79688 29.628124 373.45312 29.628124Q372.875 29.628124 372.5625 29.45625Q372.25 29.26875 372.10938 28.971874Q371.98438 28.675 371.98438 27.721874L371.98438 24.14375L371.21875 24.14375L371.21875 23.33125L371.98438 23.33125L371.98438 21.784374L373.03125 21.159374L373.03125 23.33125L374.09375 23.33125L374.09375 24.14375L373.03125 24.14375L373.03125 27.784374Q373.03125 28.2375 373.07812 28.3625Q373.14062 28.4875 373.26562 28.565624Q373.39062 28.64375 373.625 28.64375Q373.8125 28.64375 374.09375 28.6125ZM374.40625 26.440624Q374.40625 24.70625 375.35938 23.878124Q376.15625 23.190624 377.3125 23.190624Q378.59375 23.190624 379.40625 24.034374Q380.23438 24.8625 380.23438 26.346874Q380.23438 27.55 379.875 28.2375Q379.51562 28.925 378.8125 29.315624Q378.125 29.690624 377.3125 29.690624Q376.01562 29.690624 375.20312 28.8625Q374.40625 28.01875 374.40625 26.440624ZM375.48438 26.440624Q375.48438 27.628124 376.0 28.221874Q376.53125 28.815624 377.3125 28.815624Q378.10938 28.815624 378.625 28.221874Q379.14062 27.628124 379.14062 26.409374Q379.14062 25.253124 378.60938 24.659374Q378.09375 24.065624 377.3125 24.065624Q376.53125 24.065624 376.0 24.659374Q375.48438 25.2375 375.48438 26.440624ZM381.78125 29.55L381.78125 23.33125L382.73438 23.33125L382.73438 24.26875Q383.09375 23.6125 383.39062 23.409374Q383.70312 23.190624 384.07812 23.190624Q384.60938 23.190624 385.15625 23.51875L384.79688 24.503124Q384.40625 24.26875 384.03125 24.26875Q383.67188 24.26875 383.39062 24.4875Q383.125 24.690624 383.01562 25.065624Q382.82812 25.628124 382.82812 26.284374L382.82812 29.55L381.78125 29.55ZM390.8125 32.08125Q389.9375 30.971874 389.32812 29.503124Q388.73438 28.01875 388.73438 26.440624Q388.73438 25.05 389.17188 23.76875Q389.70312 22.284374 390.8125 20.815624L391.5625 20.815624Q390.85938 22.034374 390.625 22.55Q390.26562 23.3625 390.0625 24.2375Q389.8125 25.33125 389.8125 26.440624Q389.8125 29.26875 391.5625 32.08125L390.8125 32.08125ZM395.09375 28.6125L395.25 29.534374Q394.79688 29.628124 394.45312 29.628124Q393.875 29.628124 393.5625 29.45625Q393.25 29.26875 393.10938 28.971874Q392.98438 28.675 392.98438 27.721874L392.98438 24.14375L392.21875 24.14375L392.21875 23.33125L392.98438 23.33125L392.98438 21.784374L394.03125 21.159374L394.03125 23.33125L395.09375 23.33125L395.09375 24.14375L394.03125 24.14375L394.03125 27.784374Q394.03125 28.2375 394.07812 28.3625Q394.14062 28.4875 394.26562 28.565624Q394.39062 28.64375 394.625 28.64375Q394.8125 28.64375 395.09375 28.6125ZM400.04688 27.55L401.14062 27.675Q400.89062 28.628124 400.1875 29.159374Q399.48438 29.690624 398.40625 29.690624Q397.04688 29.690624 396.23438 28.846874Q395.4375 28.003124 395.4375 26.4875Q395.4375 24.925 396.25 24.065624Q397.0625 23.190624 398.34375 23.190624Q399.59375 23.190624 400.375 24.034374Q401.17188 24.878124 401.17188 26.425Q401.17188 26.51875 401.17188 26.70625L396.53125 26.70625Q396.59375 27.7375 397.10938 28.284374Q397.625 28.815624 398.40625 28.815624Q398.98438 28.815624 399.39062 28.51875Q399.8125 28.20625 400.04688 27.55ZM396.59375 25.846874L400.0625 25.846874Q400.0 25.05 399.67188 24.659374Q399.15625 24.05 398.35938 24.05Q397.625 24.05 397.125 24.534374Q396.64062 25.01875 396.59375 25.846874ZM406.85938 27.26875L407.89062 27.409374Q407.71875 28.471874 407.01562 29.08125Q406.3125 29.690624 405.29688 29.690624Q404.01562 29.690624 403.23438 28.8625Q402.46875 28.01875 402.46875 26.45625Q402.46875 25.45625 402.79688 24.70625Q403.14062 23.940624 403.8125 23.565624Q404.5 23.190624 405.3125 23.190624Q406.3125 23.190624 406.95312 23.70625Q407.60938 24.20625 407.79688 25.159374L406.76562 25.315624Q406.625 24.690624 406.25 24.378124Q405.875 24.05 405.34375 24.05Q404.54688 24.05 404.04688 24.628124Q403.54688 25.190624 403.54688 26.425Q403.54688 27.690624 404.03125 28.253124Q404.51562 28.815624 405.28125 28.815624Q405.90625 28.815624 406.3125 28.440624Q406.73438 28.065624 406.85938 27.26875ZM408.79688 29.55L408.79688 20.95625L409.84375 20.95625L409.84375 24.034374Q410.57812 23.190624 411.70312 23.190624Q412.40625 23.190624 412.90625 23.471874Q413.42188 23.7375 413.64062 24.221874Q413.85938 24.690624 413.85938 25.6125L413.85938 29.55L412.8125 29.55L412.8125 25.6125Q412.8125 24.815624 412.46875 24.45625Q412.125 24.096874 411.5 24.096874Q411.03125 24.096874 410.60938 24.346874Q410.20312 24.58125 410.01562 25.003124Q409.84375 25.409374 409.84375 26.14375L409.84375 29.55L408.79688 29.55ZM416.48438 32.08125L415.73438 32.08125Q417.48438 29.26875 417.48438 26.440624Q417.48438 25.346874 417.23438 24.253124Q417.03125 23.378124 416.67188 22.565624Q416.4375 22.05 415.73438 20.815624L416.48438 20.815624Q417.57812 22.284374 418.10938 23.76875Q418.5625 25.05 418.5625 26.440624Q418.5625 28.01875 417.95312 29.503124Q417.34375 30.971874 416.48438 32.08125Z" fill-rule="nonzero"/></svg>