<svg version="1.1" viewBox="0.0 0.0 600.0 371.0" fill="none" stroke="none" stroke-linecap="square" stroke-miterlimit="10" width="600" height="371" xmlns:xlink="http://www.w3.org/1999/xlink" xmlns="http://www.w3.org/2000/svg"><path fill="#ffffff" d="M0 0L600.0 0L600.0 371.0L0 371.0L0 0Z" fill-rule="nonzero"/><path stroke="#cccccc" stroke-width="1.0" stroke-linecap="butt" d="M62.5 51.5L62.5 332.5" fill-rule="nonzero"/><path stroke="#cccccc" stroke-width="1.0" stroke-linecap="butt" d="M166.5 51.5L166.5 332.5" fill-rule="nonzero"/><path stroke="#cccccc" stroke-width="1.0" stroke-linecap="butt" d="M270.5 51.5L270.5 332.5" fill-rule="nonzero"/><path stroke="#cccccc" stroke-width="1.0" stroke-linecap="butt" d="M373.5 51.5L373.5 332.5" fill-rule="nonzero"/><path stroke="#cccccc" stroke-width="1.0" stroke-linecap="butt" d="M477.5 51.5L477.5 332.5" fill-rule="nonzero"/><path stroke="#cccccc" stroke-width="1.0" stroke-linecap="butt" d="M581.5 51.5L581.5 332.5" fill-rule="nonzero"/><path stroke="#cccccc" stroke-width="1.0" stroke-linecap="butt" d="M62.5 332.5L581.5 332.5" fill-rule="nonzero"/><path stroke="#cccccc" stroke-width="1.0" stroke-linecap="butt" d="M62.5 262.5L581.5 262.5" fill-rule="nonzero"/><path stroke="#cccccc" stroke-width="1.0" stroke-linecap="butt" d="M62.5 192.5L581.5 192.5" fill-rule="nonzero"/><path stroke="#cccccc" stroke-width="1.0" stroke-linecap="butt" d="M62.5 122.5L581.5 122.5" fill-rule="nonzero"/><path stroke="#cccccc" stroke-width="1.0" stroke-linecap="butt" d="M62.5 51.5L581.5 51.5" fill-rule="nonzero"/><clipPath id="id_0"><path d="M62.55 51.916668L581.45 51.916668L581.45 332.45L62.55 332.45L62.55 51.916668Z" clip-rule="nonzero"/></clipPath><path stroke="#e3e3f4" stroke-width="2.0" stroke-linecap="butt" clip-path="url(#id_0)" d="M62.55 216.73L166.33 202.70334L270.11 181.66333L373.89 143.09L477.67 101.01L581.45 62.43667" fill-rule="nonzero"/><path stroke="#6ac86f" stroke-width="2.0" stroke-linecap="butt" clip-path="url(#id_0)" d="M62.55 304.39667L166.33 286.86334L270.11 262.31668L373.89 223.74333L477.67 192.18333L581.45 157.11667" fill-rule="nonzero"/><path stroke="#75788d" stroke-width="2.0" stroke-linecap="butt" clip-path="url(#id_0)" d="M62.55 234.26334L166.33 220.23666L270.11 199.19667L373.89 164.13L477.67 122.05L581.45 86.98333" fill-rule="nonzero"/><path fill="#000000" fill-opacity="0.0" clip-path="url(#id_0)" d="M65.55 216.73C65.55 218.38686 64.206856 219.73 62.55 219.73C60.893147 219.73 59.55 218.38686 59.55 216.73C59.55 215.07315 60.893147 213.73 62.55 213.73C64.206856 213.73 65.55 215.07315 65.55 216.73Z" fill-rule="nonzero"/><path fill="#000000" fill-opacity="0.0" clip-path="url(#id_0)" d="M169.33 202.70334C169.33 204.36018 167.98685 205.70334 166.33 205.70334C164.67314 205.70334 163.33 204.36018 163.33 202.70334C163.33 201.04648 164.67314 199.70334 166.33 199.70334C167.98685 199.70334 169.33 201.04648 169.33 202.70334Z" fill-rule="nonzero"/><path fill="#000000" fill-opacity="0.0" clip-path="url(#id_0)" d="M273.11 181.66333C273.11 183.32019 271.76685 184.66333 270.11 184.66333C268.45316 184.66333 267.11 183.32019 267.11 181.66333C267.11 180.00648 268.45316 178.66333 270.11 178.66333C271.76685 178.66333 273.11 180.00648 273.11 181.66333Z" fill-rule="nonzero"/><path fill="#000000" fill-opacity="0.0" clip-path="url(#id_0)" d="M376.89 143.09C376.89 144.74686 375.54684 146.09 373.89 146.09C372.23315 146.09 370.89 144.74686 370.89 143.09C370.89 141.43315 372.23315 140.09 373.89 140.09C375.54684 140.09 376.89 141.43315 376.89 143.09Z" fill-rule="nonzero"/><path fill="#000000" fill-opacity="0.0" clip-path="url(#id_0)" d="M480.67 101.01C480.67 102.666855 479.32684 104.01 477.67 104.01C476.01315 104.01 474.67 102.666855 474.67 101.01C474.67 99.35315 476.01315 98.01 477.67 98.01C479.32684 98.01 480.67 99.35315 480.67 101.01Z" fill-rule="nonzero"/><path fill="#000000" fill-opacity="0.0" clip-path="url(#id_0)" d="M584.45 62.43667C584.45 64.09352 583.1069 65.43667 581.45 65.43667C579.79315 65.43667 578.45 64.09352 578.45 62.43667C578.45 60.77981 579.79315 59.43667 581.45 59.43667C583.1069 59.43667 584.45 60.77981 584.45 62.43667Z" fill-rule="nonzero"/><path fill="#000000" fill-opacity="0.0" clip-path="url(#id_0)" d="M65.55 304.39667C65.55 306.05353 64.206856 307.39667 62.55 307.39667C60.893147 307.39667 59.55 306.05353 59.55 304.39667C59.55 302.7398 60.893147 301.39667 62.55 301.39667C64.206856 301.39667 65.55 302.7398 65.55 304.39667Z" fill-rule="nonzero"/><path fill="#000000" fill-opacity="0.0" clip-path="url(#id_0)" d="M169.33 286.86334C169.33 288.5202 167.98685 289.86334 166.33 289.86334C164.67314 289.86334 163.33 288.5202 163.33 286.86334C163.33 285.20648 164.67314 283.86334 166.33 283.86334C167.98685 283.86334 169.33 285.20648 169.33 286.86334Z" fill-rule="nonzero"/><path fill="#000000" fill-opacity="0.0" clip-path="url(#id_0)" d="M273.11 262.31668C273.11 263.9735 271.76685 265.31668 270.11 265.31668C268.45316 265.31668 267.11 263.9735 267.11 262.31668C267.11 260.65982 268.45316 259.31668 270.11 259.31668C271.76685 259.31668 273.11 260.65982 273.11 262.31668Z" fill-rule="nonzero"/><path fill="#000000" fill-opacity="0.0" clip-path="url(#id_0)" d="M376.89 223.74333C376.89 225.40019 375.54684 226.74333 373.89 226.74333C372.23315 226.74333 370.89 225.40019 370.89 223.74333C370.89 222.08647 372.23315 220.74333 373.89 220.74333C375.54684 220.74333 376.89 222.08647 376.89 223.74333Z" fill-rule="nonzero"/><path fill="#000000" fill-opacity="0.0" clip-path="url(#id_0)" d="M480.67 192.18333C480.67 193.8402 479.32684 195.18333 477.67 195.18333C476.01315 195.18333 474.67 193.8402 474.67 192.18333C474.67 190.52647 476.01315 189.18333 477.67 189.18333C479.32684 189.18333 480.67 190.52647 480.67 192.18333Z" fill-rule="nonzero"/><path fill="#000000" fill-opacity="0.0" clip-path="url(#id_0)" d="M584.45 157.11667C584.45 158.77351 583.1069 160.11667 581.45 160.11667C579.79315 160.11667 578.45 158.77351 578.45 157.11667C578.45 155.45981 579.79315 154.11667 581.45 154.11667C583.1069 154.11667 584.45 155.45981 584.45 157.11667Z" fill-rule="nonzero"/><path fill="#000000" fill-opacity="0.0" clip-path="url(#id_0)" d="M65.55 234.26334C65.55 235.92018 64.206856 237.26334 62.55 237.26334C60.893147 237.26334 59.55 235.92018 59.55 234.26334C59.55 232.60648 60.893147 231.26334 62.55 231.26334C64.206856 231.26334 65.55 232.60648 65.55 234.26334Z" fill-rule="nonzero"/><path fill="#000000" fill-opacity="0.0" clip-path="url(#id_0)" d="M169.33 220.23666C169.33 221.89352 167.98685 223.23666 166.33 223.23666C164.67314 223.23666 163.33 221.89352 163.33 220.23666C163.33 218.57982 164.67314 217.23666 166.33 217.23666C167.98685 217.23666 169.33 218.57982 169.33 220.23666Z" fill-rule="nonzero"/><path fill="#000000" fill-opacity="0.0" clip-path="url(#id_0)" d="M273.11 199.19667C273.11 200.85352 271.76685 202.19667 270.11 202.19667C268.45316 202.19667 267.11 200.85352 267.11 199.19667C267.11 197.53981 268.45316 196.19667 270.11 196.19667C271.76685 196.19667 273.11 197.53981 273.11 199.19667Z" fill-rule="nonzero"/><path fill="#000000" fill-opacity="0.0" clip-path="url(#id_0)" d="M376.89 164.13C376.89 165.78685 375.54684 167.13 373.89 167.13C372.23315 167.13 370.89 165.78685 370.89 164.13C370.89 162.47314 372.23315 161.13 373.89 161.13C375.54684 161.13 376.89 162.47314 376.89 164.13Z" fill-rule="nonzero"/><path fill="#000000" fill-opacity="0.0" clip-path="url(#id_0)" d="M480.67 122.05C480.67 123.706856 479.32684 125.05 477.67 125.05C476.01315 125.05 474.67 123.706856 474.67 122.05C474.67 120.39314 476.01315 119.05 477.67 119.05C479.32684 119.05 480.67 120.39314 480.67 122.05Z" fill-rule="nonzero"/><path fill="#000000" fill-opacity="0.0" clip-path="url(#id_0)" d="M584.45 86.98333C584.45 88.64019 583.1069 89.98333 581.45 89.98333C579.79315 89.98333 578.45 88.64019 578.45 86.98333C578.45 85.32648 579.79315 83.98333 581.45 83.98333C583.1069 83.98333 584.45 85.32648 584.45 86.98333Z" fill-rule="nonzero"/><path fill="#161828" d="M22.425 336.45L22.425 334.3875L18.70625 334.3875L18.70625 333.41876L22.628124 327.85626L23.4875 327.85626L23.4875 333.41876L24.64375 333.41876L24.64375 334.3875L23.4875 334.3875L23.4875 336.45L22.425 336.45ZM22.425 333.41876L22.425 329.5594L19.7375 333.41876L22.425 333.41876ZM26.05 332.21564Q26.05 330.6844 26.3625 329.7625Q26.675 328.825 27.284374 328.325Q27.909374 327.825 28.846874 327.825Q29.534374 327.825 30.05 328.10626Q30.58125 328.3875 30.925 328.91876Q31.26875 329.4344 31.45625 330.1844Q31.64375 330.9344 31.64375 332.21564Q31.64375 333.73126 31.33125 334.65314Q31.034374 335.575 30.409374 336.09064Q29.8 336.59064 28.846874 336.59064Q27.6125 336.59064 26.89375 335.7Q26.05 334.6375 26.05 332.21564ZM27.128124 332.21564Q27.128124 334.325 27.628124 335.02814Q28.128124 335.73126 28.846874 335.73126Q29.58125 335.73126 30.065624 335.02814Q30.565624 334.325 30.565624 332.21564Q30.565624 330.09064 30.065624 329.40314Q29.58125 328.7 28.83125 328.7Q28.1125 328.7 27.675 329.3094Q27.128124 330.09064 27.128124 332.21564ZM33.6125 336.45L33.6125 335.2469L34.815624 335.2469L34.815624 336.45Q34.815624 337.10626 34.58125 337.5125Q34.346874 337.9344 33.846874 338.15314L33.55 337.7Q33.878124 337.5594 34.034374 337.2625Q34.190624 336.98126 34.221874 336.45L33.6125 336.45ZM36.05 332.21564Q36.05 330.6844 36.3625 329.7625Q36.675 328.825 37.284374 328.325Q37.909374 327.825 38.846874 327.825Q39.534374 327.825 40.05 328.10626Q40.58125 328.3875 40.925 328.91876Q41.26875 329.4344 41.45625 330.1844Q41.64375 330.9344 41.64375 332.21564Q41.64375 333.73126 41.33125 334.65314Q41.034374 335.575 40.409374 336.09064Q39.8 336.59064 38.846874 336.59064Q37.6125 336.59064 36.89375 335.7Q36.05 334.6375 36.05 332.21564ZM37.128124 332.21564Q37.128124 334.325 37.628124 335.02814Q38.128124 335.73126 38.846874 335.73126Q39.58125 335.73126 40.065624 335.02814Q40.565624 334.325 40.565624 332.21564Q40.565624 330.09064 40.065624 329.40314Q39.58125 328.7 38.83125 328.7Q38.1125 328.7 37.675 329.3094Q37.128124 330.09064 37.128124 332.21564ZM43.05 332.21564Q43.05 330.6844 43.3625 329.7625Q43.675 328.825 44.284374 328.325Q44.909374 327.825 45.846874 327.825Q46.534374 327.825 47.05 328.10626Q47.58125 328.3875 47.925 328.91876Q48.26875 329.4344 48.45625 330.1844Q48.64375 330.9344 48.64375 332.21564Q48.64375 333.73126 48.33125 334.65314Q48.034374 335.575 47.409374 336.09064Q46.8 336.59064 45.846874 336.59064Q44.6125 336.59064 43.89375 335.7Q43.05 334.6375 43.05 332.21564ZM44.128124 332.21564Q44.128124 334.325 44.628124 335.02814Q45.128124 335.73126 45.846874 335.73126Q46.58125 335.73126 47.065624 335.02814Q47.565624 334.325 47.565624 332.21564Q47.565624 330.09064 47.065624 329.40314Q46.58125 328.7 45.83125 328.7Q45.1125 328.7 44.675 329.3094Q44.128124 330.09064 44.128124 332.21564ZM50.05 332.21564Q50.05 330.6844 50.3625 329.7625Q50.675 328.825 51.284374 328.325Q51.909374 327.825 52.846874 327.825Q53.534374 327.825 54.05 328.10626Q54.58125 328.3875 54.925 328.91876Q55.26875 329.4344 55.45625 330.1844Q55.64375 330.9344 55.64375 332.21564Q55.64375 333.73126 55.33125 334.65314Q55.034374 335.575 54.409374 336.09064Q53.8 336.59064 52.846874 336.59064Q51.6125 336.59064 50.89375 335.7Q50.05 334.6375 50.05 332.21564ZM51.128124 332.21564Q51.128124 334.325 51.628124 335.02814Q52.128124 335.73126 52.846874 335.73126Q53.58125 335.73126 54.065624 335.02814Q54.565624 334.325 54.565624 332.21564Q54.565624 330.09064 54.065624 329.40314Q53.58125 328.7 52.83125 328.7Q52.1125 328.7 51.675 329.3094Q51.128124 330.09064 51.128124 332.21564Z" fill-rule="nonzero"/><path fill="#161828" d="M22.425 266.31668L22.425 264.25418L18.70625 264.25418L18.70625 263.28543L22.628124 257.72293L23.4875 257.72293L23.4875 263.28543L24.64375 263.28543L24.64375 264.25418L23.4875 264.25418L23.4875 266.31668L22.425 266.31668ZM22.425 263.28543L22.425 259.42606L19.7375 263.28543L22.425 263.28543ZM31.596874 265.30106L31.596874 266.31668L25.909374 266.31668Q25.909374 265.94168 26.034374 265.5823Q26.253124 265.00418 26.721874 264.44168Q27.20625 263.87918 28.1125 263.1448Q29.51875 261.98856 30.003124 261.31668Q30.503124 260.6448 30.503124 260.05106Q30.503124 259.42606 30.05 259.00418Q29.596874 258.56668 28.878124 258.56668Q28.1125 258.56668 27.659374 259.0198Q27.20625 259.47293 27.190624 260.28543L26.1125 260.17606Q26.221874 258.9573 26.940624 258.3323Q27.675 257.69168 28.909374 257.69168Q30.14375 257.69168 30.8625 258.37918Q31.58125 259.06668 31.58125 260.0823Q31.58125 260.59793 31.3625 261.09793Q31.159374 261.5823 30.659374 262.1448Q30.175 262.69168 29.05 263.6448Q28.096874 264.44168 27.815624 264.73856Q27.55 265.0198 27.378124 265.30106L31.596874 265.30106ZM33.6125 266.31668L33.6125 265.11356L34.815624 265.11356L34.815624 266.31668Q34.815624 266.97293 34.58125 267.37918Q34.346874 267.80106 33.846874 268.0198L33.55 267.56668Q33.878124 267.42606 34.034374 267.12918Q34.190624 266.84793 34.221874 266.31668L33.6125 266.31668ZM36.05 262.0823Q36.05 260.55106 36.3625 259.62918Q36.675 258.69168 37.284374 258.19168Q37.909374 257.69168 38.846874 257.69168Q39.534374 257.69168 40.05 257.97293Q40.58125 258.25418 40.925 258.78543Q41.26875 259.30106 41.45625 260.05106Q41.64375 260.80106 41.64375 262.0823Q41.64375 263.59793 41.33125 264.5198Q41.034374 265.44168 40.409374 265.9573Q39.8 266.4573 38.846874 266.4573Q37.6125 266.4573 36.89375 265.56668Q36.05 264.50418 36.05 262.0823ZM37.128124 262.0823Q37.128124 264.19168 37.628124 264.8948Q38.128124 265.59793 38.846874 265.59793Q39.58125 265.59793 40.065624 264.8948Q40.565624 264.19168 40.565624 262.0823Q40.565624 259.9573 40.065624 259.2698Q39.58125 258.56668 38.83125 258.56668Q38.1125 258.56668 37.675 259.17606Q37.128124 259.9573 37.128124 262.0823ZM43.05 262.0823Q43.05 260.55106 43.3625 259.62918Q43.675 258.69168 44.284374 258.19168Q44.909374 257.69168 45.846874 257.69168Q46.534374 257.69168 47.05 257.97293Q47.58125 258.25418 47.925 258.78543Q48.26875 259.30106 48.45625 260.05106Q48.64375 260.80106 48.64375 262.0823Q48.64375 263.59793 48.33125 264.5198Q48.034374 265.44168 47.409374 265.9573Q46.8 266.4573 45.846874 266.4573Q44.6125 266.4573 43.89375 265.56668Q43.05 264.50418 43.05 262.0823ZM44.128124 262.0823Q44.128124 264.19168 44.628124 264.8948Q45.128124 265.59793 45.846874 265.59793Q46.58125 265.59793 47.065624 264.8948Q47.565624 264.19168 47.565624 262.0823Q47.565624 259.9573 47.065624 259.2698Q46.58125 258.56668 45.83125 258.56668Q45.1125 258.56668 44.675 259.17606Q44.128124 259.9573 44.128124 262.0823ZM50.05 262.0823Q50.05 260.55106 50.3625 259.62918Q50.675 258.69168 51.284374 258.19168Q51.909374 257.69168 52.846874 257.69168Q53.534374 257.69168 54.05 257.97293Q54.58125 258.25418 54.925 258.78543Q55.26875 259.30106 55.45625 260.05106Q55.64375 260.80106 55.64375 262.0823Q55.64375 263.59793 55.33125 264.5198Q55.034374 265.44168 54.409374 265.9573Q53.8 266.4573 52.846874 266.4573Q51.6125 266.4573 50.89375 265.56668Q50.05 264.50418 50.05 262.0823ZM51.128124 262.0823Q51.128124 264.19168 51.628124 264.8948Q52.128124 265.59793 52.846874 265.59793Q53.58125 265.59793 54.065624 264.8948Q54.565624 264.19168 54.565624 262.0823Q54.565624 259.9573 54.065624 259.2698Q53.58125 258.56668 52.83125 258.56668Q52.1125 258.56668 51.675 259.17606Q51.128124 259.9573 51.128124 262.0823Z" fill-rule="nonzero"/><path fill="#161828" d="M22.425 196.18333L22.425 194.12083L18.70625 194.12083L18.70625 193.15208L22.628124 187.58958L23.4875 187.58958L23.4875 193.15208L24.64375 193.15208L24.64375 194.12083L23.4875 194.12083L23.4875 196.18333L22.425 196.18333ZM22.425 193.15208L22.425 189.29271L19.7375 193.15208L22.425 193.15208ZM29.425 196.18333L29.425 194.12083L25.70625 194.12083L25.70625 193.15208L29.628124 187.58958L30.4875 187.58958L30.4875 193.15208L31.64375 193.15208L31.64375 194.12083L30.4875 194.12083L30.4875 196.18333L29.425 196.18333ZM29.425 193.15208L29.425 189.29271L26.7375 193.15208L29.425 193.15208ZM33.6125 196.18333L33.6125 194.98021L34.815624 194.98021L34.815624 196.18333Q34.815624 196.83958 34.58125 197.24583Q34.346874 197.66771 33.846874 197.88646L33.55 197.43333Q33.878124 197.29271 34.034374 196.99583Q34.190624 196.71458 34.221874 196.18333L33.6125 196.18333ZM36.05 191.94896Q36.05 190.41771 36.3625 189.49583Q36.675 188.55833 37.284374 188.05833Q37.909374 187.55833 38.846874 187.55833Q39.534374 187.55833 40.05 187.83958Q40.58125 188.12083 40.925 188.65208Q41.26875 189.16771 41.45625 189.91771Q41.64375 190.66771 41.64375 191.94896Q41.64375 193.46458 41.33125 194.38646Q41.034374 195.30833 40.409374 195.82396Q39.8 196.32396 38.846874 196.32396Q37.6125 196.32396 36.89375 195.43333Q36.05 194.37083 36.05 191.94896ZM37.128124 191.94896Q37.128124 194.05833 37.628124 194.76146Q38.128124 195.46458 38.846874 195.46458Q39.58125 195.46458 40.065624 194.76146Q40.565624 194.05833 40.565624 191.94896Q40.565624 189.82396 40.065624 189.13646Q39.58125 188.43333 38.83125 188.43333Q38.1125 188.43333 37.675 189.04271Q37.128124 189.82396 37.128124 191.94896ZM43.05 191.94896Q43.05 190.41771 43.3625 189.49583Q43.675 188.55833 44.284374 188.05833Q44.909374 187.55833 45.846874 187.55833Q46.534374 187.55833 47.05 187.83958Q47.58125 188.12083 47.925 188.65208Q48.26875 189.16771 48.45625 189.91771Q48.64375 190.66771 48.64375 191.94896Q48.64375 193.46458 48.33125 194.38646Q48.034374 195.30833 47.409374 195.82396Q46.8 196.32396 45.846874 196.32396Q44.6125 196.32396 43.89375 195.43333Q43.05 194.37083 43.05 191.94896ZM44.128124 191.94896Q44.128124 194.05833 44.628124 194.76146Q45.128124 195.46458 45.846874 195.46458Q46.58125 195.46458 47.065624 194.76146Q47.565624 194.05833 47.565624 191.94896Q47.565624 189.82396 47.065624 189.13646Q46.58125 188.43333 45.83125 188.43333Q45.1125 188.43333 44.675 189.04271Q44.128124 189.82396 44.128124 191.94896ZM50.05 191.94896Q50.05 190.41771 50.3625 189.49583Q50.675 188.55833 51.284374 188.05833Q51.909374 187.55833 52.846874 187.55833Q53.534374 187.55833 54.05 187.83958Q54.58125 188.12083 54.925 188.65208Q55.26875 189.16771 55.45625 189.91771Q55.64375 190.66771 55.64375 191.94896Q55.64375 193.46458 55.33125 194.38646Q55.034374 195.30833 54.409374 195.82396Q53.8 196.32396 52.846874 196.32396Q51.6125 196.32396 50.89375 195.43333Q50.05 194.37083 50.05 191.94896ZM51.128124 191.94896Q51.128124 194.05833 51.628124 194.76146Q52.128124 195.46458 52.846874 195.46458Q53.58125 195.46458 54.065624 194.76146Q54.565624 194.05833 54.565624 191.94896Q54.565624 189.82396 54.065624 189.13646Q53.58125 188.43333 52.83125 188.43333Q52.1125 188.43333 51.675 189.04271Q51.128124 189.82396 51.128124 191.94896Z" fill-rule="nonzero"/><path fill="#161828" d="M22.425 126.05L22.425 123.9875L18.70625 123.9875L18.70625 123.01875L22.628124 117.45625L23.4875 117.45625L23.4875 123.01875L24.64375 123.01875L24.64375 123.9875L23.4875 123.9875L23.4875 126.05L22.425 126.05ZM22.425 123.01875L22.425 119.15938L19.7375 123.01875L22.425 123.01875ZM31.51875 119.56563L30.471874 119.64375Q30.33125 119.01875 30.08125 118.7375Q29.64375 118.28438 29.01875 118.28438Q28.51875 118.28438 28.128124 118.56563Q27.64375 118.94063 27.346874 119.64375Q27.065624 120.33125 27.05 121.6125Q27.425 121.03438 27.971874 120.75313Q28.534374 120.47188 29.14375 120.47188Q30.190624 120.47188 30.925 121.25313Q31.675 122.03438 31.675 123.25313Q31.675 124.06563 31.315624 124.76875Q30.971874 125.45625 30.3625 125.83125Q29.753124 126.19063 28.9875 126.19063Q27.659374 126.19063 26.83125 125.22188Q26.003124 124.25313 26.003124 122.03438Q26.003124 119.53438 26.925 118.40938Q27.721874 117.425 29.08125 117.425Q30.096874 117.425 30.7375 118.00313Q31.39375 118.56563 31.51875 119.56563ZM27.221874 123.26875Q27.221874 123.81563 27.440624 124.31563Q27.675 124.8 28.08125 125.06563Q28.503124 125.33125 28.971874 125.33125Q29.628124 125.33125 30.1125 124.8Q30.596874 124.25313 30.596874 123.33125Q30.596874 122.44063 30.1125 121.925Q29.64375 121.40938 28.925 121.40938Q28.20625 121.40938 27.70625 121.925Q27.221874 122.44063 27.221874 123.26875ZM33.6125 126.05L33.6125 124.84688L34.815624 124.84688L34.815624 126.05Q34.815624 126.70625 34.58125 127.1125Q34.346874 127.53438 33.846874 127.75313L33.55 127.3Q33.878124 127.15938 34.034374 126.8625Q34.190624 126.58125 34.221874 126.05L33.6125 126.05ZM36.05 121.81563Q36.05 120.28438 36.3625 119.3625Q36.675 118.425 37.284374 117.925Q37.909374 117.425 38.846874 117.425Q39.534374 117.425 40.05 117.70625Q40.58125 117.9875 40.925 118.51875Q41.26875 119.03438 41.45625 119.78438Q41.64375 120.53438 41.64375 121.81563Q41.64375 123.33125 41.33125 124.25313Q41.034374 125.175 40.409374 125.69063Q39.8 126.19063 38.846874 126.19063Q37.6125 126.19063 36.89375 125.3Q36.05 124.2375 36.05 121.81563ZM37.128124 121.81563Q37.128124 123.925 37.628124 124.62813Q38.128124 125.33125 38.846874 125.33125Q39.58125 125.33125 40.065624 124.62813Q40.565624 123.925 40.565624 121.81563Q40.565624 119.69063 40.065624 119.00313Q39.58125 118.3 38.83125 118.3Q38.1125 118.3 37.675 118.90938Q37.128124 119.69063 37.128124 121.81563ZM43.05 121.81563Q43.05 120.28438 43.3625 119.3625Q43.675 118.425 44.284374 117.925Q44.909374 117.425 45.846874 117.425Q46.534374 117.425 47.05 117.70625Q47.58125 117.9875 47.925 118.51875Q48.26875 119.03438 48.45625 119.78438Q48.64375 120.53438 48.64375 121.81563Q48.64375 123.33125 48.33125 124.25313Q48.034374 125.175 47.409374 125.69063Q46.8 126.19063 45.846874 126.19063Q44.6125 126.19063 43.89375 125.3Q43.05 124.2375 43.05 121.81563ZM44.128124 121.81563Q44.128124 123.925 44.628124 124.62813Q45.128124 125.33125 45.846874 125.33125Q46.58125 125.33125 47.065624 124.62813Q47.565624 123.925 47.565624 121.81563Q47.565624 119.69063 47.065624 119.00313Q46.58125 118.3 45.83125 118.3Q45.1125 118.3 44.675 118.90938Q44.128124 119.69063 44.128124 121.81563ZM50.05 121.81563Q50.05 120.28438 50.3625 119.3625Q50.675 118.425 51.284374 117.925Q51.909374 117.425 52.846874 117.425Q53.534374 117.425 54.05 117.70625Q54.58125 117.9875 54.925 118.51875Q55.26875 119.03438 55.45625 119.78438Q55.64375 120.53438 55.64375 121.81563Q55.64375 123.33125 55.33125 124.25313Q55.034374 125.175 54.409374 125.69063Q53.8 126.19063 52.846874 126.19063Q51.6125 126.19063 50.89375 125.3Q50.05 124.2375 50.05 121.81563ZM51.128124 121.81563Q51.128124 123.925 51.628124 124.62813Q52.128124 125.33125 52.846874 125.33125Q53.58125 125.33125 54.065624 124.62813Q54.565624 123.925 54.565624 121.81563Q54.565624 119.69063 54.065624 119.00313Q53.58125 118.3 52.83125 118.3Q52.1125 118.3 51.675 118.90938Q51.128124 119.69063 51.128124 121.81563Z" fill-rule="nonzero"/><path fill="#161828" d="M22.425 55.916668L22.425 53.854168L18.70625 53.854168L18.70625 52.885418L22.628124 47.322918L23.4875 47.322918L23.4875 52.885418L24.64375 52.885418L24.64375 53.854168L23.4875 53.854168L23.4875 55.916668L22.425 55.916668ZM22.425 52.885418L22.425 49.026043L19.7375 52.885418L22.425 52.885418ZM27.675 51.260418Q27.01875 51.010418 26.690624 50.572918Q26.378124 50.119793 26.378124 49.510418Q26.378124 48.572918 27.05 47.932293Q27.7375 47.291668 28.846874 47.291668Q29.971874 47.291668 30.659374 47.947918Q31.346874 48.604168 31.346874 49.541668Q31.346874 50.135418 31.034374 50.572918Q30.721874 51.010418 30.08125 51.260418Q30.878124 51.510418 31.284374 52.088543Q31.690624 52.666668 31.690624 53.463543Q31.690624 54.557293 30.909374 55.307293Q30.14375 56.057293 28.8625 56.057293Q27.596874 56.057293 26.815624 55.307293Q26.034374 54.557293 26.034374 53.432293Q26.034374 52.588543 26.45625 52.026043Q26.89375 51.463543 27.675 51.260418ZM27.45625 49.463543Q27.45625 50.072918 27.846874 50.463543Q28.253124 50.854168 28.878124 50.854168Q29.4875 50.854168 29.878124 50.479168Q30.26875 50.088543 30.26875 49.526043Q30.26875 48.947918 29.8625 48.557293Q29.45625 48.151043 28.8625 48.151043Q28.253124 48.151043 27.846874 48.541668Q27.45625 48.932293 27.45625 49.463543ZM27.128124 53.432293Q27.128124 53.885418 27.33125 54.307293Q27.55 54.729168 27.971874 54.963543Q28.39375 55.197918 28.878124 55.197918Q29.628124 55.197918 30.1125 54.713543Q30.6125 54.229168 30.6125 53.479168Q30.6125 52.713543 30.1125 52.213543Q29.6125 51.713543 28.846874 51.713543Q28.096874 51.713543 27.6125 52.213543Q27.128124 52.697918 27.128124 53.432293ZM33.6125 55.916668L33.6125 54.713543L34.815624 54.713543L34.815624 55.916668Q34.815624 56.572918 34.58125 56.979168Q34.346874 57.401043 33.846874 57.619793L33.55 57.166668Q33.878124 57.026043 34.034374 56.729168Q34.190624 56.447918 34.221874 55.916668L33.6125 55.916668ZM36.05 51.682293Q36.05 50.151043 36.3625 49.229168Q36.675 48.291668 37.284374 47.791668Q37.909374 47.291668 38.846874 47.291668Q39.534374 47.291668 40.05 47.572918Q40.58125 47.854168 40.925 48.385418Q41.26875 48.901043 41.45625 49.651043Q41.64375 50.401043 41.64375 51.682293Q41.64375 53.197918 41.33125 54.119793Q41.034374 55.041668 40.409374 55.557293Q39.8 56.057293 38.846874 56.057293Q37.6125 56.057293 36.89375 55.166668Q36.05 54.104168 36.05 51.682293ZM37.128124 51.682293Q37.128124 53.791668 37.628124 54.494793Q38.128124 55.197918 38.846874 55.197918Q39.58125 55.197918 40.065624 54.494793Q40.565624 53.791668 40.565624 51.682293Q40.565624 49.557293 40.065624 48.869793Q39.58125 48.166668 38.83125 48.166668Q38.1125 48.166668 37.675 48.776043Q37.128124 49.557293 37.128124 51.682293ZM43.05 51.682293Q43.05 50.151043 43.3625 49.229168Q43.675 48.291668 44.284374 47.791668Q44.909374 47.291668 45.846874 47.291668Q46.534374 47.291668 47.05 47.572918Q47.58125 47.854168 47.925 48.385418Q48.26875 48.901043 48.45625 49.651043Q48.64375 50.401043 48.64375 51.682293Q48.64375 53.197918 48.33125 54.119793Q48.034374 55.041668 47.409374 55.557293Q46.8 56.057293 45.846874 56.057293Q44.6125 56.057293 43.89375 55.166668Q43.05 54.104168 43.05 51.682293ZM44.128124 51.682293Q44.128124 53.791668 44.628124 54.494793Q45.128124 55.197918 45.846874 55.197918Q46.58125 55.197918 47.065624 54.494793Q47.565624 53.791668 47.565624 51.682293Q47.565624 49.557293 47.065624 48.869793Q46.58125 48.166668 45.83125 48.166668Q45.1125 48.166668 44.675 48.776043Q44.128124 49.557293 44.128124 51.682293ZM50.05 51.682293Q50.05 50.151043 50.3625 49.229168Q50.675 48.291668 51.284374 47.791668Q51.909374 47.291668 52.846874 47.291668Q53.534374 47.291668 54.05 47.572918Q54.58125 47.854168 54.925 48.385418Q55.26875 48.901043 55.45625 49.651043Q55.64375 50.401043 55.64375 51.682293Q55.64375 53.197918 55.33125 54.119793Q55.034374 55.041668 54.409374 55.557293Q53.8 56.057293 52.846874 56.057293Q51.6125 56.057293 50.89375 55.166668Q50.05 54.104168 50.05 51.682293ZM51.128124 51.682293Q51.128124 53.791668 51.628124 54.494793Q52.128124 55.197918 52.846874 55.197918Q53.58125 55.197918 54.065624 54.494793Q54.565624 53.791668 54.565624 51.682293Q54.565624 49.557293 54.065624 48.869793Q53.58125 48.166668 52.83125 48.166668Q52.1125 48.166668 51.675 48.776043Q51.128124 49.557293 51.128124 51.682293Z" fill-rule="nonzero"/><path fill="#161828" d="M54.596874 348.4344L54.596874 349.45L48.909374 349.45Q48.909374 349.075 49.034374 348.71564Q49.253124 348.1375 49.721874 347.575Q50.20625 347.0125 51.1125 346.27814Q52.51875 345.1219 53.003124 344.45Q53.503124 343.77814 53.503124 343.1844Q53.503124 342.5594 53.05 342.1375Q52.596874 341.7 51.878124 341.7Q51.1125 341.7 50.659374 342.15314Q50.20625 342.60626 50.190624 343.41876L49.1125 343.3094Q49.221874 342.09064 49.940624 341.46564Q50.675 340.825 51.909374 340.825Q53.14375 340.825 53.8625 341.5125Q54.58125 342.2 54.58125 343.21564Q54.58125 343.73126 54.3625 344.23126Q54.159374 344.71564 53.659374 345.27814Q53.175 345.825 52.05 346.77814Q51.096874 347.575 50.815624 347.8719Q50.55 348.15314 50.378124 348.4344L54.596874 348.4344ZM56.05 345.21564Q56.05 343.6844 56.3625 342.7625Q56.675 341.825 57.284374 341.325Q57.909374 340.825 58.846874 340.825Q59.534374 340.825 60.05 341.10626Q60.58125 341.3875 60.925 341.91876Q61.26875 342.4344 61.45625 343.1844Q61.64375 343.9344 61.64375 345.21564Q61.64375 346.73126 61.33125 347.65314Q61.034374 348.575 60.409374 349.09064Q59.8 349.59064 58.846874 349.59064Q57.6125 349.59064 56.89375 348.7Q56.05 347.6375 56.05 345.21564ZM57.128124 345.21564Q57.128124 347.325 57.628124 348.02814Q58.128124 348.73126 58.846874 348.73126Q59.58125 348.73126 60.065624 348.02814Q60.565624 347.325 60.565624 345.21564Q60.565624 343.09064 60.065624 342.40314Q59.58125 341.7 58.83125 341.7Q58.1125 341.7 57.675 342.3094Q57.128124 343.09064 57.128124 345.21564ZM67.01875 349.45L65.97188 349.45L65.97188 342.73126Q65.58125 343.09064 64.95625 343.46564Q64.34688 343.825 63.8625 343.9969L63.8625 342.98126Q64.7375 342.5594 65.39375 341.98126Q66.06563 341.3875 66.34688 340.825L67.01875 340.825L67.01875 349.45ZM73.425 349.45L73.425 347.3875L69.70625 347.3875L69.70625 346.41876L73.62813 340.85626L74.4875 340.85626L74.4875 346.41876L75.64375 346.41876L75.64375 347.3875L74.4875 347.3875L74.4875 349.45L73.425 349.45ZM73.425 346.41876L73.425 342.5594L70.7375 346.41876L73.425 346.41876Z" fill-rule="nonzero"/><path fill="#161828" d="M158.37688 348.4344L158.37688 349.45L152.68938 349.45Q152.68938 349.075 152.81438 348.71564Q153.03313 348.1375 153.50188 347.575Q153.98625 347.0125 154.8925 346.27814Q156.29875 345.1219 156.78313 344.45Q157.28313 343.77814 157.28313 343.1844Q157.28313 342.5594 156.83 342.1375Q156.37688 341.7 155.65813 341.7Q154.8925 341.7 154.43938 342.15314Q153.98625 342.60626 153.97063 343.41876L152.8925 343.3094Q153.00188 342.09064 153.72063 341.46564Q154.455 340.825 155.68938 340.825Q156.92375 340.825 157.6425 341.5125Q158.36125 342.2 158.36125 343.21564Q158.36125 343.73126 158.1425 344.23126Q157.93938 344.71564 157.43938 345.27814Q156.955 345.825 155.83 346.77814Q154.87688 347.575 154.59563 347.8719Q154.33 348.15314 154.15813 348.4344L158.37688 348.4344ZM159.83 345.21564Q159.83 343.6844 160.1425 342.7625Q160.455 341.825 161.06438 341.325Q161.68938 340.825 162.62688 340.825Q163.31438 340.825 163.83 341.10626Q164.36125 341.3875 164.705 341.91876Q165.04875 342.4344 165.23625 343.1844Q165.42375 343.9344 165.42375 345.21564Q165.42375 346.73126 165.11125 347.65314Q164.81438 348.575 164.18938 349.09064Q163.58 349.59064 162.62688 349.59064Q161.3925 349.59064 160.67375 348.7Q159.83 347.6375 159.83 345.21564ZM160.90813 345.21564Q160.90813 347.325 161.40813 348.02814Q161.90813 348.73126 162.62688 348.73126Q163.36125 348.73126 163.84563 348.02814Q164.34563 347.325 164.34563 345.21564Q164.34563 343.09064 163.84563 342.40314Q163.36125 341.7 162.61125 341.7Q161.8925 341.7 161.455 342.3094Q160.90813 343.09064 160.90813 345.21564ZM170.79875 349.45L169.75188 349.45L169.75188 342.73126Q169.36125 343.09064 168.73625 343.46564Q168.12688 343.825 167.6425 343.9969L167.6425 342.98126Q168.5175 342.5594 169.17375 341.98126Q169.84563 341.3875 170.12688 340.825L170.79875 340.825L170.79875 349.45ZM173.83 347.2L174.93938 347.10626Q175.06438 347.91876 175.50188 348.325Q175.955 348.73126 176.59563 348.73126Q177.34563 348.73126 177.87688 348.15314Q178.40813 347.575 178.40813 346.6375Q178.40813 345.73126 177.8925 345.21564Q177.3925 344.6844 176.56438 344.6844Q176.06438 344.6844 175.6425 344.91876Q175.23625 345.15314 175.00188 345.5125L174.0175 345.3875L174.84563 340.98126L179.12688 340.98126L179.12688 341.98126L175.68938 341.98126L175.23625 344.29376Q176.00188 343.7469 176.84563 343.7469Q177.97063 343.7469 178.73625 344.52814Q179.5175 345.3094 179.5175 346.54376Q179.5175 347.7 178.84563 348.5594Q178.0175 349.59064 176.59563 349.59064Q175.42375 349.59064 174.67375 348.9344Q173.93938 348.27814 173.83 347.2Z" fill-rule="nonzero"/><path fill="#161828" d="M262.15686 348.4344L262.15686 349.45L256.46936 349.45Q256.46936 349.075 256.59436 348.71564Q256.8131 348.1375 257.28186 347.575Q257.76624 347.0125 258.6725 346.27814Q260.07874 345.1219 260.5631 344.45Q261.0631 343.77814 261.0631 343.1844Q261.0631 342.5594 260.61 342.1375Q260.15686 341.7 259.4381 341.7Q258.6725 341.7 258.21936 342.15314Q257.76624 342.60626 257.7506 343.41876L256.6725 343.3094Q256.78186 342.09064 257.5006 341.46564Q258.235 340.825 259.46936 340.825Q260.70374 340.825 261.4225 341.5125Q262.14124 342.2 262.14124 343.21564Q262.14124 343.73126 261.9225 344.23126Q261.71936 344.71564 261.21936 345.27814Q260.735 345.825 259.61 346.77814Q258.65686 347.575 258.3756 347.8719Q258.11 348.15314 257.9381 348.4344L262.15686 348.4344ZM263.61 345.21564Q263.61 343.6844 263.9225 342.7625Q264.235 341.825 264.84436 341.325Q265.46936 340.825 266.40686 340.825Q267.09436 340.825 267.61 341.10626Q268.14124 341.3875 268.485 341.91876Q268.82874 342.4344 269.01624 343.1844Q269.20374 343.9344 269.20374 345.21564Q269.20374 346.73126 268.89124 347.65314Q268.59436 348.575 267.96936 349.09064Q267.36 349.59064 266.40686 349.59064Q265.1725 349.59064 264.45374 348.7Q263.61 347.6375 263.61 345.21564ZM264.6881 345.21564Q264.6881 347.325 265.1881 348.02814Q265.6881 348.73126 266.40686 348.73126Q267.14124 348.73126 267.6256 348.02814Q268.1256 347.325 268.1256 345.21564Q268.1256 343.09064 267.6256 342.40314Q267.14124 341.7 266.39124 341.7Q265.6725 341.7 265.235 342.3094Q264.6881 343.09064 264.6881 345.21564ZM274.57874 349.45L273.53186 349.45L273.53186 342.73126Q273.14124 343.09064 272.51624 343.46564Q271.90686 343.825 271.4225 343.9969L271.4225 342.98126Q272.2975 342.5594 272.95374 341.98126Q273.6256 341.3875 273.90686 340.825L274.57874 340.825L274.57874 349.45ZM283.07874 342.96564L282.03186 343.04376Q281.89124 342.41876 281.64124 342.1375Q281.20374 341.6844 280.57874 341.6844Q280.07874 341.6844 279.6881 341.96564Q279.20374 342.34064 278.90686 343.04376Q278.6256 343.73126 278.61 345.0125Q278.985 344.4344 279.53186 344.15314Q280.09436 343.8719 280.70374 343.8719Q281.7506 343.8719 282.485 344.65314Q283.235 345.4344 283.235 346.65314Q283.235 347.46564 282.8756 348.16876Q282.53186 348.85626 281.9225 349.23126Q281.3131 349.59064 280.5475 349.59064Q279.21936 349.59064 278.39124 348.6219Q277.5631 347.65314 277.5631 345.4344Q277.5631 342.9344 278.485 341.8094Q279.28186 340.825 280.64124 340.825Q281.65686 340.825 282.2975 341.40314Q282.95374 341.96564 283.07874 342.96564ZM278.78186 346.66876Q278.78186 347.21564 279.0006 347.71564Q279.235 348.2 279.64124 348.46564Q280.0631 348.73126 280.53186 348.73126Q281.1881 348.73126 281.6725 348.2Q282.15686 347.65314 282.15686 346.73126Q282.15686 345.84064 281.6725 345.325Q281.20374 344.8094 280.485 344.8094Q279.76624 344.8094 279.26624 345.325Q278.78186 345.84064 278.78186 346.66876Z" fill-rule="nonzero"/><path fill="#161828" d="M365.9369 348.4344L365.9369 349.45L360.2494 349.45Q360.2494 349.075 360.3744 348.71564Q360.59314 348.1375 361.0619 347.575Q361.54626 347.0125 362.4525 346.27814Q363.85876 345.1219 364.34314 344.45Q364.84314 343.77814 364.84314 343.1844Q364.84314 342.5594 364.39 342.1375Q363.9369 341.7 363.21814 341.7Q362.4525 341.7 361.9994 342.15314Q361.54626 342.60626 361.53064 343.41876L360.4525 343.3094Q360.5619 342.09064 361.28064 341.46564Q362.015 340.825 363.2494 340.825Q364.48376 340.825 365.2025 341.5125Q365.92126 342.2 365.92126 343.21564Q365.92126 343.73126 365.7025 344.23126Q365.4994 344.71564 364.9994 345.27814Q364.515 345.825 363.39 346.77814Q362.4369 347.575 362.15564 347.8719Q361.89 348.15314 361.71814 348.4344L365.9369 348.4344ZM367.39 345.21564Q367.39 343.6844 367.7025 342.7625Q368.015 341.825 368.6244 341.325Q369.2494 340.825 370.1869 340.825Q370.8744 340.825 371.39 341.10626Q371.92126 341.3875 372.265 341.91876Q372.60876 342.4344 372.79626 343.1844Q372.98376 343.9344 372.98376 345.21564Q372.98376 346.73126 372.67126 347.65314Q372.3744 348.575 371.7494 349.09064Q371.14 349.59064 370.1869 349.59064Q368.9525 349.59064 368.23376 348.7Q367.39 347.6375 367.39 345.21564ZM368.46814 345.21564Q368.46814 347.325 368.96814 348.02814Q369.46814 348.73126 370.1869 348.73126Q370.92126 348.73126 371.40564 348.02814Q371.90564 347.325 371.90564 345.21564Q371.90564 343.09064 371.40564 342.40314Q370.92126 341.7 370.17126 341.7Q369.4525 341.7 369.015 342.3094Q368.46814 343.09064 368.46814 345.21564ZM378.35876 349.45L377.3119 349.45L377.3119 342.73126Q376.92126 343.09064 376.29626 343.46564Q375.6869 343.825 375.2025 343.9969L375.2025 342.98126Q376.0775 342.5594 376.73376 341.98126Q377.40564 341.3875 377.6869 340.825L378.35876 340.825L378.35876 349.45ZM381.4525 341.98126L381.4525 340.96564L387.015 340.96564L387.015 341.79376Q386.2025 342.66876 385.39 344.1219Q384.59314 345.5594 384.15564 347.09064Q383.8275 348.16876 383.7494 349.45L382.65564 349.45Q382.67126 348.4344 383.04626 346.9969Q383.4369 345.5594 384.14 344.23126Q384.85876 342.90314 385.67126 341.98126L381.4525 341.98126Z" fill-rule="nonzero"/><path fill="#161828" d="M469.7169 348.4344L469.7169 349.45L464.0294 349.45Q464.0294 349.075 464.1544 348.71564Q464.37314 348.1375 464.8419 347.575Q465.32626 347.0125 466.2325 346.27814Q467.63876 345.1219 468.12314 344.45Q468.62314 343.77814 468.62314 343.1844Q468.62314 342.5594 468.17 342.1375Q467.7169 341.7 466.99814 341.7Q466.2325 341.7 465.7794 342.15314Q465.32626 342.60626 465.31064 343.41876L464.2325 343.3094Q464.3419 342.09064 465.06064 341.46564Q465.795 340.825 467.0294 340.825Q468.26376 340.825 468.9825 341.5125Q469.70126 342.2 469.70126 343.21564Q469.70126 343.73126 469.4825 344.23126Q469.2794 344.71564 468.7794 345.27814Q468.295 345.825 467.17 346.77814Q466.2169 347.575 465.93564 347.8719Q465.67 348.15314 465.49814 348.4344L469.7169 348.4344ZM471.17 345.21564Q471.17 343.6844 471.4825 342.7625Q471.795 341.825 472.4044 341.325Q473.0294 340.825 473.9669 340.825Q474.6544 340.825 475.17 341.10626Q475.70126 341.3875 476.045 341.91876Q476.38876 342.4344 476.57626 343.1844Q476.76376 343.9344 476.76376 345.21564Q476.76376 346.73126 476.45126 347.65314Q476.1544 348.575 475.5294 349.09064Q474.92 349.59064 473.9669 349.59064Q472.7325 349.59064 472.01376 348.7Q471.17 347.6375 471.17 345.21564ZM472.24814 345.21564Q472.24814 347.325 472.74814 348.02814Q473.24814 348.73126 473.9669 348.73126Q474.70126 348.73126 475.18564 348.02814Q475.68564 347.325 475.68564 345.21564Q475.68564 343.09064 475.18564 342.40314Q474.70126 341.7 473.95126 341.7Q473.2325 341.7 472.795 342.3094Q472.24814 343.09064 472.24814 345.21564ZM482.13876 349.45L481.0919 349.45L481.0919 342.73126Q480.70126 343.09064 480.07626 343.46564Q479.4669 343.825 478.9825 343.9969L478.9825 342.98126Q479.8575 342.5594 480.51376 341.98126Q481.18564 341.3875 481.4669 340.825L482.13876 340.825L482.13876 349.45ZM486.795 344.79376Q486.13876 344.54376 485.81064 344.10626Q485.49814 343.65314 485.49814 343.04376Q485.49814 342.10626 486.17 341.46564Q486.8575 340.825 487.9669 340.825Q489.0919 340.825 489.7794 341.48126Q490.4669 342.1375 490.4669 343.075Q490.4669 343.66876 490.1544 344.10626Q489.8419 344.54376 489.20126 344.79376Q489.99814 345.04376 490.4044 345.6219Q490.81064 346.2 490.81064 346.9969Q490.81064 348.09064 490.0294 348.84064Q489.26376 349.59064 487.9825 349.59064Q486.7169 349.59064 485.93564 348.84064Q485.1544 348.09064 485.1544 346.96564Q485.1544 346.1219 485.57626 345.5594Q486.01376 344.9969 486.795 344.79376ZM486.57626 342.9969Q486.57626 343.60626 486.9669 343.9969Q487.37314 344.3875 487.99814 344.3875Q488.6075 344.3875 488.99814 344.0125Q489.38876 343.6219 489.38876 343.0594Q489.38876 342.48126 488.9825 342.09064Q488.57626 341.6844 487.9825 341.6844Q487.37314 341.6844 486.9669 342.075Q486.57626 342.46564 486.57626 342.9969ZM486.24814 346.96564Q486.24814 347.41876 486.45126 347.84064Q486.67 348.2625 487.0919 348.4969Q487.51376 348.73126 487.99814 348.73126Q488.74814 348.73126 489.2325 348.2469Q489.7325 347.7625 489.7325 347.0125Q489.7325 346.2469 489.2325 345.7469Q488.7325 345.2469 487.9669 345.2469Q487.2169 345.2469 486.7325 345.7469Q486.24814 346.23126 486.24814 346.96564Z" fill-rule="nonzero"/><path fill="#161828" d="M573.4969 348.4344L573.4969 349.45L567.8094 349.45Q567.8094 349.075 567.9344 348.71564Q568.15314 348.1375 568.6219 347.575Q569.10626 347.0125 570.0125 346.27814Q571.41876 345.1219 571.90314 344.45Q572.40314 343.77814 572.40314 343.1844Q572.40314 342.5594 571.95 342.1375Q571.4969 341.7 570.77814 341.7Q570.0125 341.7 569.5594 342.15314Q569.10626 342.60626 569.09064 343.41876L568.0125 343.3094Q568.1219 342.09064 568.84064 341.46564Q569.575 340.825 570.8094 340.825Q572.04376 340.825 572.7625 341.5125Q573.48126 342.2 573.48126 343.21564Q573.48126 343.73126 573.2625 344.23126Q573.0594 344.71564 572.5594 345.27814Q572.075 345.825 570.95 346.77814Q569.9969 347.575 569.71564 347.8719Q569.45 348.15314 569.27814 348.4344L573.4969 348.4344ZM574.95 345.21564Q574.95 343.6844 575.2625 342.7625Q575.575 341.825 576.1844 341.325Q576.8094 340.825 577.7469 340.825Q578.4344 340.825 578.95 341.10626Q579.48126 341.3875 579.825 341.91876Q580.16876 342.4344 580.35626 343.1844Q580.54376 343.9344 580.54376 345.21564Q580.54376 346.73126 580.23126 347.65314Q579.9344 348.575 579.3094 349.09064Q578.7 349.59064 577.7469 349.59064Q576.5125 349.59064 575.79376 348.7Q574.95 347.6375 574.95 345.21564ZM576.02814 345.21564Q576.02814 347.325 576.52814 348.02814Q577.02814 348.73126 577.7469 348.73126Q578.48126 348.73126 578.96564 348.02814Q579.46564 347.325 579.46564 345.21564Q579.46564 343.09064 578.96564 342.40314Q578.48126 341.7 577.73126 341.7Q577.0125 341.7 576.575 342.3094Q576.02814 343.09064 576.02814 345.21564ZM585.91876 349.45L584.8719 349.45L584.8719 342.73126Q584.48126 343.09064 583.85626 343.46564Q583.2469 343.825 582.7625 343.9969L582.7625 342.98126Q583.6375 342.5594 584.29376 341.98126Q584.96564 341.3875 585.2469 340.825L585.91876 340.825L585.91876 349.45ZM589.10626 347.46564L590.1219 347.3719Q590.2469 348.09064 590.60626 348.41876Q590.98126 348.73126 591.54376 348.73126Q592.02814 348.73126 592.3875 348.5125Q592.7625 348.27814 592.9969 347.91876Q593.23126 347.54376 593.3875 346.91876Q593.54376 346.27814 593.54376 345.6219Q593.54376 345.54376 593.54376 345.40314Q593.23126 345.90314 592.6844 346.23126Q592.1375 346.54376 591.4969 346.54376Q590.41876 346.54376 589.6844 345.77814Q588.95 344.9969 588.95 343.73126Q588.95 342.41876 589.71564 341.6219Q590.4969 340.825 591.65314 340.825Q592.48126 340.825 593.16876 341.27814Q593.8719 341.73126 594.23126 342.575Q594.59064 343.40314 594.59064 344.98126Q594.59064 346.6219 594.23126 347.60626Q593.8875 348.575 593.16876 349.09064Q592.46564 349.59064 591.52814 349.59064Q590.5125 349.59064 589.8719 349.04376Q589.23126 348.48126 589.10626 347.46564ZM593.41876 343.66876Q593.41876 342.7625 592.9344 342.23126Q592.46564 341.7 591.77814 341.7Q591.075 341.7 590.54376 342.27814Q590.02814 342.84064 590.02814 343.7625Q590.02814 344.575 590.52814 345.09064Q591.02814 345.60626 591.7469 345.60626Q592.48126 345.60626 592.95 345.09064Q593.41876 344.575 593.41876 343.66876Z" fill-rule="nonzero"/><path stroke="#e3e3f4" stroke-width="4.0" stroke-linecap="butt" d="M207.5 25.55L219.5 25.55" fill-rule="nonzero"/><path fill="#161828" d="M228.39062 29.55L228.39062 20.95625L230.10938 20.95625L232.14062 27.034374Q232.42188 27.89375 232.54688 28.315624Q232.6875 27.846874 233.0 26.940624L235.0625 20.95625L236.59375 20.95625L236.59375 29.55L235.5 29.55L235.5 22.3625L233.0 29.55L231.96875 29.55L229.48438 22.2375L229.48438 29.55L228.39062 29.55ZM241.54688 27.55L242.64062 27.675Q242.39062 28.628124 241.6875 29.159374Q240.98438 29.690624 239.90625 29.690624Q238.54688 29.690624 237.73438 28.846874Q236.9375 28.003124 236.9375 26.4875Q236.9375 24.925 237.75 24.065624Q238.5625 23.190624 239.84375 23.190624Q241.09375 23.190624 241.875 24.034374Q242.67188 24.878124 242.67188 26.425Q242.67188 26.51875 242.67188 26.70625L238.03125 26.70625Q238.09375 27.7375 238.60938 28.284374Q239.125 28.815624 239.90625 28.815624Q240.48438 28.815624 240.89062 28.51875Q241.3125 28.20625 241.54688 27.55ZM238.09375 25.846874L241.5625 25.846874Q241.5 25.05 241.17188 24.659374Q240.65625 24.05 239.85938 24.05Q239.125 24.05 238.625 24.534374Q238.14062 25.01875 238.09375 25.846874ZM244.29688 29.55L244.29688 23.33125L245.23438 23.33125L245.23438 24.20625Q245.92188 23.190624 247.21875 23.190624Q247.78125 23.190624 248.25 23.39375Q248.73438 23.596874 248.96875 23.925Q249.20312 24.253124 249.29688 24.690624Q249.34375 24.9875 249.34375 25.721874L249.34375 29.55L248.29688 29.55L248.29688 25.76875Q248.29688 25.1125 248.17188 24.8Q248.04688 24.4875 247.73438 24.3Q247.42188 24.096874 247.0 24.096874Q246.32812 24.096874 245.82812 24.534374Q245.34375 24.95625 245.34375 26.14375L245.34375 29.55L244.29688 29.55Z" fill-rule="nonzero"/><path stroke="#6ac86f" stroke-width="4.0" stroke-linecap="butt" d="M266.5 25.55L278.5 25.55" fill-rule="nonzero"/><path fill="#161828" d="M288.92188 29.55L286.64062 20.95625L287.8125 20.95625L289.125 26.596874Q289.32812 27.471874 289.48438 28.346874Q289.8125 26.971874 289.875 26.753124L291.5 20.95625L292.875 20.95625L294.10938 25.3Q294.5625 26.925 294.78125 28.346874Q294.9375 27.534374 295.20312 26.471874L296.54688 20.95625L297.6875 20.95625L295.34375 29.55L294.23438 29.55L292.4375 23.003124Q292.20312 22.190624 292.15625 22.003124Q292.03125 22.58125 291.90625 23.003124L290.09375 29.55L288.92188 29.55ZM297.90625 26.440624Q297.90625 24.70625 298.85938 23.878124Q299.65625 23.190624 300.8125 23.190624Q302.09375 23.190624 302.90625 24.034374Q303.73438 24.8625 303.73438 26.346874Q303.73438 27.55 303.375 28.2375Q303.01562 28.925 302.3125 29.315624Q301.625 29.690624 300.8125 29.690624Q299.51562 29.690624 298.70312 28.8625Q297.90625 28.01875 297.90625 26.440624ZM298.98438 26.440624Q298.98438 27.628124 299.5 28.221874Q300.03125 28.815624 300.8125 28.815624Q301.60938 28.815624 302.125 28.221874Q302.64062 27.628124 302.64062 26.409374Q302.64062 25.253124 302.10938 24.659374Q301.59375 24.065624 300.8125 24.065624Q300.03125 24.065624 299.5 24.659374Q298.98438 25.2375 298.98438 26.440624ZM305.29688 29.55L305.29688 23.33125L306.23438 23.33125L306.23438 24.20625Q306.53125 23.7375 307.01562 23.471874Q307.5 23.190624 308.125 23.190624Q308.8125 23.190624 309.25 23.471874Q309.70312 23.753124 309.875 24.26875Q310.625 23.190624 311.79688 23.190624Q312.73438 23.190624 313.21875 23.70625Q313.71875 24.20625 313.71875 25.284374L313.71875 29.55L312.67188 29.55L312.67188 25.628124Q312.67188 25.003124 312.5625 24.721874Q312.46875 24.440624 312.20312 24.26875Q311.9375 24.096874 311.5625 24.096874Q310.90625 24.096874 310.46875 24.534374Q310.04688 24.971874 310.04688 25.940624L310.04688 29.55L308.98438 29.55L308.98438 25.503124Q308.98438 24.8 308.71875 24.45625Q308.46875 24.096874 307.89062 24.096874Q307.4375 24.096874 307.0625 24.33125Q306.6875 24.565624 306.51562 25.01875Q306.34375 25.471874 306.34375 26.315624L306.34375 29.55L305.29688 29.55ZM320.54688 27.55L321.64062 27.675Q321.39062 28.628124 320.6875 29.159374Q319.98438 29.690624 318.90625 29.690624Q317.54688 29.690624 316.73438 28.846874Q315.9375 28.003124 315.9375 26.4875Q315.9375 24.925 316.75 24.065624Q317.5625 23.190624 318.84375 23.190624Q320.09375 23.190624 320.875 24.034374Q321.67188 24.878124 321.67188 26.425Q321.67188 26.51875 321.67188 26.70625L317.03125 26.70625Q317.09375 27.7375 317.60938 28.284374Q318.125 28.815624 318.90625 28.815624Q319.48438 28.815624 319.89062 28.51875Q320.3125 28.20625 320.54688 27.55ZM317.09375 25.846874L320.5625 25.846874Q320.5 25.05 320.17188 24.659374Q319.65625 24.05 318.85938 24.05Q318.125 24.05 317.625 24.534374Q317.14062 25.01875 317.09375 25.846874ZM323.29688 29.55L323.29688 23.33125L324.23438 23.33125L324.23438 24.20625Q324.92188 23.190624 326.21875 23.190624Q326.78125 23.190624 327.25 23.39375Q327.73438 23.596874 327.96875 23.925Q328.20312 24.253124 328.29688 24.690624Q328.34375 24.9875 328.34375 25.721874L328.34375 29.55L327.29688 29.55L327.29688 25.76875Q327.29688 25.1125 327.17188 24.8Q327.04688 24.4875 326.73438 24.3Q326.42188 24.096874 326.0 24.096874Q325.32812 24.096874 324.82812 24.534374Q324.34375 24.95625 324.34375 26.14375L324.34375 29.55L323.29688 29.55Z" fill-rule="nonzero"/><path stroke="#75788d" stroke-width="4.0" stroke-linecap="butt" d="M345.5 25.55L357.5 25.55" fill-rule="nonzero"/><path fill="#161828" d="M368.60938 29.55L368.60938 21.971874L365.78125 21.971874L365.78125 20.95625L372.59375 20.95625L372.59375 21.971874L369.75 21.971874L369.75 29.55L368.60938 29.55ZM372.90625 26.440624Q372.90625 24.70625 373.85938 23.878124Q374.65625 23.190624 375.8125 23.190624Q377.09375 23.190624 377.90625 24.034374Q378.73438 24.8625 378.73438 26.346874Q378.73438 27.55 378.375 28.2375Q378.01562 28.925 377.3125 29.315624Q376.625 29.690624 375.8125 29.690624Q374.51562 29.690624 373.70312 28.8625Q372.90625 28.01875 372.90625 26.440624ZM373.98438 26.440624Q373.98438 27.628124 374.5 28.221874Q375.03125 28.815624 375.8125 28.815624Q376.60938 28.815624 377.125 28.221874Q377.64062 27.628124 377.64062 26.409374Q377.64062 25.253124 377.10938 24.659374Q376.59375 24.065624 375.8125 24.065624Q375.03125 24.065624 374.5 24.659374Q373.98438 25.2375 373.98438 26.440624ZM382.59375 28.6125L382.75 29.534374Q382.29688 29.628124 381.95312 29.628124Q381.375 29.628124 381.0625 29.45625Q380.75 29.26875 380.60938 28.971874Q380.48438 28.675 380.48438 27.721874L380.48438 24.14375L379.71875 24.14375L379.71875 23.33125L380.48438 23.33125L380.48438 21.784374L381.53125 21.159374L381.53125 23.33125L382.59375 23.33125L382.59375 24.14375L381.53125 24.14375L381.53125 27.784374Q381.53125 28.2375 381.57812 28.3625Q381.64062 28.4875 381.76562 28.565624Q381.89062 28.64375 382.125 28.64375Q382.3125 28.64375 382.59375 28.6125ZM387.35938 28.784374Q386.76562 29.284374 386.21875 29.4875Q385.6875 29.690624 385.0625 29.690624Q384.03125 29.690624 383.48438 29.190624Q382.9375 28.690624 382.9375 27.909374Q382.9375 27.45625 383.14062 27.08125Q383.34375 26.690624 383.6875 26.471874Q384.03125 26.2375 384.45312 26.128124Q384.75 26.034374 385.39062 25.95625Q386.65625 25.815624 387.26562 25.596874Q387.26562 25.378124 387.26562 25.33125Q387.26562 24.675 386.96875 24.409374Q386.5625 24.065624 385.76562 24.065624Q385.03125 24.065624 384.67188 24.33125Q384.3125 24.58125 384.14062 25.2375L383.10938 25.096874Q383.25 24.440624 383.57812 24.034374Q383.90625 23.628124 384.51562 23.409374Q385.125 23.190624 385.92188 23.190624Q386.71875 23.190624 387.21875 23.378124Q387.71875 23.565624 387.95312 23.846874Q388.1875 24.128124 388.28125 24.565624Q388.32812 24.83125 388.32812 25.534374L388.32812 26.940624Q388.32812 28.409374 388.39062 28.8Q388.46875 29.190624 388.67188 29.55L387.5625 29.55Q387.40625 29.221874 387.35938 28.784374ZM387.26562 26.425Q386.6875 26.659374 385.54688 26.83125Q384.89062 26.925 384.625 27.05Q384.35938 27.159374 384.20312 27.378124Q384.0625 27.596874 384.0625 27.878124Q384.0625 28.3 384.375 28.58125Q384.70312 28.8625 385.3125 28.8625Q385.92188 28.8625 386.39062 28.596874Q386.875 28.33125 387.09375 27.8625Q387.26562 27.503124 387.26562 26.815624L387.26562 26.425ZM390.26562 29.55L390.26562 20.95625L391.32812 20.95625L391.32812 29.55L390.26562 29.55Z" fill-rule="nonzero"/></svg>