<svg version="1.1" viewBox="0.0 0.0 600.0 371.0" fill="none" stroke="none" stroke-linecap="square" stroke-miterlimit="10" width="600" height="371" xmlns:xlink="http://www.w3.org/1999/xlink" xmlns="http://www.w3.org/2000/svg"><path fill="#ffffff" d="M0 0L600.0 0L600.0 371.0L0 371.0L0 0Z" fill-rule="nonzero"/><path stroke="#333333" stroke-width="1.0" stroke-linecap="butt" d="M62.5 332.5L511.5 332.5" fill-rule="nonzero"/><path stroke="#cccccc" stroke-width="1.0" stroke-linecap="butt" d="M62.5 255.5L511.5 255.5" fill-rule="nonzero"/><path stroke="#cccccc" stroke-width="1.0" stroke-linecap="butt" d="M62.5 179.5L511.5 179.5" fill-rule="nonzero"/><path stroke="#cccccc" stroke-width="1.0" stroke-linecap="butt" d="M62.5 102.5L511.5 102.5" fill-rule="nonzero"/><path stroke="#cccccc" stroke-width="1.0" stroke-linecap="butt" d="M62.5 25.5L511.5 25.5" fill-rule="nonzero"/><clipPath id="id_0"><path d="M62.55 25.55L511.19 25.55L511.19 332.45L62.55 332.45L62.55 25.55Z" clip-rule="nonzero"/></clipPath><path stroke="#000000" stroke-width="2.0" stroke-linecap="butt" stroke-opacity="0.0" clip-path="url(#id_0)" d="M100.0 332.0L93.0 332.0L93.0 265.0C93.0 263.89542 93.89543 263.0 95.0 263.0L98.0 263.0C99.10457 263.0 100.0 263.89542 100.0 265.0Z" fill-rule="nonzero"/><path fill="#38761d" clip-path="url(#id_0)" d="M100.0 332.0L93.0 332.0L93.0 265.0C93.0 263.89542 93.89543 263.0 95.0 263.0L98.0 263.0C99.10457 263.0 100.0 263.89542 100.0 265.0Z" fill-rule="nonzero"/><path stroke="#000000" stroke-width="2.0" stroke-linecap="butt" stroke-opacity="0.0" clip-path="url(#id_0)" d="M184.0 332.0L177.0 332.0L177.0 114.0C177.0 112.89543 177.89543 112.0 179.0 112.0L182.0 112.0C183.10457 112.0 184.0 112.89543 184.0 114.0Z" fill-rule="nonzero"/><path fill="#38761d" clip-path="url(#id_0)" d="M184.0 332.0L177.0 332.0L177.0 114.0C177.0 112.89543 177.89543 112.0 179.0 112.0L182.0 112.0C183.10457 112.0 184.0 112.89543 184.0 114.0Z" fill-rule="nonzero"/><path stroke="#000000" stroke-width="2.0" stroke-linecap="butt" stroke-opacity="0.0" clip-path="url(#id_0)" d="M268.0 332.0L261.0 332.0L261.0 150.0C261.0 148.89543 261.89542 148.0 263.0 148.0L266.0 148.0C267.10458 148.0 268.0 148.89543 268.0 150.0Z" fill-rule="nonzero"/><path fill="#38761d" clip-path="url(#id_0)" d="M268.0 332.0L261.0 332.0L261.0 150.0C261.0 148.89543 261.89542 148.0 263.0 148.0L266.0 148.0C267.10458 148.0 268.0 148.89543 268.0 150.0Z" fill-rule="nonzero"/><path stroke="#000000" stroke-width="2.0" stroke-linecap="butt" stroke-opacity="0.0" clip-path="url(#id_0)" d="M352.0 332.0L345.0 332.0L345.0 252.0C345.0 250.89543 345.89542 250.0 347.0 250.0L350.0 250.0C351.10458 250.0 352.0 250.89543 352.0 252.0Z" fill-rule="nonzero"/><path fill="#38761d" clip-path="url(#id_0)" d="M352.0 332.0L345.0 332.0L345.0 252.0C345.0 250.89543 345.89542 250.0 347.0 250.0L350.0 250.0C351.10458 250.0 352.0 250.89543 352.0 252.0Z" fill-rule="nonzero"/><path stroke="#000000" stroke-width="2.0" stroke-linecap="butt" stroke-opacity="0.0" clip-path="url(#id_0)" d="M436.0 332.0L429.0 332.0L429.0 319.0C429.0 317.89542 429.89542 317.0 431.0 317.0L434.0 317.0C435.10458 317.0 436.0 317.89542 436.0 319.0Z" fill-rule="nonzero"/><path fill="#38761d" clip-path="url(#id_0)" d="M436.0 332.0L429.0 332.0L429.0 319.0C429.0 317.89542 429.89542 317.0 431.0 317.0L434.0 317.0C435.10458 317.0 436.0 317.89542 436.0 319.0Z" fill-rule="nonzero"/><path stroke="#000000" stroke-width="2.0" stroke-linecap="butt" stroke-opacity="0.0" clip-path="url(#id_0)" d="M109.0 332.0L102.0 332.0L102.0 265.0C102.0 263.89542 102.89543 263.0 104.0 263.0L107.0 263.0C108.10457 263.0 109.0 263.89542 109.0 265.0Z" fill-rule="nonzero"/><path fill="#e3e3f4" clip-path="url(#id_0)" d="M109.0 332.0L102.0 332.0L102.0 265.0C102.0 263.89542 102.89543 263.0 104.0 263.0L107.0 263.0C108.10457 263.0 109.0 263.89542 109.0 265.0Z" fill-rule="nonzero"/><path stroke="#000000" stroke-width="2.0" stroke-linecap="butt" stroke-opacity="0.0" clip-path="url(#id_0)" d="M193.0 332.0L186.0 332.0L186.0 112.0C186.0 110.89543 186.89543 110.0 188.0 110.0L191.0 110.0C192.10457 110.0 193.0 110.89543 193.0 112.0Z" fill-rule="nonzero"/><path fill="#e3e3f4" clip-path="url(#id_0)" d="M193.0 332.0L186.0 332.0L186.0 112.0C186.0 110.89543 186.89543 110.0 188.0 110.0L191.0 110.0C192.10457 110.0 193.0 110.89543 193.0 112.0Z" fill-rule="nonzero"/><path stroke="#000000" stroke-width="2.0" stroke-linecap="butt" stroke-opacity="0.0" clip-path="url(#id_0)" d="M277.0 332.0L270.0 332.0L270.0 141.0C270.0 139.89543 270.89542 139.0 272.0 139.0L275.0 139.0C276.10458 139.0 277.0 139.89543 277.0 141.0Z" fill-rule="nonzero"/><path fill="#e3e3f4" clip-path="url(#id_0)" d="M277.0 332.0L270.0 332.0L270.0 141.0C270.0 139.89543 270.89542 139.0 272.0 139.0L275.0 139.0C276.10458 139.0 277.0 139.89543 277.0 141.0Z" fill-rule="nonzero"/><path stroke="#000000" stroke-width="2.0" stroke-linecap="butt" stroke-opacity="0.0" clip-path="url(#id_0)" d="M361.0 332.0L354.0 332.0L354.0 242.0C354.0 240.89543 354.89542 240.0 356.0 240.0L359.0 240.0C360.10458 240.0 361.0 240.89543 361.0 242.0Z" fill-rule="nonzero"/><path fill="#e3e3f4" clip-path="url(#id_0)" d="M361.0 332.0L354.0 332.0L354.0 242.0C354.0 240.89543 354.89542 240.0 356.0 240.0L359.0 240.0C360.10458 240.0 361.0 240.89543 361.0 242.0Z" fill-rule="nonzero"/><path stroke="#000000" stroke-width="2.0" stroke-linecap="butt" stroke-opacity="0.0" clip-path="url(#id_0)" d="M445.0 332.0L438.0 332.0L438.0 316.0C438.0 314.89542 438.89542 314.0 440.0 314.0L443.0 314.0C444.10458 314.0 445.0 314.89542 445.0 316.0Z" fill-rule="nonzero"/><path fill="#e3e3f4" clip-path="url(#id_0)" d="M445.0 332.0L438.0 332.0L438.0 316.0C438.0 314.89542 438.89542 314.0 440.0 314.0L443.0 314.0C444.10458 314.0 445.0 314.89542 445.0 316.0Z" fill-rule="nonzero"/><path stroke="#000000" stroke-width="2.0" stroke-linecap="butt" stroke-opacity="0.0" clip-path="url(#id_0)" d="M118.0 332.0L111.0 332.0L111.0 250.0C111.0 248.89543 111.89543 248.0 113.0 248.0L116.0 248.0C117.10457 248.0 118.0 248.89543 118.0 250.0Z" fill-rule="nonzero"/><path fill="#161828" clip-path="url(#id_0)" d="M118.0 332.0L111.0 332.0L111.0 250.0C111.0 248.89543 111.89543 248.0 113.0 248.0L116.0 248.0C117.10457 248.0 118.0 248.89543 118.0 250.0Z" fill-rule="nonzero"/><path stroke="#000000" stroke-width="2.0" stroke-linecap="butt" stroke-opacity="0.0" clip-path="url(#id_0)" d="M202.0 332.0L195.0 332.0L195.0 108.0C195.0 106.89543 195.89543 106.0 197.0 106.0L200.0 106.0C201.10457 106.0 202.0 106.89543 202.0 108.0Z" fill-rule="nonzero"/><path fill="#161828" clip-path="url(#id_0)" d="M202.0 332.0L195.0 332.0L195.0 108.0C195.0 106.89543 195.89543 106.0 197.0 106.0L200.0 106.0C201.10457 106.0 202.0 106.89543 202.0 108.0Z" fill-rule="nonzero"/><path stroke="#000000" stroke-width="2.0" stroke-linecap="butt" stroke-opacity="0.0" clip-path="url(#id_0)" d="M286.0 332.0L279.0 332.0L279.0 131.0C279.0 129.89543 279.89542 129.0 281.0 129.0L284.0 129.0C285.10458 129.0 286.0 129.89543 286.0 131.0Z" fill-rule="nonzero"/><path fill="#161828" clip-path="url(#id_0)" d="M286.0 332.0L279.0 332.0L279.0 131.0C279.0 129.89543 279.89542 129.0 281.0 129.0L284.0 129.0C285.10458 129.0 286.0 129.89543 286.0 131.0Z" fill-rule="nonzero"/><path stroke="#000000" stroke-width="2.0" stroke-linecap="butt" stroke-opacity="0.0" clip-path="url(#id_0)" d="M370.0 332.0L363.0 332.0L363.0 232.0C363.0 230.89543 363.89542 230.0 365.0 230.0L368.0 230.0C369.10458 230.0 370.0 230.89543 370.0 232.0Z" fill-rule="nonzero"/><path fill="#161828" clip-path="url(#id_0)" d="M370.0 332.0L363.0 332.0L363.0 232.0C363.0 230.89543 363.89542 230.0 365.0 230.0L368.0 230.0C369.10458 230.0 370.0 230.89543 370.0 232.0Z" fill-rule="nonzero"/><path stroke="#000000" stroke-width="2.0" stroke-linecap="butt" stroke-opacity="0.0" clip-path="url(#id_0)" d="M454.0 332.0L447.0 332.0L447.0 314.0C447.0 312.89542 447.89542 312.0 449.0 312.0L452.0 312.0C453.10458 312.0 454.0 312.89542 454.0 314.0Z" fill-rule="nonzero"/><path fill="#161828" clip-path="url(#id_0)" d="M454.0 332.0L447.0 332.0L447.0 314.0C447.0 312.89542 447.89542 312.0 449.0 312.0L452.0 312.0C453.10458 312.0 454.0 312.89542 454.0 314.0Z" fill-rule="nonzero"/><path stroke="#000000" stroke-width="2.0" stroke-linecap="butt" stroke-opacity="0.0" clip-path="url(#id_0)" d="M127.0 332.0L120.0 332.0L120.0 238.0C120.0 236.89543 120.89543 236.0 122.0 236.0L125.0 236.0C126.10457 236.0 127.0 236.89543 127.0 238.0Z" fill-rule="nonzero"/><path fill="#ff5c5c" clip-path="url(#id_0)" d="M127.0 332.0L120.0 332.0L120.0 238.0C120.0 236.89543 120.89543 236.0 122.0 236.0L125.0 236.0C126.10457 236.0 127.0 236.89543 127.0 238.0Z" fill-rule="nonzero"/><path stroke="#000000" stroke-width="2.0" stroke-linecap="butt" stroke-opacity="0.0" clip-path="url(#id_0)" d="M211.0 332.0L204.0 332.0L204.0 97.0C204.0 95.89543 204.89543 95.0 206.0 95.0L209.0 95.0C210.10457 95.0 211.0 95.89543 211.0 97.0Z" fill-rule="nonzero"/><path fill="#ff5c5c" clip-path="url(#id_0)" d="M211.0 332.0L204.0 332.0L204.0 97.0C204.0 95.89543 204.89543 95.0 206.0 95.0L209.0 95.0C210.10457 95.0 211.0 95.89543 211.0 97.0Z" fill-rule="nonzero"/><path stroke="#000000" stroke-width="2.0" stroke-linecap="butt" stroke-opacity="0.0" clip-path="url(#id_0)" d="M295.0 332.0L288.0 332.0L288.0 119.0C288.0 117.89543 288.89542 117.0 290.0 117.0L293.0 117.0C294.10458 117.0 295.0 117.89543 295.0 119.0Z" fill-rule="nonzero"/><path fill="#ff5c5c" clip-path="url(#id_0)" d="M295.0 332.0L288.0 332.0L288.0 119.0C288.0 117.89543 288.89542 117.0 290.0 117.0L293.0 117.0C294.10458 117.0 295.0 117.89543 295.0 119.0Z" fill-rule="nonzero"/><path stroke="#000000" stroke-width="2.0" stroke-linecap="butt" stroke-opacity="0.0" clip-path="url(#id_0)" d="M379.0 332.0L372.0 332.0L372.0 217.0C372.0 215.89543 372.89542 215.0 374.0 215.0L377.0 215.0C378.10458 215.0 379.0 215.89543 379.0 217.0Z" fill-rule="nonzero"/><path fill="#ff5c5c" clip-path="url(#id_0)" d="M379.0 332.0L372.0 332.0L372.0 217.0C372.0 215.89543 372.89542 215.0 374.0 215.0L377.0 215.0C378.10458 215.0 379.0 215.89543 379.0 217.0Z" fill-rule="nonzero"/><path stroke="#000000" stroke-width="2.0" stroke-linecap="butt" stroke-opacity="0.0" clip-path="url(#id_0)" d="M463.0 332.0L456.0 332.0L456.0 312.0C456.0 310.89542 456.89542 310.0 458.0 310.0L461.0 310.0C462.10458 310.0 463.0 310.89542 463.0 312.0Z" fill-rule="nonzero"/><path fill="#ff5c5c" clip-path="url(#id_0)" d="M463.0 332.0L456.0 332.0L456.0 312.0C456.0 310.89542 456.89542 310.0 458.0 310.0L461.0 310.0C462.10458 310.0 463.0 310.89542 463.0 312.0Z" fill-rule="nonzero"/><path stroke="#000000" stroke-width="2.0" stroke-linecap="butt" stroke-opacity="0.0" clip-path="url(#id_0)" d="M136.0 332.0L129.0 332.0L129.0 231.0C129.0 229.89543 129.89543 229.0 131.0 229.0L134.0 229.0C135.10457 229.0 136.0 229.89543 136.0 231.0Z" fill-rule="nonzero"/><path fill="#75788d" clip-path="url(#id_0)" d="M136.0 332.0L129.0 332.0L129.0 231.0C129.0 229.89543 129.89543 229.0 131.0 229.0L134.0 229.0C135.10457 229.0 136.0 229.89543 136.0 231.0Z" fill-rule="nonzero"/><path stroke="#000000" stroke-width="2.0" stroke-linecap="butt" stroke-opacity="0.0" clip-path="url(#id_0)" d="M220.0 332.0L213.0 332.0L213.0 81.0C213.0 79.89543 213.89543 79.0 215.0 79.0L218.0 79.0C219.10457 79.0 220.0 79.89543 220.0 81.0Z" fill-rule="nonzero"/><path fill="#75788d" clip-path="url(#id_0)" d="M220.0 332.0L213.0 332.0L213.0 81.0C213.0 79.89543 213.89543 79.0 215.0 79.0L218.0 79.0C219.10457 79.0 220.0 79.89543 220.0 81.0Z" fill-rule="nonzero"/><path stroke="#000000" stroke-width="2.0" stroke-linecap="butt" stroke-opacity="0.0" clip-path="url(#id_0)" d="M304.0 332.0L297.0 332.0L297.0 113.0C297.0 111.89543 297.89542 111.0 299.0 111.0L302.0 111.0C303.10458 111.0 304.0 111.89543 304.0 113.0Z" fill-rule="nonzero"/><path fill="#75788d" clip-path="url(#id_0)" d="M304.0 332.0L297.0 332.0L297.0 113.0C297.0 111.89543 297.89542 111.0 299.0 111.0L302.0 111.0C303.10458 111.0 304.0 111.89543 304.0 113.0Z" fill-rule="nonzero"/><path stroke="#000000" stroke-width="2.0" stroke-linecap="butt" stroke-opacity="0.0" clip-path="url(#id_0)" d="M388.0 332.0L381.0 332.0L381.0 207.0C381.0 205.89543 381.89542 205.0 383.0 205.0L386.0 205.0C387.10458 205.0 388.0 205.89543 388.0 207.0Z" fill-rule="nonzero"/><path fill="#75788d" clip-path="url(#id_0)" d="M388.0 332.0L381.0 332.0L381.0 207.0C381.0 205.89543 381.89542 205.0 383.0 205.0L386.0 205.0C387.10458 205.0 388.0 205.89543 388.0 207.0Z" fill-rule="nonzero"/><path stroke="#000000" stroke-width="2.0" stroke-linecap="butt" stroke-opacity="0.0" clip-path="url(#id_0)" d="M472.0 332.0L465.0 332.0L465.0 311.0C465.0 309.89542 465.89542 309.0 467.0 309.0L470.0 309.0C471.10458 309.0 472.0 309.89542 472.0 311.0Z" fill-rule="nonzero"/><path fill="#75788d" clip-path="url(#id_0)" d="M472.0 332.0L465.0 332.0L465.0 311.0C465.0 309.89542 465.89542 309.0 467.0 309.0L470.0 309.0C471.10458 309.0 472.0 309.89542 472.0 311.0Z" fill-rule="nonzero"/><path stroke="#000000" stroke-width="2.0" stroke-linecap="butt" stroke-opacity="0.0" clip-path="url(#id_0)" d="M145.0 332.0L138.0 332.0L138.0 230.0C138.0 228.89543 138.89543 228.0 140.0 228.0L143.0 228.0C144.10457 228.0 145.0 228.89543 145.0 230.0Z" fill-rule="nonzero"/><path fill="#6ac86f" clip-path="url(#id_0)" d="M145.0 332.0L138.0 332.0L138.0 230.0C138.0 228.89543 138.89543 228.0 140.0 228.0L143.0 228.0C144.10457 228.0 145.0 228.89543 145.0 230.0Z" fill-rule="nonzero"/><path stroke="#000000" stroke-width="2.0" stroke-linecap="butt" stroke-opacity="0.0" clip-path="url(#id_0)" d="M229.0 332.0L222.0 332.0L222.0 72.0C222.0 70.89543 222.89543 70.0 224.0 70.0L227.0 70.0C228.10457 70.0 229.0 70.89543 229.0 72.0Z" fill-rule="nonzero"/><path fill="#6ac86f" clip-path="url(#id_0)" d="M229.0 332.0L222.0 332.0L222.0 72.0C222.0 70.89543 222.89543 70.0 224.0 70.0L227.0 70.0C228.10457 70.0 229.0 70.89543 229.0 72.0Z" fill-rule="nonzero"/><path stroke="#000000" stroke-width="2.0" stroke-linecap="butt" stroke-opacity="0.0" clip-path="url(#id_0)" d="M313.0 332.0L306.0 332.0L306.0 107.0C306.0 105.89543 306.89542 105.0 308.0 105.0L311.0 105.0C312.10458 105.0 313.0 105.89543 313.0 107.0Z" fill-rule="nonzero"/><path fill="#6ac86f" clip-path="url(#id_0)" d="M313.0 332.0L306.0 332.0L306.0 107.0C306.0 105.89543 306.89542 105.0 308.0 105.0L311.0 105.0C312.10458 105.0 313.0 105.89543 313.0 107.0Z" fill-rule="nonzero"/><path stroke="#000000" stroke-width="2.0" stroke-linecap="butt" stroke-opacity="0.0" clip-path="url(#id_0)" d="M397.0 332.0L390.0 332.0L390.0 195.0C390.0 193.89543 390.89542 193.0 392.0 193.0L395.0 193.0C396.10458 193.0 397.0 193.89543 397.0 195.0Z" fill-rule="nonzero"/><path fill="#6ac86f" clip-path="url(#id_0)" d="M397.0 332.0L390.0 332.0L390.0 195.0C390.0 193.89543 390.89542 193.0 392.0 193.0L395.0 193.0C396.10458 193.0 397.0 193.89543 397.0 195.0Z" fill-rule="nonzero"/><path stroke="#000000" stroke-width="2.0" stroke-linecap="butt" stroke-opacity="0.0" clip-path="url(#id_0)" d="M481.0 332.0L474.0 332.0L474.0 309.0C474.0 307.89542 474.89542 307.0 476.0 307.0L479.0 307.0C480.10458 307.0 481.0 307.89542 481.0 309.0Z" fill-rule="nonzero"/><path fill="#6ac86f" clip-path="url(#id_0)" d="M481.0 332.0L474.0 332.0L474.0 309.0C474.0 307.89542 474.89542 307.0 476.0 307.0L479.0 307.0C480.10458 307.0 481.0 307.89542 481.0 309.0Z" fill-rule="nonzero"/><path fill="#161828" d="M50.05 332.21564Q50.05 330.6844 50.3625 329.7625Q50.675 328.825 51.284374 328.325Q51.909374 327.825 52.846874 327.825Q53.534374 327.825 54.05 328.10626Q54.58125 328.3875 54.925 328.91876Q55.26875 329.4344 55.45625 330.1844Q55.64375 330.9344 55.64375 332.21564Q55.64375 333.73126 55.33125 334.65314Q55.034374 335.575 54.409374 336.09064Q53.8 336.59064 52.846874 336.59064Q51.6125 336.59064 50.89375 335.7Q50.05 334.6375 50.05 332.21564ZM51.128124 332.21564Q51.128124 334.325 51.628124 335.02814Q52.128124 335.73126 52.846874 335.73126Q53.58125 335.73126 54.065624 335.02814Q54.565624 334.325 54.565624 332.21564Q54.565624 330.09064 54.065624 329.40314Q53.58125 328.7 52.83125 328.7Q52.1125 328.7 51.675 329.3094Q51.128124 330.09064 51.128124 332.21564Z" fill-rule="nonzero"/><path fill="#161828" d="M31.596874 258.70938L31.596874 259.725L25.909374 259.725Q25.909374 259.35 26.034374 258.99063Q26.253124 258.4125 26.721874 257.85Q27.20625 257.2875 28.1125 256.55313Q29.51875 255.39688 30.003124 254.725Q30.503124 254.05313 30.503124 253.45938Q30.503124 252.83438 30.05 252.4125Q29.596874 251.975 28.878124 251.975Q28.1125 251.975 27.659374 252.42813Q27.20625 252.88126 27.190624 253.69376L26.1125 253.58438Q26.221874 252.36563 26.940624 251.74063Q27.675 251.1 28.909374 251.1Q30.14375 251.1 30.8625 251.7875Q31.58125 252.475 31.58125 253.49063Q31.58125 254.00626 31.3625 254.50626Q31.159374 254.99063 30.659374 255.55313Q30.175 256.1 29.05 257.05313Q28.096874 257.85 27.815624 258.14688Q27.55 258.42813 27.378124 258.70938L31.596874 258.70938ZM33.6125 259.725L33.6125 258.52188L34.815624 258.52188L34.815624 259.725Q34.815624 260.38126 34.58125 260.7875Q34.346874 261.20938 33.846874 261.42813L33.55 260.975Q33.878124 260.83438 34.034374 260.5375Q34.190624 260.25626 34.221874 259.725L33.6125 259.725ZM36.05 257.475L37.159374 257.38126Q37.284374 258.19376 37.721874 258.6Q38.175 259.00626 38.815624 259.00626Q39.565624 259.00626 40.096874 258.42813Q40.628124 257.85 40.628124 256.9125Q40.628124 256.00626 40.1125 255.49063Q39.6125 254.95938 38.784374 254.95938Q38.284374 254.95938 37.8625 255.19376Q37.45625 255.42813 37.221874 255.7875L36.2375 255.6625L37.065624 251.25626L41.346874 251.25626L41.346874 252.25626L37.909374 252.25626L37.45625 254.56876Q38.221874 254.02188 39.065624 254.02188Q40.190624 254.02188 40.95625 254.80313Q41.7375 255.58438 41.7375 256.81876Q41.7375 257.975 41.065624 258.83438Q40.2375 259.86563 38.815624 259.86563Q37.64375 259.86563 36.89375 259.20938Q36.159374 258.55313 36.05 257.475ZM43.05 255.49063Q43.05 253.95938 43.3625 253.0375Q43.675 252.1 44.284374 251.6Q44.909374 251.1 45.846874 251.1Q46.534374 251.1 47.05 251.38126Q47.58125 251.6625 47.925 252.19376Q48.26875 252.70938 48.45625 253.45938Q48.64375 254.20938 48.64375 255.49063Q48.64375 257.00626 48.33125 257.92813Q48.034374 258.85 47.409374 259.36563Q46.8 259.86563 45.846874 259.86563Q44.6125 259.86563 43.89375 258.975Q43.05 257.9125 43.05 255.49063ZM44.128124 255.49063Q44.128124 257.6 44.628124 258.30313Q45.128124 259.00626 45.846874 259.00626Q46.58125 259.00626 47.065624 258.30313Q47.565624 257.6 47.565624 255.49063Q47.565624 253.36563 47.065624 252.67813Q46.58125 251.975 45.83125 251.975Q45.1125 251.975 44.675 252.58438Q44.128124 253.36563 44.128124 255.49063ZM50.05 255.49063Q50.05 253.95938 50.3625 253.0375Q50.675 252.1 51.284374 251.6Q51.909374 251.1 52.846874 251.1Q53.534374 251.1 54.05 251.38126Q54.58125 251.6625 54.925 252.19376Q55.26875 252.70938 55.45625 253.45938Q55.64375 254.20938 55.64375 255.49063Q55.64375 257.00626 55.33125 257.92813Q55.034374 258.85 54.409374 259.36563Q53.8 259.86563 52.846874 259.86563Q51.6125 259.86563 50.89375 258.975Q50.05 257.9125 50.05 255.49063ZM51.128124 255.49063Q51.128124 257.6 51.628124 258.30313Q52.128124 259.00626 52.846874 259.00626Q53.58125 259.00626 54.065624 258.30313Q54.565624 257.6 54.565624 255.49063Q54.565624 253.36563 54.065624 252.67813Q53.58125 251.975 52.83125 251.975Q52.1125 251.975 51.675 252.58438Q51.128124 253.36563 51.128124 255.49063Z" fill-rule="nonzero"/><path fill="#161828" d="M26.05 180.75L27.159374 180.65625Q27.284374 181.46875 27.721874 181.875Q28.175 182.28125 28.815624 182.28125Q29.565624 182.28125 30.096874 181.70312Q30.628124 181.125 30.628124 180.1875Q30.628124 179.28125 30.1125 178.76562Q29.6125 178.23438 28.784374 178.23438Q28.284374 178.23438 27.8625 178.46875Q27.45625 178.70312 27.221874 179.0625L26.2375 178.9375L27.065624 174.53125L31.346874 174.53125L31.346874 175.53125L27.909374 175.53125L27.45625 177.84375Q28.221874 177.29688 29.065624 177.29688Q30.190624 177.29688 30.95625 178.07812Q31.7375 178.85938 31.7375 180.09375Q31.7375 181.25 31.065624 182.10938Q30.2375 183.14062 28.815624 183.14062Q27.64375 183.14062 26.89375 182.48438Q26.159374 181.82812 26.05 180.75ZM33.6125 183.0L33.6125 181.79688L34.815624 181.79688L34.815624 183.0Q34.815624 183.65625 34.58125 184.0625Q34.346874 184.48438 33.846874 184.70312L33.55 184.25Q33.878124 184.10938 34.034374 183.8125Q34.190624 183.53125 34.221874 183.0L33.6125 183.0ZM36.05 178.76562Q36.05 177.23438 36.3625 176.3125Q36.675 175.375 37.284374 174.875Q37.909374 174.375 38.846874 174.375Q39.534374 174.375 40.05 174.65625Q40.58125 174.9375 40.925 175.46875Q41.26875 175.98438 41.45625 176.73438Q41.64375 177.48438 41.64375 178.76562Q41.64375 180.28125 41.33125 181.20312Q41.034374 182.125 40.409374 182.64062Q39.8 183.14062 38.846874 183.14062Q37.6125 183.14062 36.89375 182.25Q36.05 181.1875 36.05 178.76562ZM37.128124 178.76562Q37.128124 180.875 37.628124 181.57812Q38.128124 182.28125 38.846874 182.28125Q39.58125 182.28125 40.065624 181.57812Q40.565624 180.875 40.565624 178.76562Q40.565624 176.64062 40.065624 175.95312Q39.58125 175.25 38.83125 175.25Q38.1125 175.25 37.675 175.85938Q37.128124 176.64062 37.128124 178.76562ZM43.05 178.76562Q43.05 177.23438 43.3625 176.3125Q43.675 175.375 44.284374 174.875Q44.909374 174.375 45.846874 174.375Q46.534374 174.375 47.05 174.65625Q47.58125 174.9375 47.925 175.46875Q48.26875 175.98438 48.45625 176.73438Q48.64375 177.48438 48.64375 178.76562Q48.64375 180.28125 48.33125 181.20312Q48.034374 182.125 47.409374 182.64062Q46.8 183.14062 45.846874 183.14062Q44.6125 183.14062 43.89375 182.25Q43.05 181.1875 43.05 178.76562ZM44.128124 178.76562Q44.128124 180.875 44.628124 181.57812Q45.128124 182.28125 45.846874 182.28125Q46.58125 182.28125 47.065624 181.57812Q47.565624 180.875 47.565624 178.76562Q47.565624 176.64062 47.065624 175.95312Q46.58125 175.25 45.83125 175.25Q45.1125 175.25 44.675 175.85938Q44.128124 176.64062 44.128124 178.76562ZM50.05 178.76562Q50.05 177.23438 50.3625 176.3125Q50.675 175.375 51.284374 174.875Q51.909374 174.375 52.846874 174.375Q53.534374 174.375 54.05 174.65625Q54.58125 174.9375 54.925 175.46875Q55.26875 175.98438 55.45625 176.73438Q55.64375 177.48438 55.64375 178.76562Q55.64375 180.28125 55.33125 181.20312Q55.034374 182.125 54.409374 182.64062Q53.8 183.14062 52.846874 183.14062Q51.6125 183.14062 50.89375 182.25Q50.05 181.1875 50.05 178.76562ZM51.128124 178.76562Q51.128124 180.875 51.628124 181.57812Q52.128124 182.28125 52.846874 182.28125Q53.58125 182.28125 54.065624 181.57812Q54.565624 180.875 54.565624 178.76562Q54.565624 176.64062 54.065624 175.95312Q53.58125 175.25 52.83125 175.25Q52.1125 175.25 51.675 175.85938Q51.128124 176.64062 51.128124 178.76562Z" fill-rule="nonzero"/><path fill="#161828" d="M26.1125 98.80625L26.1125 97.79063L31.675 97.79063L31.675 98.61875Q30.8625 99.49375 30.05 100.94688Q29.253124 102.38438 28.815624 103.91563Q28.4875 104.99375 28.409374 106.275L27.315624 106.275Q27.33125 105.25938 27.70625 103.82188Q28.096874 102.38438 28.8 101.05625Q29.51875 99.72813 30.33125 98.80625L26.1125 98.80625ZM33.6125 106.275L33.6125 105.07188L34.815624 105.07188L34.815624 106.275Q34.815624 106.93125 34.58125 107.3375Q34.346874 107.75938 33.846874 107.97813L33.55 107.525Q33.878124 107.38438 34.034374 107.0875Q34.190624 106.80625 34.221874 106.275L33.6125 106.275ZM36.05 104.025L37.159374 103.93125Q37.284374 104.74375 37.721874 105.15Q38.175 105.55625 38.815624 105.55625Q39.565624 105.55625 40.096874 104.97813Q40.628124 104.4 40.628124 103.4625Q40.628124 102.55625 40.1125 102.04063Q39.6125 101.50938 38.784374 101.50938Q38.284374 101.50938 37.8625 101.74375Q37.45625 101.97813 37.221874 102.3375L36.2375 102.2125L37.065624 97.80625L41.346874 97.80625L41.346874 98.80625L37.909374 98.80625L37.45625 101.11875Q38.221874 100.57188 39.065624 100.57188Q40.190624 100.57188 40.95625 101.35313Q41.7375 102.13438 41.7375 103.36875Q41.7375 104.525 41.065624 105.38438Q40.2375 106.41563 38.815624 106.41563Q37.64375 106.41563 36.89375 105.75938Q36.159374 105.10313 36.05 104.025ZM43.05 102.04063Q43.05 100.50938 43.3625 99.5875Q43.675 98.65 44.284374 98.15Q44.909374 97.65 45.846874 97.65Q46.534374 97.65 47.05 97.93125Q47.58125 98.2125 47.925 98.74375Q48.26875 99.25938 48.45625 100.00938Q48.64375 100.75938 48.64375 102.04063Q48.64375 103.55625 48.33125 104.47813Q48.034374 105.4 47.409374 105.91563Q46.8 106.41563 45.846874 106.41563Q44.6125 106.41563 43.89375 105.525Q43.05 104.4625 43.05 102.04063ZM44.128124 102.04063Q44.128124 104.15 44.628124 104.85313Q45.128124 105.55625 45.846874 105.55625Q46.58125 105.55625 47.065624 104.85313Q47.565624 104.15 47.565624 102.04063Q47.565624 99.91563 47.065624 99.22813Q46.58125 98.525 45.83125 98.525Q45.1125 98.525 44.675 99.13438Q44.128124 99.91563 44.128124 102.04063ZM50.05 102.04063Q50.05 100.50938 50.3625 99.5875Q50.675 98.65 51.284374 98.15Q51.909374 97.65 52.846874 97.65Q53.534374 97.65 54.05 97.93125Q54.58125 98.2125 54.925 98.74375Q55.26875 99.25938 55.45625 100.00938Q55.64375 100.75938 55.64375 102.04063Q55.64375 103.55625 55.33125 104.47813Q55.034374 105.4 54.409374 105.91563Q53.8 106.41563 52.846874 106.41563Q51.6125 106.41563 50.89375 105.525Q50.05 104.4625 50.05 102.04063ZM51.128124 102.04063Q51.128124 104.15 51.628124 104.85313Q52.128124 105.55625 52.846874 105.55625Q53.58125 105.55625 54.065624 104.85313Q54.565624 104.15 54.565624 102.04063Q54.565624 99.91563 54.065624 99.22813Q53.58125 98.525 52.83125 98.525Q52.1125 98.525 51.675 99.13438Q51.128124 99.91563 51.128124 102.04063Z" fill-rule="nonzero"/><path fill="#161828" d="M23.01875 29.55L21.971874 29.55L21.971874 22.83125Q21.58125 23.190624 20.95625 23.565624Q20.346874 23.925 19.8625 24.096874L19.8625 23.08125Q20.7375 22.659374 21.39375 22.08125Q22.065624 21.4875 22.346874 20.925L23.01875 20.925L23.01875 29.55ZM26.05 25.315624Q26.05 23.784374 26.3625 22.8625Q26.675 21.925 27.284374 21.425Q27.909374 20.925 28.846874 20.925Q29.534374 20.925 30.05 21.20625Q30.58125 21.4875 30.925 22.01875Q31.26875 22.534374 31.45625 23.284374Q31.64375 24.034374 31.64375 25.315624Q31.64375 26.83125 31.33125 27.753124Q31.034374 28.675 30.409374 29.190624Q29.8 29.690624 28.846874 29.690624Q27.6125 29.690624 26.89375 28.8Q26.05 27.7375 26.05 25.315624ZM27.128124 25.315624Q27.128124 27.425 27.628124 28.128124Q28.128124 28.83125 28.846874 28.83125Q29.58125 28.83125 30.065624 28.128124Q30.565624 27.425 30.565624 25.315624Q30.565624 23.190624 30.065624 22.503124Q29.58125 21.8 28.83125 21.8Q28.1125 21.8 27.675 22.409374Q27.128124 23.190624 27.128124 25.315624ZM33.6125 29.55L33.6125 28.346874L34.815624 28.346874L34.815624 29.55Q34.815624 30.20625 34.58125 30.6125Q34.346874 31.034374 33.846874 31.253124L33.55 30.8Q33.878124 30.659374 34.034374 30.3625Q34.190624 30.08125 34.221874 29.55L33.6125 29.55ZM36.05 25.315624Q36.05 23.784374 36.3625 22.8625Q36.675 21.925 37.284374 21.425Q37.909374 20.925 38.846874 20.925Q39.534374 20.925 40.05 21.20625Q40.58125 21.4875 40.925 22.01875Q41.26875 22.534374 41.45625 23.284374Q41.64375 24.034374 41.64375 25.315624Q41.64375 26.83125 41.33125 27.753124Q41.034374 28.675 40.409374 29.190624Q39.8 29.690624 38.846874 29.690624Q37.6125 29.690624 36.89375 28.8Q36.05 27.7375 36.05 25.315624ZM37.128124 25.315624Q37.128124 27.425 37.628124 28.128124Q38.128124 28.83125 38.846874 28.83125Q39.58125 28.83125 40.065624 28.128124Q40.565624 27.425 40.565624 25.315624Q40.565624 23.190624 40.065624 22.503124Q39.58125 21.8 38.83125 21.8Q38.1125 21.8 37.675 22.409374Q37.128124 23.190624 37.128124 25.315624ZM43.05 25.315624Q43.05 23.784374 43.3625 22.8625Q43.675 21.925 44.284374 21.425Q44.909374 20.925 45.846874 20.925Q46.534374 20.925 47.05 21.20625Q47.58125 21.4875 47.925 22.01875Q48.26875 22.534374 48.45625 23.284374Q48.64375 24.034374 48.64375 25.315624Q48.64375 26.83125 48.33125 27.753124Q48.034374 28.675 47.409374 29.190624Q46.8 29.690624 45.846874 29.690624Q44.6125 29.690624 43.89375 28.8Q43.05 27.7375 43.05 25.315624ZM44.128124 25.315624Q44.128124 27.425 44.628124 28.128124Q45.128124 28.83125 45.846874 28.83125Q46.58125 28.83125 47.065624 28.128124Q47.565624 27.425 47.565624 25.315624Q47.565624 23.190624 47.065624 22.503124Q46.58125 21.8 45.83125 21.8Q45.1125 21.8 44.675 22.409374Q44.128124 23.190624 44.128124 25.315624ZM50.05 25.315624Q50.05 23.784374 50.3625 22.8625Q50.675 21.925 51.284374 21.425Q51.909374 20.925 52.846874 20.925Q53.534374 20.925 54.05 21.20625Q54.58125 21.4875 54.925 22.01875Q55.26875 22.534374 55.45625 23.284374Q55.64375 24.034374 55.64375 25.315624Q55.64375 26.83125 55.33125 27.753124Q55.034374 28.675 54.409374 29.190624Q53.8 29.690624 52.846874 29.690624Q51.6125 29.690624 50.89375 28.8Q50.05 27.7375 50.05 25.315624ZM51.128124 25.315624Q51.128124 27.425 51.628124 28.128124Q52.128124 28.83125 52.846874 28.83125Q53.58125 28.83125 54.065624 28.128124Q54.565624 27.425 54.565624 25.315624Q54.565624 23.190624 54.065624 22.503124Q53.58125 21.8 52.83125 21.8Q52.1125 21.8 51.675 22.409374Q51.128124 23.190624 51.128124 25.315624Z" fill-rule="nonzero"/><path fill="#161828" d="M107.62286 349.45L106.57599 349.45L106.57599 342.73126Q106.18536 343.09064 105.56036 343.46564Q104.95099 343.825 104.46661 343.9969L104.46661 342.98126Q105.34161 342.5594 105.99786 341.98126Q106.66974 341.3875 106.95099 340.825L107.62286 340.825L107.62286 349.45ZM116.12286 342.96564L115.07599 343.04376Q114.93536 342.41876 114.68536 342.1375Q114.24786 341.6844 113.62286 341.6844Q113.12286 341.6844 112.73224 341.96564Q112.24786 342.34064 111.95099 343.04376Q111.66974 343.73126 111.65411 345.0125Q112.02911 344.4344 112.57599 344.15314Q113.13849 343.8719 113.74786 343.8719Q114.79474 343.8719 115.52911 344.65314Q116.27911 345.4344 116.27911 346.65314Q116.27911 347.46564 115.91974 348.16876Q115.57599 348.85626 114.96661 349.23126Q114.35724 349.59064 113.59161 349.59064Q112.26349 349.59064 111.43536 348.6219Q110.60724 347.65314 110.60724 345.4344Q110.60724 342.9344 111.52911 341.8094Q112.32599 340.825 113.68536 340.825Q114.70099 340.825 115.34161 341.40314Q115.99786 341.96564 116.12286 342.96564ZM111.82599 346.66876Q111.82599 347.21564 112.04474 347.71564Q112.27911 348.2 112.68536 348.46564Q113.10724 348.73126 113.57599 348.73126Q114.23224 348.73126 114.71661 348.2Q115.20099 347.65314 115.20099 346.73126Q115.20099 345.84064 114.71661 345.325Q114.24786 344.8094 113.52911 344.8094Q112.81036 344.8094 112.31036 345.325Q111.82599 345.84064 111.82599 346.66876ZM117.52911 346.8719L117.52911 345.8094L120.77911 345.8094L120.77911 346.8719L117.52911 346.8719ZM127.20099 348.4344L127.20099 349.45L121.51349 349.45Q121.51349 349.075 121.63849 348.71564Q121.85724 348.1375 122.32599 347.575Q122.81036 347.0125 123.71661 346.27814Q125.12286 345.1219 125.60724 344.45Q126.10724 343.77814 126.10724 343.1844Q126.10724 342.5594 125.65411 342.1375Q125.20099 341.7 124.48224 341.7Q123.71661 341.7 123.26349 342.15314Q122.81036 342.60626 122.79474 343.41876L121.71661 343.3094Q121.82599 342.09064 122.54474 341.46564Q123.27911 340.825 124.51349 340.825Q125.74786 340.825 126.46661 341.5125Q127.18536 342.2 127.18536 343.21564Q127.18536 343.73126 126.96661 344.23126Q126.76349 344.71564 126.26349 345.27814Q125.77911 345.825 124.65411 346.77814Q123.70099 347.575 123.41974 347.8719Q123.15411 348.15314 122.98224 348.4344L127.20099 348.4344ZM128.81036 347.46564L129.82599 347.3719Q129.95099 348.09064 130.31036 348.41876Q130.68536 348.73126 131.24786 348.73126Q131.73224 348.73126 132.09161 348.5125Q132.46661 348.27814 132.70099 347.91876Q132.93536 347.54376 133.09161 346.91876Q133.24786 346.27814 133.24786 345.6219Q133.24786 345.54376 133.24786 345.40314Q132.93536 345.90314 132.38849 346.23126Q131.84161 346.54376 131.20099 346.54376Q130.12286 346.54376 129.38849 345.77814Q128.65411 344.9969 128.65411 343.73126Q128.65411 342.41876 129.41974 341.6219Q130.20099 340.825 131.35724 340.825Q132.18536 340.825 132.87286 341.27814Q133.57599 341.73126 133.93536 342.575Q134.29474 343.40314 134.29474 344.98126Q134.29474 346.6219 133.93536 347.60626Q133.59161 348.575 132.87286 349.09064Q132.16974 349.59064 131.23224 349.59064Q130.21661 349.59064 129.57599 349.04376Q128.93536 348.48126 128.81036 347.46564ZM133.12286 343.66876Q133.12286 342.7625 132.63849 342.23126Q132.16974 341.7 131.48224 341.7Q130.77911 341.7 130.24786 342.27814Q129.73224 342.84064 129.73224 343.7625Q129.73224 344.575 130.23224 345.09064Q130.73224 345.60626 131.45099 345.60626Q132.18536 345.60626 132.65411 345.09064Q133.12286 344.575 133.12286 343.66876Z" fill-rule="nonzero"/><path fill="#161828" d="M187.51205 347.1844L188.57455 347.04376Q188.74643 347.9344 189.18393 348.34064Q189.62143 348.73126 190.24643 348.73126Q190.99643 348.73126 191.51205 348.21564Q192.02768 347.7 192.02768 346.9344Q192.02768 346.21564 191.5433 345.7469Q191.07455 345.2625 190.34018 345.2625Q190.0433 345.2625 189.59018 345.3875L189.71518 344.45Q189.82455 344.46564 189.88705 344.46564Q190.55893 344.46564 191.09018 344.1219Q191.63705 343.7625 191.63705 343.02814Q191.63705 342.45 191.24643 342.075Q190.8558 341.6844 190.2308 341.6844Q189.62143 341.6844 189.19955 342.075Q188.7933 342.46564 188.68393 343.23126L187.62143 343.04376Q187.80893 341.9969 188.49643 341.41876Q189.18393 340.825 190.19955 340.825Q190.90268 340.825 191.49643 341.1375Q192.09018 341.4344 192.40268 341.95Q192.71518 342.46564 192.71518 343.0594Q192.71518 343.60626 192.4183 344.075Q192.12143 344.52814 191.5433 344.79376Q192.2933 344.96564 192.71518 345.52814Q193.13705 346.075 193.13705 346.91876Q193.13705 348.04376 192.30893 348.825Q191.49643 349.60626 190.24643 349.60626Q189.12143 349.60626 188.37143 348.9344Q187.62143 348.2469 187.51205 347.1844ZM194.51205 345.21564Q194.51205 343.6844 194.82455 342.7625Q195.13705 341.825 195.74643 341.325Q196.37143 340.825 197.30893 340.825Q197.99643 340.825 198.51205 341.10626Q199.0433 341.3875 199.38705 341.91876Q199.7308 342.4344 199.9183 343.1844Q200.1058 343.9344 200.1058 345.21564Q200.1058 346.73126 199.7933 347.65314Q199.49643 348.575 198.87143 349.09064Q198.26205 349.59064 197.30893 349.59064Q196.07455 349.59064 195.3558 348.7Q194.51205 347.6375 194.51205 345.21564ZM195.59018 345.21564Q195.59018 347.325 196.09018 348.02814Q196.59018 348.73126 197.30893 348.73126Q198.0433 348.73126 198.52768 348.02814Q199.02768 347.325 199.02768 345.21564Q199.02768 343.09064 198.52768 342.40314Q198.0433 341.7 197.2933 341.7Q196.57455 341.7 196.13705 342.3094Q195.59018 343.09064 195.59018 345.21564ZM201.38705 346.8719L201.38705 345.8094L204.63705 345.8094L204.63705 346.8719L201.38705 346.8719ZM205.51205 347.1844L206.57455 347.04376Q206.74643 347.9344 207.18393 348.34064Q207.62143 348.73126 208.24643 348.73126Q208.99643 348.73126 209.51205 348.21564Q210.02768 347.7 210.02768 346.9344Q210.02768 346.21564 209.5433 345.7469Q209.07455 345.2625 208.34018 345.2625Q208.0433 345.2625 207.59018 345.3875L207.71518 344.45Q207.82455 344.46564 207.88705 344.46564Q208.55893 344.46564 209.09018 344.1219Q209.63705 343.7625 209.63705 343.02814Q209.63705 342.45 209.24643 342.075Q208.8558 341.6844 208.2308 341.6844Q207.62143 341.6844 207.19955 342.075Q206.7933 342.46564 206.68393 343.23126L205.62143 343.04376Q205.80893 341.9969 206.49643 341.41876Q207.18393 340.825 208.19955 340.825Q208.90268 340.825 209.49643 341.1375Q210.09018 341.4344 210.40268 341.95Q210.71518 342.46564 210.71518 343.0594Q210.71518 343.60626 210.4183 344.075Q210.12143 344.52814 209.5433 344.79376Q210.2933 344.96564 210.71518 345.52814Q211.13705 346.075 211.13705 346.91876Q211.13705 348.04376 210.30893 348.825Q209.49643 349.60626 208.24643 349.60626Q207.12143 349.60626 206.37143 348.9344Q205.62143 348.2469 205.51205 347.1844ZM212.6683 347.46564L213.68393 347.3719Q213.80893 348.09064 214.1683 348.41876Q214.5433 348.73126 215.1058 348.73126Q215.59018 348.73126 215.94955 348.5125Q216.32455 348.27814 216.55893 347.91876Q216.7933 347.54376 216.94955 346.91876Q217.1058 346.27814 217.1058 345.6219Q217.1058 345.54376 217.1058 345.40314Q216.7933 345.90314 216.24643 346.23126Q215.69955 346.54376 215.05893 346.54376Q213.9808 346.54376 213.24643 345.77814Q212.51205 344.9969 212.51205 343.73126Q212.51205 342.41876 213.27768 341.6219Q214.05893 340.825 215.21518 340.825Q216.0433 340.825 216.7308 341.27814Q217.43393 341.73126 217.7933 342.575Q218.15268 343.40314 218.15268 344.98126Q218.15268 346.6219 217.7933 347.60626Q217.44955 348.575 216.7308 349.09064Q216.02768 349.59064 215.09018 349.59064Q214.07455 349.59064 213.43393 349.04376Q212.7933 348.48126 212.6683 347.46564ZM216.9808 343.66876Q216.9808 342.7625 216.49643 342.23126Q216.02768 341.7 215.34018 341.7Q214.63705 341.7 214.1058 342.27814Q213.59018 342.84064 213.59018 343.7625Q213.59018 344.575 214.09018 345.09064Q214.59018 345.60626 215.30893 345.60626Q216.0433 345.60626 216.51205 345.09064Q216.9808 344.575 216.9808 343.66876Z" fill-rule="nonzero"/><path fill="#161828" d="M274.745 349.45L274.745 347.3875L271.02625 347.3875L271.02625 346.41876L274.94812 340.85626L275.8075 340.85626L275.8075 346.41876L276.96375 346.41876L276.96375 347.3875L275.8075 347.3875L275.8075 349.45L274.745 349.45ZM274.745 346.41876L274.745 342.5594L272.0575 346.41876L274.745 346.41876ZM278.37 345.21564Q278.37 343.6844 278.6825 342.7625Q278.995 341.825 279.60437 341.325Q280.22937 340.825 281.16687 340.825Q281.85437 340.825 282.37 341.10626Q282.90125 341.3875 283.245 341.91876Q283.58875 342.4344 283.77625 343.1844Q283.96375 343.9344 283.96375 345.21564Q283.96375 346.73126 283.65125 347.65314Q283.35437 348.575 282.72937 349.09064Q282.12 349.59064 281.16687 349.59064Q279.9325 349.59064 279.21375 348.7Q278.37 347.6375 278.37 345.21564ZM279.44812 345.21564Q279.44812 347.325 279.94812 348.02814Q280.44812 348.73126 281.16687 348.73126Q281.90125 348.73126 282.38562 348.02814Q282.88562 347.325 282.88562 345.21564Q282.88562 343.09064 282.38562 342.40314Q281.90125 341.7 281.15125 341.7Q280.4325 341.7 279.995 342.3094Q279.44812 343.09064 279.44812 345.21564ZM285.245 346.8719L285.245 345.8094L288.495 345.8094L288.495 346.8719L285.245 346.8719ZM292.745 349.45L292.745 347.3875L289.02625 347.3875L289.02625 346.41876L292.94812 340.85626L293.8075 340.85626L293.8075 346.41876L294.96375 346.41876L294.96375 347.3875L293.8075 347.3875L293.8075 349.45L292.745 349.45ZM292.745 346.41876L292.745 342.5594L290.0575 346.41876L292.745 346.41876ZM296.52625 347.46564L297.54187 347.3719Q297.66687 348.09064 298.02625 348.41876Q298.40125 348.73126 298.96375 348.73126Q299.44812 348.73126 299.8075 348.5125Q300.1825 348.27814 300.41687 347.91876Q300.65125 347.54376 300.8075 346.91876Q300.96375 346.27814 300.96375 345.6219Q300.96375 345.54376 300.96375 345.40314Q300.65125 345.90314 300.10437 346.23126Q299.5575 346.54376 298.91687 346.54376Q297.83875 346.54376 297.10437 345.77814Q296.37 344.9969 296.37 343.73126Q296.37 342.41876 297.13562 341.6219Q297.91687 340.825 299.07312 340.825Q299.90125 340.825 300.58875 341.27814Q301.29187 341.73126 301.65125 342.575Q302.01062 343.40314 302.01062 344.98126Q302.01062 346.6219 301.65125 347.60626Q301.3075 348.575 300.58875 349.09064Q299.88562 349.59064 298.94812 349.59064Q297.9325 349.59064 297.29187 349.04376Q296.65125 348.48126 296.52625 347.46564ZM300.83875 343.66876Q300.83875 342.7625 300.35437 342.23126Q299.88562 341.7 299.19812 341.7Q298.495 341.7 297.96375 342.27814Q297.44812 342.84064 297.44812 343.7625Q297.44812 344.575 297.94812 345.09064Q298.44812 345.60626 299.16687 345.60626Q299.90125 345.60626 300.37 345.09064Q300.83875 344.575 300.83875 343.66876Z" fill-rule="nonzero"/><path fill="#161828" d="M355.22794 347.2L356.3373 347.10626Q356.4623 347.91876 356.8998 348.325Q357.35294 348.73126 357.99356 348.73126Q358.74356 348.73126 359.2748 348.15314Q359.80606 347.575 359.80606 346.6375Q359.80606 345.73126 359.29044 345.21564Q358.79044 344.6844 357.9623 344.6844Q357.4623 344.6844 357.04044 344.91876Q356.6342 345.15314 356.3998 345.5125L355.41544 345.3875L356.24356 340.98126L360.5248 340.98126L360.5248 341.98126L357.0873 341.98126L356.6342 344.29376Q357.3998 343.7469 358.24356 343.7469Q359.36856 343.7469 360.1342 344.52814Q360.91544 345.3094 360.91544 346.54376Q360.91544 347.7 360.24356 348.5594Q359.41544 349.59064 357.99356 349.59064Q356.8217 349.59064 356.0717 348.9344Q355.3373 348.27814 355.22794 347.2ZM362.22794 345.21564Q362.22794 343.6844 362.54044 342.7625Q362.85294 341.825 363.4623 341.325Q364.0873 340.825 365.0248 340.825Q365.7123 340.825 366.22794 341.10626Q366.7592 341.3875 367.10294 341.91876Q367.4467 342.4344 367.6342 343.1844Q367.8217 343.9344 367.8217 345.21564Q367.8217 346.73126 367.5092 347.65314Q367.2123 348.575 366.5873 349.09064Q365.97794 349.59064 365.0248 349.59064Q363.79044 349.59064 363.0717 348.7Q362.22794 347.6375 362.22794 345.21564ZM363.30606 345.21564Q363.30606 347.325 363.80606 348.02814Q364.30606 348.73126 365.0248 348.73126Q365.7592 348.73126 366.24356 348.02814Q366.74356 347.325 366.74356 345.21564Q366.74356 343.09064 366.24356 342.40314Q365.7592 341.7 365.0092 341.7Q364.29044 341.7 363.85294 342.3094Q363.30606 343.09064 363.30606 345.21564ZM369.10294 346.8719L369.10294 345.8094L372.35294 345.8094L372.35294 346.8719L369.10294 346.8719ZM373.22794 347.2L374.3373 347.10626Q374.4623 347.91876 374.8998 348.325Q375.35294 348.73126 375.99356 348.73126Q376.74356 348.73126 377.2748 348.15314Q377.80606 347.575 377.80606 346.6375Q377.80606 345.73126 377.29044 345.21564Q376.79044 344.6844 375.9623 344.6844Q375.4623 344.6844 375.04044 344.91876Q374.6342 345.15314 374.3998 345.5125L373.41544 345.3875L374.24356 340.98126L378.5248 340.98126L378.5248 341.98126L375.0873 341.98126L374.6342 344.29376Q375.3998 343.7469 376.24356 343.7469Q377.36856 343.7469 378.1342 344.52814Q378.91544 345.3094 378.91544 346.54376Q378.91544 347.7 378.24356 348.5594Q377.41544 349.59064 375.99356 349.59064Q374.8217 349.59064 374.0717 348.9344Q373.3373 348.27814 373.22794 347.2ZM380.3842 347.46564L381.3998 347.3719Q381.5248 348.09064 381.8842 348.41876Q382.2592 348.73126 382.8217 348.73126Q383.30606 348.73126 383.66544 348.5125Q384.04044 348.27814 384.2748 347.91876Q384.5092 347.54376 384.66544 346.91876Q384.8217 346.27814 384.8217 345.6219Q384.8217 345.54376 384.8217 345.40314Q384.5092 345.90314 383.9623 346.23126Q383.41544 346.54376 382.7748 346.54376Q381.6967 346.54376 380.9623 345.77814Q380.22794 344.9969 380.22794 343.73126Q380.22794 342.41876 380.99356 341.6219Q381.7748 340.825 382.93106 340.825Q383.7592 340.825 384.4467 341.27814Q385.1498 341.73126 385.5092 342.575Q385.86856 343.40314 385.86856 344.98126Q385.86856 346.6219 385.5092 347.60626Q385.16544 348.575 384.4467 349.09064Q383.74356 349.59064 382.80606 349.59064Q381.79044 349.59064 381.1498 349.04376Q380.5092 348.48126 380.3842 347.46564ZM384.6967 343.66876Q384.6967 342.7625 384.2123 342.23126Q383.74356 341.7 383.05606 341.7Q382.35294 341.7 381.8217 342.27814Q381.30606 342.84064 381.30606 343.7625Q381.30606 344.575 381.80606 345.09064Q382.30606 345.60626 383.0248 345.60626Q383.7592 345.60626 384.22794 345.09064Q384.6967 344.575 384.6967 343.66876Z" fill-rule="nonzero"/><path fill="#161828" d="M444.55463 342.96564L443.50775 343.04376Q443.36713 342.41876 443.11713 342.1375Q442.67963 341.6844 442.05463 341.6844Q441.55463 341.6844 441.164 341.96564Q440.67963 342.34064 440.38275 343.04376Q440.1015 343.73126 440.08588 345.0125Q440.46088 344.4344 441.00775 344.15314Q441.57025 343.8719 442.17963 343.8719Q443.2265 343.8719 443.96088 344.65314Q444.71088 345.4344 444.71088 346.65314Q444.71088 347.46564 444.3515 348.16876Q444.00775 348.85626 443.39838 349.23126Q442.789 349.59064 442.02338 349.59064Q440.69525 349.59064 439.86713 348.6219Q439.039 347.65314 439.039 345.4344Q439.039 342.9344 439.96088 341.8094Q440.75775 340.825 442.11713 340.825Q443.13275 340.825 443.77338 341.40314Q444.42963 341.96564 444.55463 342.96564ZM440.25775 346.66876Q440.25775 347.21564 440.4765 347.71564Q440.71088 348.2 441.11713 348.46564Q441.539 348.73126 442.00775 348.73126Q442.664 348.73126 443.14838 348.2Q443.63275 347.65314 443.63275 346.73126Q443.63275 345.84064 443.14838 345.325Q442.67963 344.8094 441.96088 344.8094Q441.24213 344.8094 440.74213 345.325Q440.25775 345.84064 440.25775 346.66876ZM446.08588 345.21564Q446.08588 343.6844 446.39838 342.7625Q446.71088 341.825 447.32025 341.325Q447.94525 340.825 448.88275 340.825Q449.57025 340.825 450.08588 341.10626Q450.61713 341.3875 450.96088 341.91876Q451.30463 342.4344 451.49213 343.1844Q451.67963 343.9344 451.67963 345.21564Q451.67963 346.73126 451.36713 347.65314Q451.07025 348.575 450.44525 349.09064Q449.83588 349.59064 448.88275 349.59064Q447.64838 349.59064 446.92963 348.7Q446.08588 347.6375 446.08588 345.21564ZM447.164 345.21564Q447.164 347.325 447.664 348.02814Q448.164 348.73126 448.88275 348.73126Q449.61713 348.73126 450.1015 348.02814Q450.6015 347.325 450.6015 345.21564Q450.6015 343.09064 450.1015 342.40314Q449.61713 341.7 448.86713 341.7Q448.14838 341.7 447.71088 342.3094Q447.164 343.09064 447.164 345.21564ZM452.96088 346.8719L452.96088 345.8094L456.21088 345.8094L456.21088 346.8719L452.96088 346.8719ZM462.55463 342.96564L461.50775 343.04376Q461.36713 342.41876 461.11713 342.1375Q460.67963 341.6844 460.05463 341.6844Q459.55463 341.6844 459.164 341.96564Q458.67963 342.34064 458.38275 343.04376Q458.1015 343.73126 458.08588 345.0125Q458.46088 344.4344 459.00775 344.15314Q459.57025 343.8719 460.17963 343.8719Q461.2265 343.8719 461.96088 344.65314Q462.71088 345.4344 462.71088 346.65314Q462.71088 347.46564 462.3515 348.16876Q462.00775 348.85626 461.39838 349.23126Q460.789 349.59064 460.02338 349.59064Q458.69525 349.59064 457.86713 348.6219Q457.039 347.65314 457.039 345.4344Q457.039 342.9344 457.96088 341.8094Q458.75775 340.825 460.11713 340.825Q461.13275 340.825 461.77338 341.40314Q462.42963 341.96564 462.55463 342.96564ZM458.25775 346.66876Q458.25775 347.21564 458.4765 347.71564Q458.71088 348.2 459.11713 348.46564Q459.539 348.73126 460.00775 348.73126Q460.664 348.73126 461.14838 348.2Q461.63275 347.65314 461.63275 346.73126Q461.63275 345.84064 461.14838 345.325Q460.67963 344.8094 459.96088 344.8094Q459.24213 344.8094 458.74213 345.325Q458.25775 345.84064 458.25775 346.66876ZM467.46088 349.45L467.46088 347.3875L463.74213 347.3875L463.74213 346.41876L467.664 340.85626L468.52338 340.85626L468.52338 346.41876L469.67963 346.41876L469.67963 347.3875L468.52338 347.3875L468.52338 349.45L467.46088 349.45ZM467.46088 346.41876L467.46088 342.5594L464.77338 346.41876L467.46088 346.41876Z" fill-rule="nonzero"/><path fill="#38761d" d="M533.45 20.55C533.45 19.997715 533.8977 19.55 534.45 19.55L544.45 19.55C545.00226 19.55 545.45 19.997715 545.45 20.55L545.45 30.55C545.45 31.102285 545.00226 31.55 544.45 31.55L534.45 31.55C533.8977 31.55 533.45 31.102285 533.45 30.55Z" fill-rule="nonzero"/><path fill="#161828" d="M559.4969 28.534374L559.4969 29.55L553.8094 29.55Q553.8094 29.175 553.9344 28.815624Q554.15314 28.2375 554.6219 27.675Q555.10626 27.1125 556.0125 26.378124Q557.41876 25.221874 557.90314 24.55Q558.40314 23.878124 558.40314 23.284374Q558.40314 22.659374 557.95 22.2375Q557.4969 21.8 556.77814 21.8Q556.0125 21.8 555.5594 22.253124Q555.10626 22.70625 555.09064 23.51875L554.0125 23.409374Q554.1219 22.190624 554.84064 21.565624Q555.575 20.925 556.8094 20.925Q558.04376 20.925 558.7625 21.6125Q559.48126 22.3 559.48126 23.315624Q559.48126 23.83125 559.2625 24.33125Q559.0594 24.815624 558.5594 25.378124Q558.075 25.925 556.95 26.878124Q555.9969 27.675 555.71564 27.971874Q555.45 28.253124 555.27814 28.534374L559.4969 28.534374ZM560.95 25.315624Q560.95 23.784374 561.2625 22.8625Q561.575 21.925 562.1844 21.425Q562.8094 20.925 563.7469 20.925Q564.4344 20.925 564.95 21.20625Q565.48126 21.4875 565.825 22.01875Q566.16876 22.534374 566.35626 23.284374Q566.54376 24.034374 566.54376 25.315624Q566.54376 26.83125 566.23126 27.753124Q565.9344 28.675 565.3094 29.190624Q564.7 29.690624 563.7469 29.690624Q562.5125 29.690624 561.79376 28.8Q560.95 27.7375 560.95 25.315624ZM562.02814 25.315624Q562.02814 27.425 562.52814 28.128124Q563.02814 28.83125 563.7469 28.83125Q564.48126 28.83125 564.96564 28.128124Q565.46564 27.425 565.46564 25.315624Q565.46564 23.190624 564.96564 22.503124Q564.48126 21.8 563.73126 21.8Q563.0125 21.8 562.575 22.409374Q562.02814 23.190624 562.02814 25.315624ZM571.91876 29.55L570.8719 29.55L570.8719 22.83125Q570.48126 23.190624 569.85626 23.565624Q569.2469 23.925 568.7625 24.096874L568.7625 23.08125Q569.6375 22.659374 570.29376 22.08125Q570.96564 21.4875 571.2469 20.925L571.91876 20.925L571.91876 29.55ZM578.325 29.55L578.325 27.4875L574.60626 27.4875L574.60626 26.51875L578.52814 20.95625L579.3875 20.95625L579.3875 26.51875L580.54376 26.51875L580.54376 27.4875L579.3875 27.4875L579.3875 29.55L578.325 29.55ZM578.325 26.51875L578.325 22.659374L575.6375 26.51875L578.325 26.51875Z" fill-rule="nonzero"/><path fill="#e3e3f4" d="M533.45 44.55C533.45 43.997715 533.8977 43.55 534.45 43.55L544.45 43.55C545.00226 43.55 545.45 43.997715 545.45 44.55L545.45 54.55C545.45 55.102283 545.00226 55.55 544.45 55.55L534.45 55.55C533.8977 55.55 533.45 55.102283 533.45 54.55Z" fill-rule="nonzero"/><path fill="#161828" d="M559.4969 52.534374L559.4969 53.55L553.8094 53.55Q553.8094 53.175 553.9344 52.815624Q554.15314 52.2375 554.6219 51.675Q555.10626 51.1125 556.0125 50.378124Q557.41876 49.221874 557.90314 48.55Q558.40314 47.878124 558.40314 47.284374Q558.40314 46.659374 557.95 46.2375Q557.4969 45.8 556.77814 45.8Q556.0125 45.8 555.5594 46.253124Q555.10626 46.70625 555.09064 47.51875L554.0125 47.409374Q554.1219 46.190624 554.84064 45.565624Q555.575 44.925 556.8094 44.925Q558.04376 44.925 558.7625 45.6125Q559.48126 46.3 559.48126 47.315624Q559.48126 47.83125 559.2625 48.33125Q559.0594 48.815624 558.5594 49.378124Q558.075 49.925 556.95 50.878124Q555.9969 51.675 555.71564 51.971874Q555.45 52.253124 555.27814 52.534374L559.4969 52.534374ZM560.95 49.315624Q560.95 47.784374 561.2625 46.8625Q561.575 45.925 562.1844 45.425Q562.8094 44.925 563.7469 44.925Q564.4344 44.925 564.95 45.20625Q565.48126 45.4875 565.825 46.01875Q566.16876 46.534374 566.35626 47.284374Q566.54376 48.034374 566.54376 49.315624Q566.54376 50.83125 566.23126 51.753124Q565.9344 52.675 565.3094 53.190624Q564.7 53.690624 563.7469 53.690624Q562.5125 53.690624 561.79376 52.8Q560.95 51.7375 560.95 49.315624ZM562.02814 49.315624Q562.02814 51.425 562.52814 52.128124Q563.02814 52.83125 563.7469 52.83125Q564.48126 52.83125 564.96564 52.128124Q565.46564 51.425 565.46564 49.315624Q565.46564 47.190624 564.96564 46.503124Q564.48126 45.8 563.73126 45.8Q563.0125 45.8 562.575 46.409374Q562.02814 47.190624 562.02814 49.315624ZM571.91876 53.55L570.8719 53.55L570.8719 46.83125Q570.48126 47.190624 569.85626 47.565624Q569.2469 47.925 568.7625 48.096874L568.7625 47.08125Q569.6375 46.659374 570.29376 46.08125Q570.96564 45.4875 571.2469 44.925L571.91876 44.925L571.91876 53.55ZM574.95 51.3L576.0594 51.20625Q576.1844 52.01875 576.6219 52.425Q577.075 52.83125 577.71564 52.83125Q578.46564 52.83125 578.9969 52.253124Q579.52814 51.675 579.52814 50.7375Q579.52814 49.83125 579.0125 49.315624Q578.5125 48.784374 577.6844 48.784374Q577.1844 48.784374 576.7625 49.01875Q576.35626 49.253124 576.1219 49.6125L575.1375 49.4875L575.96564 45.08125L580.2469 45.08125L580.2469 46.08125L576.8094 46.08125L576.35626 48.39375Q577.1219 47.846874 577.96564 47.846874Q579.09064 47.846874 579.85626 48.628124Q580.6375 49.409374 580.6375 50.64375Q580.6375 51.8 579.96564 52.659374Q579.1375 53.690624 577.71564 53.690624Q576.54376 53.690624 575.79376 53.034374Q575.0594 52.378124 574.95 51.3Z" fill-rule="nonzero"/><path fill="#161828" d="M533.45 68.55C533.45 67.99772 533.8977 67.55 534.45 67.55L544.45 67.55C545.00226 67.55 545.45 67.99772 545.45 68.55L545.45 78.55C545.45 79.10229 545.00226 79.55 544.45 79.55L534.45 79.55C533.8977 79.55 533.45 79.10229 533.45 78.55Z" fill-rule="nonzero"/><path fill="#161828" d="M559.4969 76.53438L559.4969 77.55L553.8094 77.55Q553.8094 77.175 553.9344 76.81563Q554.15314 76.2375 554.6219 75.675Q555.10626 75.1125 556.0125 74.37813Q557.41876 73.22188 557.90314 72.55Q558.40314 71.87813 558.40314 71.28438Q558.40314 70.65938 557.95 70.2375Q557.4969 69.8 556.77814 69.8Q556.0125 69.8 555.5594 70.25313Q555.10626 70.70625 555.09064 71.51875L554.0125 71.40938Q554.1219 70.19063 554.84064 69.56563Q555.575 68.925 556.8094 68.925Q558.04376 68.925 558.7625 69.6125Q559.48126 70.3 559.48126 71.31563Q559.48126 71.83125 559.2625 72.33125Q559.0594 72.81563 558.5594 73.37813Q558.075 73.925 556.95 74.87813Q555.9969 75.675 555.71564 75.97188Q555.45 76.25313 555.27814 76.53438L559.4969 76.53438ZM560.95 73.31563Q560.95 71.78438 561.2625 70.8625Q561.575 69.925 562.1844 69.425Q562.8094 68.925 563.7469 68.925Q564.4344 68.925 564.95 69.20625Q565.48126 69.4875 565.825 70.01875Q566.16876 70.53438 566.35626 71.28438Q566.54376 72.03438 566.54376 73.31563Q566.54376 74.83125 566.23126 75.75313Q565.9344 76.675 565.3094 77.19063Q564.7 77.69063 563.7469 77.69063Q562.5125 77.69063 561.79376 76.8Q560.95 75.7375 560.95 73.31563ZM562.02814 73.31563Q562.02814 75.425 562.52814 76.12813Q563.02814 76.83125 563.7469 76.83125Q564.48126 76.83125 564.96564 76.12813Q565.46564 75.425 565.46564 73.31563Q565.46564 71.19063 564.96564 70.50313Q564.48126 69.8 563.73126 69.8Q563.0125 69.8 562.575 70.40938Q562.02814 71.19063 562.02814 73.31563ZM571.91876 77.55L570.8719 77.55L570.8719 70.83125Q570.48126 71.19063 569.85626 71.56563Q569.2469 71.925 568.7625 72.09688L568.7625 71.08125Q569.6375 70.65938 570.29376 70.08125Q570.96564 69.4875 571.2469 68.925L571.91876 68.925L571.91876 77.55ZM580.41876 71.06563L579.3719 71.14375Q579.23126 70.51875 578.98126 70.2375Q578.54376 69.78438 577.91876 69.78438Q577.41876 69.78438 577.02814 70.06563Q576.54376 70.44063 576.2469 71.14375Q575.96564 71.83125 575.95 73.1125Q576.325 72.53438 576.8719 72.25313Q577.4344 71.97188 578.04376 71.97188Q579.09064 71.97188 579.825 72.75313Q580.575 73.53438 580.575 74.75313Q580.575 75.56563 580.21564 76.26875Q579.8719 76.95625 579.2625 77.33125Q578.65314 77.69063 577.8875 77.69063Q576.5594 77.69063 575.73126 76.72188Q574.90314 75.75313 574.90314 73.53438Q574.90314 71.03438 575.825 69.90938Q576.6219 68.925 577.98126 68.925Q578.9969 68.925 579.6375 69.50313Q580.29376 70.06563 580.41876 71.06563ZM576.1219 74.76875Q576.1219 75.31563 576.34064 75.81563Q576.575 76.3 576.98126 76.56563Q577.40314 76.83125 577.8719 76.83125Q578.52814 76.83125 579.0125 76.3Q579.4969 75.75313 579.4969 74.83125Q579.4969 73.94063 579.0125 73.425Q578.54376 72.90938 577.825 72.90938Q577.10626 72.90938 576.60626 73.425Q576.1219 73.94063 576.1219 74.76875Z" fill-rule="nonzero"/><path fill="#ff5c5c" d="M533.45 92.55C533.45 91.99772 533.8977 91.55 534.45 91.55L544.45 91.55C545.00226 91.55 545.45 91.99772 545.45 92.55L545.45 102.55C545.45 103.10229 545.00226 103.55 544.45 103.55L534.45 103.55C533.8977 103.55 533.45 103.10229 533.45 102.55Z" fill-rule="nonzero"/><path fill="#161828" d="M559.4969 100.53438L559.4969 101.55L553.8094 101.55Q553.8094 101.175 553.9344 100.81563Q554.15314 100.2375 554.6219 99.675Q555.10626 99.1125 556.0125 98.37813Q557.41876 97.22188 557.90314 96.55Q558.40314 95.87813 558.40314 95.28438Q558.40314 94.65938 557.95 94.2375Q557.4969 93.8 556.77814 93.8Q556.0125 93.8 555.5594 94.25313Q555.10626 94.70625 555.09064 95.51875L554.0125 95.40938Q554.1219 94.19063 554.84064 93.56563Q555.575 92.925 556.8094 92.925Q558.04376 92.925 558.7625 93.6125Q559.48126 94.3 559.48126 95.31563Q559.48126 95.83125 559.2625 96.33125Q559.0594 96.81563 558.5594 97.37813Q558.075 97.925 556.95 98.87813Q555.9969 99.675 555.71564 99.97188Q555.45 100.25313 555.27814 100.53438L559.4969 100.53438ZM560.95 97.31563Q560.95 95.78438 561.2625 94.8625Q561.575 93.925 562.1844 93.425Q562.8094 92.925 563.7469 92.925Q564.4344 92.925 564.95 93.20625Q565.48126 93.4875 565.825 94.01875Q566.16876 94.53438 566.35626 95.28438Q566.54376 96.03438 566.54376 97.31563Q566.54376 98.83125 566.23126 99.75313Q565.9344 100.675 565.3094 101.19063Q564.7 101.69063 563.7469 101.69063Q562.5125 101.69063 561.79376 100.8Q560.95 99.7375 560.95 97.31563ZM562.02814 97.31563Q562.02814 99.425 562.52814 100.12813Q563.02814 100.83125 563.7469 100.83125Q564.48126 100.83125 564.96564 100.12813Q565.46564 99.425 565.46564 97.31563Q565.46564 95.19063 564.96564 94.50313Q564.48126 93.8 563.73126 93.8Q563.0125 93.8 562.575 94.40938Q562.02814 95.19063 562.02814 97.31563ZM571.91876 101.55L570.8719 101.55L570.8719 94.83125Q570.48126 95.19063 569.85626 95.56563Q569.2469 95.925 568.7625 96.09688L568.7625 95.08125Q569.6375 94.65938 570.29376 94.08125Q570.96564 93.4875 571.2469 92.925L571.91876 92.925L571.91876 101.55ZM575.0125 94.08125L575.0125 93.06563L580.575 93.06563L580.575 93.89375Q579.7625 94.76875 578.95 96.22188Q578.15314 97.65938 577.71564 99.19063Q577.3875 100.26875 577.3094 101.55L576.21564 101.55Q576.23126 100.53438 576.60626 99.09688Q576.9969 97.65938 577.7 96.33125Q578.41876 95.00313 579.23126 94.08125L575.0125 94.08125Z" fill-rule="nonzero"/><path fill="#75788d" d="M533.45 116.55C533.45 115.99772 533.8977 115.55 534.45 115.55L544.45 115.55C545.00226 115.55 545.45 115.99772 545.45 116.55L545.45 126.55C545.45 127.10229 545.00226 127.55 544.45 127.55L534.45 127.55C533.8977 127.55 533.45 127.10229 533.45 126.55Z" fill-rule="nonzero"/><path fill="#161828" d="M559.4969 124.53438L559.4969 125.55L553.8094 125.55Q553.8094 125.175 553.9344 124.81563Q554.15314 124.2375 554.6219 123.675Q555.10626 123.1125 556.0125 122.37813Q557.41876 121.22188 557.90314 120.55Q558.40314 119.87813 558.40314 119.28438Q558.40314 118.65938 557.95 118.2375Q557.4969 117.8 556.77814 117.8Q556.0125 117.8 555.5594 118.25313Q555.10626 118.70625 555.09064 119.51875L554.0125 119.40938Q554.1219 118.19063 554.84064 117.56563Q555.575 116.925 556.8094 116.925Q558.04376 116.925 558.7625 117.6125Q559.48126 118.3 559.48126 119.31563Q559.48126 119.83125 559.2625 120.33125Q559.0594 120.81563 558.5594 121.37813Q558.075 121.925 556.95 122.87813Q555.9969 123.675 555.71564 123.97188Q555.45 124.25313 555.27814 124.53438L559.4969 124.53438ZM560.95 121.31563Q560.95 119.78438 561.2625 118.8625Q561.575 117.925 562.1844 117.425Q562.8094 116.925 563.7469 116.925Q564.4344 116.925 564.95 117.20625Q565.48126 117.4875 565.825 118.01875Q566.16876 118.53438 566.35626 119.28438Q566.54376 120.03438 566.54376 121.31563Q566.54376 122.83125 566.23126 123.75313Q565.9344 124.675 565.3094 125.19063Q564.7 125.69063 563.7469 125.69063Q562.5125 125.69063 561.79376 124.8Q560.95 123.7375 560.95 121.31563ZM562.02814 121.31563Q562.02814 123.425 562.52814 124.12813Q563.02814 124.83125 563.7469 124.83125Q564.48126 124.83125 564.96564 124.12813Q565.46564 123.425 565.46564 121.31563Q565.46564 119.19063 564.96564 118.50313Q564.48126 117.8 563.73126 117.8Q563.0125 117.8 562.575 118.40938Q562.02814 119.19063 562.02814 121.31563ZM571.91876 125.55L570.8719 125.55L570.8719 118.83125Q570.48126 119.19063 569.85626 119.56563Q569.2469 119.925 568.7625 120.09688L568.7625 119.08125Q569.6375 118.65938 570.29376 118.08125Q570.96564 117.4875 571.2469 116.925L571.91876 116.925L571.91876 125.55ZM576.575 120.89375Q575.91876 120.64375 575.59064 120.20625Q575.27814 119.75313 575.27814 119.14375Q575.27814 118.20625 575.95 117.56563Q576.6375 116.925 577.7469 116.925Q578.8719 116.925 579.5594 117.58125Q580.2469 118.2375 580.2469 119.175Q580.2469 119.76875 579.9344 120.20625Q579.6219 120.64375 578.98126 120.89375Q579.77814 121.14375 580.1844 121.72188Q580.59064 122.3 580.59064 123.09688Q580.59064 124.19063 579.8094 124.94063Q579.04376 125.69063 577.7625 125.69063Q576.4969 125.69063 575.71564 124.94063Q574.9344 124.19063 574.9344 123.06563Q574.9344 122.22188 575.35626 121.65938Q575.79376 121.09688 576.575 120.89375ZM576.35626 119.09688Q576.35626 119.70625 576.7469 120.09688Q577.15314 120.4875 577.77814 120.4875Q578.3875 120.4875 578.77814 120.1125Q579.16876 119.72188 579.16876 119.15938Q579.16876 118.58125 578.7625 118.19063Q578.35626 117.78438 577.7625 117.78438Q577.15314 117.78438 576.7469 118.175Q576.35626 118.56563 576.35626 119.09688ZM576.02814 123.06563Q576.02814 123.51875 576.23126 123.94063Q576.45 124.3625 576.8719 124.59688Q577.29376 124.83125 577.77814 124.83125Q578.52814 124.83125 579.0125 124.34688Q579.5125 123.8625 579.5125 123.1125Q579.5125 122.34688 579.0125 121.84688Q578.5125 121.34688 577.7469 121.34688Q576.9969 121.34688 576.5125 121.84688Q576.02814 122.33125 576.02814 123.06563Z" fill-rule="nonzero"/><path fill="#6ac86f" d="M533.45 140.55C533.45 139.99771 533.8977 139.55 534.45 139.55L544.45 139.55C545.00226 139.55 545.45 139.99771 545.45 140.55L545.45 150.55C545.45 151.10228 545.00226 151.55 544.45 151.55L534.45 151.55C533.8977 151.55 533.45 151.10228 533.45 150.55Z" fill-rule="nonzero"/><path fill="#161828" d="M559.4969 148.53438L559.4969 149.55L553.8094 149.55Q553.8094 149.175 553.9344 148.81563Q554.15314 148.2375 554.6219 147.675Q555.10626 147.1125 556.0125 146.37813Q557.41876 145.22188 557.90314 144.55Q558.40314 143.87813 558.40314 143.28438Q558.40314 142.65938 557.95 142.2375Q557.4969 141.8 556.77814 141.8Q556.0125 141.8 555.5594 142.25313Q555.10626 142.70625 555.09064 143.51875L554.0125 143.40938Q554.1219 142.19063 554.84064 141.56563Q555.575 140.925 556.8094 140.925Q558.04376 140.925 558.7625 141.6125Q559.48126 142.3 559.48126 143.31563Q559.48126 143.83125 559.2625 144.33125Q559.0594 144.81563 558.5594 145.37813Q558.075 145.925 556.95 146.87813Q555.9969 147.675 555.71564 147.97188Q555.45 148.25313 555.27814 148.53438L559.4969 148.53438ZM560.95 145.31563Q560.95 143.78438 561.2625 142.8625Q561.575 141.925 562.1844 141.425Q562.8094 140.925 563.7469 140.925Q564.4344 140.925 564.95 141.20625Q565.48126 141.4875 565.825 142.01875Q566.16876 142.53438 566.35626 143.28438Q566.54376 144.03438 566.54376 145.31563Q566.54376 146.83125 566.23126 147.75313Q565.9344 148.675 565.3094 149.19063Q564.7 149.69063 563.7469 149.69063Q562.5125 149.69063 561.79376 148.8Q560.95 147.7375 560.95 145.31563ZM562.02814 145.31563Q562.02814 147.425 562.52814 148.12813Q563.02814 148.83125 563.7469 148.83125Q564.48126 148.83125 564.96564 148.12813Q565.46564 147.425 565.46564 145.31563Q565.46564 143.19063 564.96564 142.50313Q564.48126 141.8 563.73126 141.8Q563.0125 141.8 562.575 142.40938Q562.02814 143.19063 562.02814 145.31563ZM571.91876 149.55L570.8719 149.55L570.8719 142.83125Q570.48126 143.19063 569.85626 143.56563Q569.2469 143.925 568.7625 144.09688L568.7625 143.08125Q569.6375 142.65938 570.29376 142.08125Q570.96564 141.4875 571.2469 140.925L571.91876 140.925L571.91876 149.55ZM575.10626 147.56563L576.1219 147.47188Q576.2469 148.19063 576.60626 148.51875Q576.98126 148.83125 577.54376 148.83125Q578.02814 148.83125 578.3875 148.6125Q578.7625 148.37813 578.9969 148.01875Q579.23126 147.64375 579.3875 147.01875Q579.54376 146.37813 579.54376 145.72188Q579.54376 145.64375 579.54376 145.50313Q579.23126 146.00313 578.6844 146.33125Q578.1375 146.64375 577.4969 146.64375Q576.41876 146.64375 575.6844 145.87813Q574.95 145.09688 574.95 143.83125Q574.95 142.51875 575.71564 141.72188Q576.4969 140.925 577.65314 140.925Q578.48126 140.925 579.16876 141.37813Q579.8719 141.83125 580.23126 142.675Q580.59064 143.50313 580.59064 145.08125Q580.59064 146.72188 580.23126 147.70625Q579.8875 148.675 579.16876 149.19063Q578.46564 149.69063 577.52814 149.69063Q576.5125 149.69063 575.8719 149.14375Q575.23126 148.58125 575.10626 147.56563ZM579.41876 143.76875Q579.41876 142.8625 578.9344 142.33125Q578.46564 141.8 577.77814 141.8Q577.075 141.8 576.54376 142.37813Q576.02814 142.94063 576.02814 143.8625Q576.02814 144.675 576.52814 145.19063Q577.02814 145.70625 577.7469 145.70625Q578.48126 145.70625 578.95 145.19063Q579.41876 144.675 579.41876 143.76875Z" fill-rule="nonzero"/></svg>