<svg version="1.1" viewBox="0.0 0.0 351.0 371.0" fill="none" stroke="none" stroke-linecap="square" stroke-miterlimit="10" width="351" height="371" xmlns:xlink="http://www.w3.org/1999/xlink" xmlns="http://www.w3.org/2000/svg"><path fill="#ffffff" d="M0 0L351.0 0L351.0 371.0L0 371.0L0 0Z" fill-rule="nonzero"/><path fill="#e3e3f4" d="M92.329315 303.56467C34.105915 266.57507 7.308131 195.57816 26.569021 129.3421C45.82991 63.10607 106.52033 17.55 175.5 17.55L175.5 172.65Z" fill-rule="nonzero"/><path fill="#6ac86f" d="M175.5 17.55C241.50757 17.55 300.28354 59.327103 321.98108 121.666626C343.67862 184.00615 323.5435 253.24861 271.80045 294.2322C220.05739 335.21582 148.04407 338.9605 92.329315 303.56467L175.5 172.65Z" fill-rule="nonzero"/><path fill="#000000" d="M276.85895 208.40231L278.15582 208.29294Q278.29645 209.23044 278.81207 209.71481Q279.34332 210.18356 280.0777 210.18356Q280.96832 210.18356 281.5777 209.51169Q282.2027 208.83981 282.2027 207.74606Q282.2027 206.68356 281.60895 206.07419Q281.0152 205.46481 280.06207 205.46481Q279.46832 205.46481 278.98395 205.74606Q278.5152 206.01169 278.23395 206.43356L277.0777 206.29294L278.04645 201.13669L283.03082 201.13669L283.03082 202.32419L279.03082 202.32419L278.49957 205.01169Q279.40582 204.38669 280.3902 204.38669Q281.7027 204.38669 282.59332 205.29294Q283.49957 206.19919 283.49957 207.63669Q283.49957 208.99606 282.71832 209.98044Q281.74957 211.19919 280.0777 211.19919Q278.71832 211.19919 277.84332 210.43356Q276.98395 209.66794 276.85895 208.40231ZM285.04645 208.71481L286.23395 208.60544Q286.37457 209.43356 286.79645 209.80856Q287.23395 210.18356 287.8902 210.18356Q288.4527 210.18356 288.87457 209.93356Q289.31207 209.66794 289.5777 209.23044Q289.85895 208.79294 290.04645 208.05856Q290.23395 207.32419 290.23395 206.55856Q290.23395 206.48044 290.21832 206.30856Q289.85895 206.90231 289.21832 207.27731Q288.5777 207.63669 287.8277 207.63669Q286.5777 207.63669 285.71832 206.73044Q284.85895 205.82419 284.85895 204.35544Q284.85895 202.82419 285.74957 201.90231Q286.65582 200.96481 288.0152 200.96481Q288.98395 200.96481 289.79645 201.49606Q290.60895 202.01169 291.03082 202.99606Q291.4527 203.96481 291.4527 205.80856Q291.4527 207.73044 291.03082 208.87106Q290.62457 210.01169 289.79645 210.60544Q288.96832 211.19919 287.85895 211.19919Q286.68707 211.19919 285.93707 210.54294Q285.2027 209.88669 285.04645 208.71481ZM290.0777 204.29294Q290.0777 203.23044 289.5152 202.60544Q288.9527 201.98044 288.17145 201.98044Q287.34332 201.98044 286.73395 202.65231Q286.12457 203.32419 286.12457 204.38669Q286.12457 205.33981 286.7027 205.94919Q287.28082 206.54294 288.12457 206.54294Q288.98395 206.54294 289.53082 205.94919Q290.0777 205.33981 290.0777 204.29294ZM293.09332 203.41794Q293.09332 202.33981 293.62457 201.58981Q294.17145 200.83981 295.2027 200.83981Q296.1402 200.83981 296.74957 201.51169Q297.37457 202.18356 297.37457 203.48044Q297.37457 204.76169 296.74957 205.44919Q296.12457 206.13669 295.21832 206.13669Q294.31207 206.13669 293.7027 205.46481Q293.09332 204.77731 293.09332 203.41794ZM295.23395 201.68356Q294.78082 201.68356 294.46832 202.08981Q294.17145 202.48044 294.17145 203.52731Q294.17145 204.49606 294.46832 204.88669Q294.78082 205.27731 295.23395 205.27731Q295.7027 205.27731 295.99957 204.88669Q296.31207 204.49606 296.31207 203.43356Q296.31207 202.46481 295.99957 202.07419Q295.68707 201.68356 295.23395 201.68356ZM295.23395 211.40231L300.71832 200.83981L301.71832 200.83981L296.2652 211.40231L295.23395 211.40231ZM299.5777 208.66794Q299.5777 207.58981 300.10895 206.85544Q300.65582 206.10544 301.68707 206.10544Q302.62457 206.10544 303.24957 206.77731Q303.87457 207.44919 303.87457 208.74606Q303.87457 210.02731 303.24957 210.71481Q302.62457 211.40231 301.68707 211.40231Q300.78082 211.40231 300.17145 210.73044Q299.5777 210.04294 299.5777 208.66794ZM301.71832 206.94919Q301.24957 206.94919 300.9527 207.35544Q300.65582 207.74606 300.65582 208.79294Q300.65582 209.76169 300.9527 210.15231Q301.2652 210.54294 301.71832 210.54294Q302.18707 210.54294 302.48395 210.15231Q302.79645 209.76169 302.79645 208.69919Q302.79645 207.73044 302.48395 207.33981Q302.18707 206.94919 301.71832 206.94919Z" fill-rule="nonzero"/><path fill="#000000" d="M51.25042 144.27269L51.25042 141.86644L46.891045 141.86644L46.891045 140.74144L51.46917 134.25706L52.46917 134.25706L52.46917 140.74144L53.828545 140.74144L53.828545 141.86644L52.46917 141.86644L52.46917 144.27269L51.25042 144.27269ZM51.25042 140.74144L51.25042 136.22581L48.109795 140.74144L51.25042 140.74144ZM59.93792 144.27269L58.703545 144.27269L58.703545 136.42894Q58.266045 136.85081 57.53167 137.28831Q56.81292 137.71019 56.25042 137.91331L56.25042 136.72581Q57.28167 136.24144 58.047295 135.55394Q58.828545 134.86644 59.141045 134.21019L59.93792 134.21019L59.93792 144.27269ZM63.53167 136.66331Q63.53167 135.58519 64.06292 134.83519Q64.609795 134.08519 65.641045 134.08519Q66.578545 134.08519 67.18792 134.75706Q67.81292 135.42894 67.81292 136.72581Q67.81292 138.00706 67.18792 138.69456Q66.56292 139.38206 65.65667 139.38206Q64.75042 139.38206 64.141045 138.71019Q63.53167 138.02269 63.53167 136.66331ZM65.672295 134.92894Q65.21917 134.92894 64.90667 135.33519Q64.609795 135.72581 64.609795 136.77269Q64.609795 137.74144 64.90667 138.13206Q65.21917 138.52269 65.672295 138.52269Q66.141045 138.52269 66.43792 138.13206Q66.75042 137.74144 66.75042 136.67894Q66.75042 135.71019 66.43792 135.31956Q66.12542 134.92894 65.672295 134.92894ZM65.672295 144.64769L71.15667 134.08519L72.15667 134.08519L66.703545 144.64769L65.672295 144.64769ZM70.016045 141.91331Q70.016045 140.83519 70.547295 140.10081Q71.09417 139.35081 72.12542 139.35081Q73.06292 139.35081 73.68792 140.02269Q74.31292 140.69456 74.31292 141.99144Q74.31292 143.27269 73.68792 143.96019Q73.06292 144.64769 72.12542 144.64769Q71.21917 144.64769 70.609795 143.97581Q70.016045 143.28831 70.016045 141.91331ZM72.15667 140.19456Q71.68792 140.19456 71.391045 140.60081Q71.09417 140.99144 71.09417 142.03831Q71.09417 143.00706 71.391045 143.39769Q71.703545 143.78831 72.15667 143.78831Q72.62542 143.78831 72.922295 143.39769Q73.234795 143.00706 73.234795 141.94456Q73.234795 140.97581 72.922295 140.58519Q72.62542 140.19456 72.15667 140.19456Z" fill-rule="nonzero"/><path fill="#6ac86f" d="M133.0 346.45C133.0 349.7637 130.3137 352.45 127.0 352.45C123.686295 352.45 121.0 349.7637 121.0 346.45C121.0 343.1363 123.686295 340.45 127.0 340.45C130.3137 340.45 133.0 343.1363 133.0 346.45Z" fill-rule="nonzero"/><path fill="#161828" d="M145.95312 347.075L145.95312 346.075L149.57812 346.0594L149.57812 349.2469Q148.75 349.91876 147.85938 350.2625Q146.96875 350.59064 146.03125 350.59064Q144.76562 350.59064 143.71875 350.0594Q142.6875 349.5125 142.15625 348.4969Q141.64062 347.46564 141.64062 346.2Q141.64062 344.9344 142.15625 343.85626Q142.6875 342.7625 143.67188 342.2469Q144.65625 341.71564 145.9375 341.71564Q146.875 341.71564 147.625 342.0125Q148.375 342.3094 148.79688 342.85626Q149.23438 343.3875 149.45312 344.2625L148.4375 344.54376Q148.23438 343.8875 147.9375 343.5125Q147.65625 343.1375 147.125 342.91876Q146.59375 342.6844 145.95312 342.6844Q145.17188 342.6844 144.59375 342.91876Q144.03125 343.15314 143.67188 343.54376Q143.32812 343.9344 143.14062 344.40314Q142.8125 345.2 142.8125 346.1219Q142.8125 347.27814 143.20312 348.0594Q143.60938 348.825 144.35938 349.2Q145.10938 349.575 145.96875 349.575Q146.70312 349.575 147.40625 349.29376Q148.10938 348.9969 148.46875 348.6844L148.46875 347.075L145.95312 347.075ZM150.79688 343.075L150.79688 341.85626L151.85938 341.85626L151.85938 343.075L150.79688 343.075ZM150.79688 350.45L150.79688 344.23126L151.85938 344.23126L151.85938 350.45L150.79688 350.45ZM153.78125 350.45L153.78125 344.23126L154.73438 344.23126L154.73438 345.16876Q155.09375 344.5125 155.39062 344.3094Q155.70312 344.09064 156.07812 344.09064Q156.60938 344.09064 157.15625 344.41876L156.79688 345.40314Q156.40625 345.16876 156.03125 345.16876Q155.67188 345.16876 155.39062 345.3875Q155.125 345.59064 155.01562 345.96564Q154.82812 346.52814 154.82812 347.1844L154.82812 350.45L153.78125 350.45ZM157.76562 350.45L157.76562 341.85626L158.82812 341.85626L158.82812 350.45L157.76562 350.45ZM160.375 348.59064L161.40625 348.4344Q161.5 349.0594 161.89062 349.3875Q162.29688 349.71564 163.03125 349.71564Q163.75 349.71564 164.09375 349.4344Q164.45312 349.1375 164.45312 348.73126Q164.45312 348.3719 164.14062 348.16876Q163.92188 348.02814 163.0625 347.8094Q161.90625 347.5125 161.45312 347.3094Q161.01562 347.09064 160.78125 346.71564Q160.54688 346.34064 160.54688 345.8719Q160.54688 345.46564 160.73438 345.10626Q160.92188 344.7469 161.25 344.5125Q161.5 344.34064 161.92188 344.21564Q162.34375 344.09064 162.84375 344.09064Q163.5625 344.09064 164.10938 344.3094Q164.67188 344.5125 164.9375 344.8719Q165.20312 345.23126 165.29688 345.825L164.26562 345.96564Q164.20312 345.4969 163.85938 345.23126Q163.53125 344.95 162.90625 344.95Q162.1875 344.95 161.875 345.2Q161.5625 345.4344 161.5625 345.7625Q161.5625 345.96564 161.6875 346.1219Q161.82812 346.29376 162.09375 346.40314Q162.25 346.46564 163.03125 346.66876Q164.15625 346.98126 164.59375 347.16876Q165.03125 347.35626 165.28125 347.71564Q165.53125 348.075 165.53125 348.6219Q165.53125 349.15314 165.21875 349.6219Q164.92188 350.075 164.34375 350.34064Q163.76562 350.59064 163.03125 350.59064Q161.8125 350.59064 161.17188 350.09064Q160.54688 349.575 160.375 348.59064Z" fill-rule="nonzero"/><path fill="#e3e3f4" d="M195.0 346.45C195.0 349.7637 192.3137 352.45 189.0 352.45C185.6863 352.45 183.0 349.7637 183.0 346.45C183.0 343.1363 185.6863 340.45 189.0 340.45C192.3137 340.45 195.0 343.1363 195.0 346.45Z" fill-rule="nonzero"/><path fill="#161828" d="M203.875 350.45L203.875 341.85626L207.10938 341.85626Q208.09375 341.85626 208.6875 342.1219Q209.28125 342.3875 209.60938 342.9344Q209.95312 343.46564 209.95312 344.0594Q209.95312 344.60626 209.65625 345.09064Q209.35938 345.575 208.75 345.8719Q209.53125 346.10626 209.9375 346.66876Q210.35938 347.21564 210.35938 347.96564Q210.35938 348.5594 210.10938 349.09064Q209.85938 349.60626 209.48438 349.8875Q209.10938 350.16876 208.53125 350.3094Q207.96875 350.45 207.15625 350.45L203.875 350.45ZM205.01562 345.46564L206.875 345.46564Q207.625 345.46564 207.95312 345.3719Q208.39062 345.2469 208.60938 344.95Q208.82812 344.6375 208.82812 344.1844Q208.82812 343.7625 208.625 343.4344Q208.42188 343.10626 208.03125 342.9969Q207.65625 342.8719 206.73438 342.8719L205.01562 342.8719L205.01562 345.46564ZM205.01562 349.4344L207.15625 349.4344Q207.70312 349.4344 207.92188 349.3875Q208.32812 349.325 208.57812 349.16876Q208.84375 348.9969 209.01562 348.6844Q209.1875 348.3719 209.1875 347.96564Q209.1875 347.48126 208.9375 347.1219Q208.70312 346.7625 208.26562 346.6219Q207.82812 346.48126 207.0 346.48126L205.01562 346.48126L205.01562 349.4344ZM211.40625 347.34064Q211.40625 345.60626 212.35938 344.77814Q213.15625 344.09064 214.3125 344.09064Q215.59375 344.09064 216.40625 344.9344Q217.23438 345.7625 217.23438 347.2469Q217.23438 348.45 216.875 349.1375Q216.51562 349.825 215.8125 350.21564Q215.125 350.59064 214.3125 350.59064Q213.01562 350.59064 212.20312 349.7625Q211.40625 348.91876 211.40625 347.34064ZM212.48438 347.34064Q212.48438 348.52814 213.0 349.1219Q213.53125 349.71564 214.3125 349.71564Q215.10938 349.71564 215.625 349.1219Q216.14062 348.52814 216.14062 347.3094Q216.14062 346.15314 215.60938 345.5594Q215.09375 344.96564 214.3125 344.96564Q213.53125 344.96564 213.0 345.5594Q212.48438 346.1375 212.48438 347.34064ZM218.75 352.84064L218.625 351.85626Q218.96875 351.95 219.23438 351.95Q219.57812 351.95 219.78125 351.825Q220.0 351.71564 220.14062 351.5125Q220.23438 351.34064 220.46875 350.71564Q220.48438 350.6375 220.5625 350.46564L218.1875 344.23126L219.32812 344.23126L220.625 347.825Q220.875 348.5125 221.07812 349.27814Q221.26562 348.54376 221.51562 347.85626L222.84375 344.23126L223.89062 344.23126L221.53125 350.5594Q221.14062 351.575 220.9375 351.96564Q220.65625 352.4969 220.28125 352.73126Q219.92188 352.98126 219.42188 352.98126Q219.125 352.98126 218.75 352.84064ZM223.375 348.59064L224.40625 348.4344Q224.5 349.0594 224.89062 349.3875Q225.29688 349.71564 226.03125 349.71564Q226.75 349.71564 227.09375 349.4344Q227.45312 349.1375 227.45312 348.73126Q227.45312 348.3719 227.14062 348.16876Q226.92188 348.02814 226.0625 347.8094Q224.90625 347.5125 224.45312 347.3094Q224.01562 347.09064 223.78125 346.71564Q223.54688 346.34064 223.54688 345.8719Q223.54688 345.46564 223.73438 345.10626Q223.92188 344.7469 224.25 344.5125Q224.5 344.34064 224.92188 344.21564Q225.34375 344.09064 225.84375 344.09064Q226.5625 344.09064 227.10938 344.3094Q227.67188 344.5125 227.9375 344.8719Q228.20312 345.23126 228.29688 345.825L227.26562 345.96564Q227.20312 345.4969 226.85938 345.23126Q226.53125 344.95 225.90625 344.95Q225.1875 344.95 224.875 345.2Q224.5625 345.4344 224.5625 345.7625Q224.5625 345.96564 224.6875 346.1219Q224.82812 346.29376 225.09375 346.40314Q225.25 346.46564 226.03125 346.66876Q227.15625 346.98126 227.59375 347.16876Q228.03125 347.35626 228.28125 347.71564Q228.53125 348.075 228.53125 348.6219Q228.53125 349.15314 228.21875 349.6219Q227.92188 350.075 227.34375 350.34064Q226.76562 350.59064 226.03125 350.59064Q224.8125 350.59064 224.17188 350.09064Q223.54688 349.575 223.375 348.59064Z" fill-rule="nonzero"/></svg>